<svg width="522" height="424" viewBox="0 0 522 424" fill="none" xmlns="http://www.w3.org/2000/svg">
<path d="M258.707 293.707C258.317 294.098 257.683 294.098 257.293 293.707L250.929 287.343C250.538 286.953 250.538 286.319 250.929 285.929C251.319 285.538 251.953 285.538 252.343 285.929L258 291.586L263.657 285.929C264.047 285.538 264.681 285.538 265.071 285.929C265.462 286.319 265.462 286.953 265.071 287.343L258.707 293.707ZM259 63V293H257V63H259Z" fill="#B1B1B1"/>
<path d="M8.88313 101.288H17.4631C21.2178 101.288 24.0191 102.579 25.8671 105.16C27.7151 107.741 28.6391 111.569 28.6391 116.644C28.6391 121.719 27.7151 125.547 25.8671 128.128C24.0191 130.709 21.2178 132 17.4631 132H8.88313V101.288ZM17.2871 128.788C19.7511 128.788 21.5991 127.937 22.8311 126.236C24.0925 124.535 24.7231 122.129 24.7231 119.02V114.268C24.7231 111.159 24.0925 108.753 22.8311 107.052C21.5991 105.351 19.7511 104.5 17.2871 104.5H12.5791V128.788H17.2871ZM44.2859 132.528C42.4086 132.528 40.7953 132.176 39.4459 131.472C38.0966 130.739 36.9819 129.697 36.1019 128.348C35.2219 126.999 34.5766 125.341 34.1659 123.376C33.7553 121.411 33.5499 119.167 33.5499 116.644C33.5499 114.151 33.7553 111.921 34.1659 109.956C34.5766 107.961 35.2219 106.289 36.1019 104.94C36.9819 103.591 38.0966 102.564 39.4459 101.86C40.7953 101.127 42.4086 100.76 44.2859 100.76C46.1633 100.76 47.7766 101.127 49.1259 101.86C50.4753 102.564 51.5899 103.591 52.4699 104.94C53.3499 106.289 53.9953 107.961 54.4059 109.956C54.8166 111.921 55.0219 114.151 55.0219 116.644C55.0219 119.167 54.8166 121.411 54.4059 123.376C53.9953 125.341 53.3499 126.999 52.4699 128.348C51.5899 129.697 50.4753 130.739 49.1259 131.472C47.7766 132.176 46.1633 132.528 44.2859 132.528ZM44.2859 129.316C45.5179 129.316 46.5593 129.081 47.4099 128.612C48.2606 128.113 48.9646 127.424 49.5219 126.544C50.0793 125.664 50.4753 124.608 50.7099 123.376C50.9739 122.115 51.1059 120.707 51.1059 119.152V114.136C51.1059 112.611 50.9739 111.217 50.7099 109.956C50.4753 108.695 50.0793 107.624 49.5219 106.744C48.9646 105.864 48.2606 105.189 47.4099 104.72C46.5593 104.221 45.5179 103.972 44.2859 103.972C43.0539 103.972 42.0126 104.221 41.1619 104.72C40.3113 105.189 39.6073 105.864 39.0499 106.744C38.4926 107.624 38.0819 108.695 37.8179 109.956C37.5833 111.217 37.4659 112.611 37.4659 114.136V119.152C37.4659 120.707 37.5833 122.115 37.8179 123.376C38.0819 124.608 38.4926 125.664 39.0499 126.544C39.6073 127.424 40.3113 128.113 41.1619 128.612C42.0126 129.081 43.0539 129.316 44.2859 129.316ZM77.4888 116.6V106.876H77.1368L70.6688 122.672L64.2008 106.876H63.8488V116.6V132H60.4608V101.288H65.2128L70.6248 114.84H70.8888L76.3008 101.288H80.8768V132H77.4888V116.6ZM105.016 132L102.42 123.244H91.6396L89.0436 132H85.2156L94.6316 101.288H99.5156L108.932 132H105.016ZM97.2276 105.204H96.8316L92.5196 120.032H101.54L97.2276 105.204ZM113.93 132V129.052H121.586V104.236H113.93V101.288H132.938V104.236H125.282V129.052H132.938V132H113.93ZM143.789 105.996H143.481V132H140.137V101.288H145.373L155.845 127.028H156.153V101.288H159.497V132H154.261L143.789 105.996Z" fill="black"/>
<path d="M276.732 200.264C275.544 200.264 274.517 200.066 273.652 199.67C272.801 199.259 272.075 198.717 271.474 198.042L272.662 197.008C273.205 197.58 273.799 198.02 274.444 198.328C275.089 198.636 275.867 198.79 276.776 198.79C277.656 198.79 278.375 198.636 278.932 198.328C279.504 198.005 279.79 197.507 279.79 196.832C279.79 196.539 279.731 196.297 279.614 196.106C279.511 195.901 279.365 195.739 279.174 195.622C278.983 195.505 278.771 195.417 278.536 195.358C278.301 195.285 278.052 195.226 277.788 195.182L276.006 194.918C275.61 194.859 275.177 194.779 274.708 194.676C274.253 194.573 273.835 194.412 273.454 194.192C273.073 193.957 272.75 193.649 272.486 193.268C272.237 192.887 272.112 192.388 272.112 191.772C272.112 191.2 272.222 190.709 272.442 190.298C272.677 189.873 272.999 189.521 273.41 189.242C273.821 188.949 274.305 188.736 274.862 188.604C275.419 188.457 276.028 188.384 276.688 188.384C277.715 188.384 278.602 188.545 279.35 188.868C280.113 189.191 280.765 189.638 281.308 190.21L280.164 191.288C280.032 191.127 279.863 190.965 279.658 190.804C279.467 190.628 279.225 190.474 278.932 190.342C278.653 190.195 278.323 190.078 277.942 189.99C277.561 189.902 277.121 189.858 276.622 189.858C275.727 189.858 275.038 190.012 274.554 190.32C274.085 190.628 273.85 191.075 273.85 191.662C273.85 191.955 273.901 192.205 274.004 192.41C274.121 192.601 274.275 192.755 274.466 192.872C274.657 192.989 274.869 193.085 275.104 193.158C275.353 193.217 275.603 193.268 275.852 193.312L277.634 193.576C278.045 193.635 278.477 193.715 278.932 193.818C279.387 193.921 279.805 194.089 280.186 194.324C280.567 194.544 280.883 194.845 281.132 195.226C281.396 195.607 281.528 196.106 281.528 196.722C281.528 197.851 281.088 198.724 280.208 199.34C279.343 199.956 278.184 200.264 276.732 200.264ZM290.187 200.264C289.366 200.264 288.633 200.125 287.987 199.846C287.357 199.553 286.821 199.149 286.381 198.636C285.941 198.123 285.604 197.499 285.369 196.766C285.149 196.033 285.039 195.219 285.039 194.324C285.039 193.429 285.157 192.615 285.391 191.882C285.626 191.149 285.963 190.525 286.403 190.012C286.843 189.484 287.379 189.081 288.009 188.802C288.64 188.523 289.359 188.384 290.165 188.384C291.265 188.384 292.16 188.626 292.849 189.11C293.539 189.594 294.045 190.225 294.367 191.002L292.959 191.75C292.754 191.163 292.409 190.709 291.925 190.386C291.456 190.063 290.869 189.902 290.165 189.902C289.652 189.902 289.19 189.99 288.779 190.166C288.383 190.327 288.046 190.562 287.767 190.87C287.489 191.178 287.276 191.545 287.129 191.97C286.997 192.395 286.931 192.857 286.931 193.356V195.292C286.931 195.791 286.997 196.253 287.129 196.678C287.276 197.103 287.489 197.47 287.767 197.778C288.046 198.086 288.391 198.328 288.801 198.504C289.212 198.665 289.681 198.746 290.209 198.746C290.972 198.746 291.603 198.57 292.101 198.218C292.6 197.866 292.996 197.382 293.289 196.766L294.543 197.624C294.206 198.387 293.678 199.017 292.959 199.516C292.255 200.015 291.331 200.264 290.187 200.264ZM307.273 200C306.583 200 306.092 199.824 305.799 199.472C305.505 199.12 305.322 198.68 305.249 198.152H305.139C304.889 198.812 304.486 199.333 303.929 199.714C303.386 200.081 302.653 200.264 301.729 200.264C300.541 200.264 299.595 199.956 298.891 199.34C298.187 198.724 297.835 197.881 297.835 196.81C297.835 195.754 298.216 194.94 298.979 194.368C299.756 193.796 301.003 193.51 302.719 193.51H305.139V192.388C305.139 191.552 304.904 190.929 304.435 190.518C303.965 190.093 303.298 189.88 302.433 189.88C301.67 189.88 301.047 190.034 300.563 190.342C300.079 190.635 299.69 191.039 299.397 191.552L298.209 190.672C298.355 190.379 298.553 190.093 298.803 189.814C299.052 189.535 299.36 189.293 299.727 189.088C300.093 188.868 300.511 188.699 300.981 188.582C301.45 188.45 301.971 188.384 302.543 188.384C303.877 188.384 304.933 188.721 305.711 189.396C306.503 190.071 306.899 191.009 306.899 192.212V198.46H308.483V200H307.273ZM302.037 198.79C302.491 198.79 302.902 198.739 303.269 198.636C303.65 198.519 303.98 198.372 304.259 198.196C304.537 198.005 304.75 197.785 304.897 197.536C305.058 197.272 305.139 196.993 305.139 196.7V194.83H302.719C301.663 194.83 300.893 194.977 300.409 195.27C299.925 195.563 299.683 195.989 299.683 196.546V197.008C299.683 197.595 299.888 198.042 300.299 198.35C300.724 198.643 301.303 198.79 302.037 198.79ZM311.334 198.504H315.294V185.216H311.334V183.72H317.054V198.504H321.014V200H311.334V198.504ZM329.564 200.264C328.742 200.264 328.002 200.125 327.342 199.846C326.696 199.567 326.139 199.171 325.67 198.658C325.215 198.13 324.863 197.507 324.614 196.788C324.364 196.055 324.24 195.241 324.24 194.346C324.24 193.437 324.364 192.615 324.614 191.882C324.878 191.149 325.237 190.525 325.692 190.012C326.146 189.484 326.689 189.081 327.32 188.802C327.965 188.523 328.676 188.384 329.454 188.384C330.216 188.384 330.906 188.523 331.522 188.802C332.152 189.081 332.688 189.469 333.128 189.968C333.568 190.452 333.905 191.031 334.14 191.706C334.374 192.381 334.492 193.121 334.492 193.928V194.764H326.088V195.292C326.088 195.791 326.168 196.253 326.33 196.678C326.491 197.103 326.718 197.47 327.012 197.778C327.32 198.086 327.686 198.328 328.112 198.504C328.552 198.665 329.036 198.746 329.564 198.746C330.326 198.746 330.986 198.57 331.544 198.218C332.101 197.866 332.526 197.382 332.82 196.766L334.118 197.646C333.78 198.409 333.216 199.039 332.424 199.538C331.646 200.022 330.693 200.264 329.564 200.264ZM329.454 189.836C328.97 189.836 328.522 189.924 328.112 190.1C327.701 190.276 327.342 190.518 327.034 190.826C326.74 191.134 326.506 191.501 326.33 191.926C326.168 192.337 326.088 192.791 326.088 193.29V193.444H332.6V193.202C332.6 192.703 332.519 192.249 332.358 191.838C332.211 191.427 331.998 191.075 331.72 190.782C331.456 190.474 331.126 190.239 330.73 190.078C330.348 189.917 329.923 189.836 329.454 189.836ZM337.893 184.644H343.107C344.427 184.644 345.461 185.003 346.209 185.722C346.957 186.441 347.331 187.401 347.331 188.604C347.331 189.528 347.104 190.254 346.649 190.782C346.209 191.31 345.637 191.684 344.933 191.904V191.97C345.798 192.175 346.51 192.564 347.067 193.136C347.624 193.693 347.903 194.507 347.903 195.578C347.903 196.194 347.8 196.773 347.595 197.316C347.39 197.859 347.096 198.328 346.715 198.724C346.348 199.12 345.908 199.435 345.395 199.67C344.896 199.89 344.354 200 343.767 200H337.893V184.644ZM343.217 198.394C344.068 198.394 344.735 198.203 345.219 197.822C345.703 197.441 345.945 196.854 345.945 196.062V195.16C345.945 194.383 345.703 193.803 345.219 193.422C344.735 193.026 344.068 192.828 343.217 192.828H339.741V198.394H343.217ZM342.909 191.31C343.686 191.31 344.295 191.141 344.735 190.804C345.175 190.452 345.395 189.924 345.395 189.22V188.362C345.395 187.658 345.175 187.13 344.735 186.778C344.295 186.426 343.686 186.25 342.909 186.25H339.741V191.31H342.909ZM360.038 200C359.349 200 358.858 199.824 358.564 199.472C358.271 199.12 358.088 198.68 358.014 198.152H357.904C357.655 198.812 357.252 199.333 356.694 199.714C356.152 200.081 355.418 200.264 354.494 200.264C353.306 200.264 352.36 199.956 351.656 199.34C350.952 198.724 350.6 197.881 350.6 196.81C350.6 195.754 350.982 194.94 351.744 194.368C352.522 193.796 353.768 193.51 355.484 193.51H357.904V192.388C357.904 191.552 357.67 190.929 357.2 190.518C356.731 190.093 356.064 189.88 355.198 189.88C354.436 189.88 353.812 190.034 353.328 190.342C352.844 190.635 352.456 191.039 352.162 191.552L350.974 190.672C351.121 190.379 351.319 190.093 351.568 189.814C351.818 189.535 352.126 189.293 352.492 189.088C352.859 188.868 353.277 188.699 353.746 188.582C354.216 188.45 354.736 188.384 355.308 188.384C356.643 188.384 357.699 188.721 358.476 189.396C359.268 190.071 359.664 191.009 359.664 192.212V198.46H361.248V200H360.038ZM354.802 198.79C355.257 198.79 355.668 198.739 356.034 198.636C356.416 198.519 356.746 198.372 357.024 198.196C357.303 198.005 357.516 197.785 357.662 197.536C357.824 197.272 357.904 196.993 357.904 196.7V194.83H355.484C354.428 194.83 353.658 194.977 353.174 195.27C352.69 195.563 352.448 195.989 352.448 196.546V197.008C352.448 197.595 352.654 198.042 353.064 198.35C353.49 198.643 354.069 198.79 354.802 198.79ZM364.496 200V188.648H366.256V190.496H366.344C366.461 190.217 366.608 189.953 366.784 189.704C366.96 189.44 367.173 189.213 367.422 189.022C367.686 188.831 367.994 188.677 368.346 188.56C368.698 188.443 369.109 188.384 369.578 188.384C370.766 188.384 371.719 188.765 372.438 189.528C373.157 190.276 373.516 191.339 373.516 192.718V200H371.756V193.026C371.756 191.985 371.529 191.215 371.074 190.716C370.619 190.203 369.952 189.946 369.072 189.946C368.72 189.946 368.375 189.99 368.038 190.078C367.701 190.166 367.4 190.298 367.136 190.474C366.872 190.65 366.659 190.877 366.498 191.156C366.337 191.435 366.256 191.757 366.256 192.124V200H364.496ZM384.881 198.152H384.793C384.06 199.56 382.894 200.264 381.295 200.264C379.902 200.264 378.809 199.743 378.017 198.702C377.24 197.661 376.851 196.201 376.851 194.324C376.851 192.447 377.24 190.987 378.017 189.946C378.809 188.905 379.902 188.384 381.295 188.384C382.894 188.384 384.06 189.088 384.793 190.496H384.881V183.72H386.641V200H384.881V198.152ZM381.977 198.702C382.373 198.702 382.747 198.651 383.099 198.548C383.451 198.445 383.759 198.299 384.023 198.108C384.287 197.903 384.493 197.661 384.639 197.382C384.801 197.089 384.881 196.751 384.881 196.37V192.278C384.881 191.897 384.801 191.567 384.639 191.288C384.493 190.995 384.287 190.753 384.023 190.562C383.759 190.357 383.451 190.203 383.099 190.1C382.747 189.997 382.373 189.946 381.977 189.946C380.951 189.946 380.151 190.261 379.579 190.892C379.022 191.508 378.743 192.329 378.743 193.356V195.292C378.743 196.319 379.022 197.147 379.579 197.778C380.151 198.394 380.951 198.702 381.977 198.702ZM393.233 193.158C393.233 192.087 393.35 191.061 393.585 190.078C393.834 189.081 394.164 188.157 394.575 187.306C395 186.455 395.491 185.693 396.049 185.018C396.606 184.329 397.193 183.749 397.809 183.28H399.591C398.945 183.764 398.337 184.329 397.765 184.974C397.207 185.605 396.709 186.301 396.269 187.064C395.843 187.812 395.506 188.626 395.257 189.506C395.007 190.371 394.883 191.273 394.883 192.212V194.104C394.883 195.043 395.007 195.952 395.257 196.832C395.506 197.697 395.843 198.511 396.269 199.274C396.709 200.022 397.207 200.711 397.765 201.342C398.337 201.987 398.945 202.552 399.591 203.036H397.809C397.193 202.581 396.606 202.009 396.049 201.32C395.491 200.631 395 199.861 394.575 199.01C394.164 198.159 393.834 197.243 393.585 196.26C393.35 195.263 393.233 194.229 393.233 193.158ZM410.604 193.158C410.604 194.229 410.479 195.263 410.23 196.26C409.995 197.243 409.665 198.159 409.24 199.01C408.829 199.861 408.345 200.631 407.788 201.32C407.231 202.009 406.644 202.581 406.028 203.036H404.246C404.877 202.552 405.478 201.987 406.05 201.342C406.622 200.711 407.121 200.022 407.546 199.274C407.986 198.511 408.331 197.697 408.58 196.832C408.829 195.952 408.954 195.043 408.954 194.104V192.212C408.954 191.273 408.829 190.371 408.58 189.506C408.331 188.626 407.986 187.812 407.546 187.064C407.121 186.301 406.622 185.605 406.05 184.974C405.478 184.329 404.877 183.764 404.246 183.28H406.028C406.644 183.749 407.231 184.329 407.788 185.018C408.345 185.693 408.829 186.455 409.24 187.306C409.665 188.157 409.995 189.081 410.23 190.078C410.479 191.061 410.604 192.087 410.604 193.158Z" fill="black"/>
<path d="M38.7419 314H35.0459V283.288H46.2219C49.0673 283.288 51.2379 284.065 52.7339 285.62C54.2299 287.175 54.9779 289.345 54.9779 292.132C54.9779 294.625 54.3326 296.62 53.0419 298.116C51.7513 299.612 49.8739 300.477 47.4099 300.712L55.2419 314H51.1059L43.6259 300.888H38.7419V314ZM46.1339 297.764C47.6886 297.764 48.8913 297.383 49.7419 296.62C50.6219 295.828 51.0619 294.713 51.0619 293.276V290.988C51.0619 289.551 50.6219 288.451 49.7419 287.688C48.8913 286.896 47.6886 286.5 46.1339 286.5H38.7419V297.764H46.1339ZM78.6328 314L76.0368 305.244H65.2568L62.6608 314H58.8328L68.2488 283.288H73.1328L82.5488 314H78.6328ZM70.8448 287.204H70.4488L66.1368 302.032H75.1568L70.8448 287.204ZM91.0236 287.996H90.7156V314H87.3716V283.288H92.6076L103.08 309.028H103.388V283.288H106.732V314H101.496L91.0236 287.996ZM129.77 309.908H129.55C129.286 310.495 128.978 311.067 128.626 311.624C128.274 312.181 127.82 312.68 127.262 313.12C126.734 313.531 126.089 313.868 125.326 314.132C124.564 314.396 123.654 314.528 122.598 314.528C119.254 314.528 116.761 313.179 115.118 310.48C113.505 307.781 112.698 303.909 112.698 298.864C112.698 293.584 113.593 289.58 115.382 286.852C117.172 284.124 119.929 282.76 123.654 282.76C125.092 282.76 126.338 282.951 127.394 283.332C128.45 283.713 129.345 284.227 130.078 284.872C130.841 285.517 131.472 286.251 131.97 287.072C132.469 287.864 132.88 288.671 133.202 289.492L130.034 290.944C129.77 290.269 129.462 289.639 129.11 289.052C128.788 288.436 128.377 287.908 127.878 287.468C127.409 286.999 126.837 286.632 126.162 286.368C125.488 286.104 124.696 285.972 123.786 285.972C121.322 285.972 119.504 286.896 118.33 288.744C117.186 290.592 116.614 293.056 116.614 296.136V300.888C116.614 302.443 116.732 303.865 116.966 305.156C117.201 306.417 117.582 307.517 118.11 308.456C118.668 309.395 119.372 310.128 120.222 310.656C121.102 311.155 122.173 311.404 123.434 311.404C125.429 311.404 126.984 310.803 128.098 309.6C129.213 308.397 129.77 306.843 129.77 304.936V301.768H123.302V298.82H133.202V314H129.77V309.908ZM140.577 314V283.288H159.497V286.5H144.273V296.84H158.969V300.052H144.273V310.788H159.497V314H140.577Z" fill="black"/>
<rect x="173" y="90" width="39" height="50" fill="#A5D4FF"/>
<rect x="257" y="90" width="39" height="50" fill="#A5D4FF"/>
<rect x="341" y="90" width="40" height="50" fill="#A5D4FF"/>
<rect x="426" y="90" width="39" height="50" fill="#A5D4FF"/>
<path d="M198.486 82L197.188 77.622H191.798L190.5 82H188.586L193.294 66.644H195.736L200.444 82H198.486ZM194.592 68.602H194.394L192.238 76.016H196.748L194.592 68.602Z" fill="black"/>
<path d="M273.84 66.644H279.054C280.374 66.644 281.408 67.0033 282.156 67.722C282.904 68.4407 283.278 69.4013 283.278 70.604C283.278 71.528 283.051 72.254 282.596 72.782C282.156 73.31 281.584 73.684 280.88 73.904V73.97C281.746 74.1753 282.457 74.564 283.014 75.136C283.572 75.6933 283.85 76.5073 283.85 77.578C283.85 78.194 283.748 78.7733 283.542 79.316C283.337 79.8587 283.044 80.328 282.662 80.724C282.296 81.12 281.856 81.4353 281.342 81.67C280.844 81.89 280.301 82 279.714 82H273.84V66.644ZM279.164 80.394C280.015 80.394 280.682 80.2033 281.166 79.822C281.65 79.4407 281.892 78.854 281.892 78.062V77.16C281.892 76.3827 281.65 75.8033 281.166 75.422C280.682 75.026 280.015 74.828 279.164 74.828H275.688V80.394H279.164ZM278.856 73.31C279.634 73.31 280.242 73.1413 280.682 72.804C281.122 72.452 281.342 71.924 281.342 71.22V70.362C281.342 69.658 281.122 69.13 280.682 68.778C280.242 68.426 279.634 68.25 278.856 68.25H275.688V73.31H278.856Z" fill="black"/>
<path d="M366.01 82.264C364.133 82.264 362.732 81.582 361.808 80.218C360.899 78.854 360.444 76.8887 360.444 74.322C360.444 71.7553 360.899 69.79 361.808 68.426C362.732 67.062 364.133 66.38 366.01 66.38C366.714 66.38 367.323 66.4753 367.836 66.666C368.35 66.8567 368.79 67.1133 369.156 67.436C369.523 67.7587 369.831 68.1253 370.08 68.536C370.33 68.932 370.55 69.3353 370.74 69.746L369.156 70.472C369.024 70.1347 368.87 69.8193 368.694 69.526C368.518 69.218 368.306 68.954 368.056 68.734C367.822 68.4993 367.536 68.316 367.198 68.184C366.876 68.052 366.48 67.986 366.01 67.986C364.793 67.986 363.884 68.448 363.282 69.372C362.696 70.296 362.402 71.528 362.402 73.068V75.576C362.402 77.116 362.696 78.348 363.282 79.272C363.884 80.196 364.793 80.658 366.01 80.658C366.48 80.658 366.876 80.592 367.198 80.46C367.536 80.328 367.822 80.152 368.056 79.932C368.306 79.6973 368.518 79.4333 368.694 79.14C368.87 78.832 369.024 78.5093 369.156 78.172L370.74 78.898C370.55 79.3233 370.33 79.734 370.08 80.13C369.831 80.526 369.523 80.8853 369.156 81.208C368.79 81.5307 368.35 81.7873 367.836 81.978C367.323 82.1687 366.714 82.264 366.01 82.264Z" fill="black"/>
<path d="M446.494 66.644H450.784C452.662 66.644 454.062 67.2893 454.986 68.58C455.91 69.8707 456.372 71.7847 456.372 74.322C456.372 76.8593 455.91 78.7733 454.986 80.064C454.062 81.3547 452.662 82 450.784 82H446.494V66.644ZM450.696 80.394C451.928 80.394 452.852 79.9687 453.468 79.118C454.099 78.2673 454.414 77.0647 454.414 75.51V73.134C454.414 71.5793 454.099 70.3767 453.468 69.526C452.852 68.6753 451.928 68.25 450.696 68.25H448.342V80.394H450.696Z" fill="black"/>
<rect x="173" y="268" width="341" height="50" fill="#FC4773"/>
<path d="M181.503 286.192C180.82 286.192 180.234 286.064 179.743 285.808C179.252 285.541 178.847 285.163 178.527 284.672C178.207 284.181 177.972 283.579 177.823 282.864C177.674 282.149 177.599 281.333 177.599 280.416C177.599 279.509 177.674 278.699 177.823 277.984C177.972 277.259 178.207 276.651 178.527 276.16C178.847 275.669 179.252 275.296 179.743 275.04C180.234 274.773 180.82 274.64 181.503 274.64C182.186 274.64 182.772 274.773 183.263 275.04C183.754 275.296 184.159 275.669 184.479 276.16C184.799 276.651 185.034 277.259 185.183 277.984C185.332 278.699 185.407 279.509 185.407 280.416C185.407 281.333 185.332 282.149 185.183 282.864C185.034 283.579 184.799 284.181 184.479 284.672C184.159 285.163 183.754 285.541 183.263 285.808C182.772 286.064 182.186 286.192 181.503 286.192ZM181.503 285.024C181.951 285.024 182.335 284.939 182.655 284.768C182.975 284.587 183.231 284.336 183.423 284.016C183.626 283.696 183.775 283.312 183.871 282.864C183.967 282.405 184.015 281.893 184.015 281.328V279.504C184.015 278.949 183.967 278.443 183.871 277.984C183.775 277.525 183.626 277.136 183.423 276.816C183.231 276.496 182.975 276.251 182.655 276.08C182.335 275.899 181.951 275.808 181.503 275.808C181.055 275.808 180.671 275.899 180.351 276.08C180.031 276.251 179.77 276.496 179.567 276.816C179.375 277.136 179.231 277.525 179.135 277.984C179.039 278.443 178.991 278.949 178.991 279.504V281.328C178.991 281.893 179.039 282.405 179.135 282.864C179.231 283.312 179.375 283.696 179.567 284.016C179.77 284.336 180.031 284.587 180.351 284.768C180.671 284.939 181.055 285.024 181.503 285.024ZM181.503 281.36C181.13 281.36 180.868 281.285 180.719 281.136C180.58 280.987 180.511 280.805 180.511 280.592V280.24C180.511 280.027 180.58 279.845 180.719 279.696C180.868 279.547 181.13 279.472 181.503 279.472C181.876 279.472 182.132 279.547 182.271 279.696C182.42 279.845 182.495 280.027 182.495 280.24V280.592C182.495 280.805 182.42 280.987 182.271 281.136C182.132 281.285 181.876 281.36 181.503 281.36Z" fill="black"/>
<path d="M265.469 286V284.832H268.669V275.824H268.557L265.741 278.448L264.957 277.6L267.917 274.832H270.013V284.832H272.957V286H265.469ZM278.503 286.192C277.82 286.192 277.234 286.064 276.743 285.808C276.252 285.541 275.847 285.163 275.527 284.672C275.207 284.181 274.972 283.579 274.823 282.864C274.674 282.149 274.599 281.333 274.599 280.416C274.599 279.509 274.674 278.699 274.823 277.984C274.972 277.259 275.207 276.651 275.527 276.16C275.847 275.669 276.252 275.296 276.743 275.04C277.234 274.773 277.82 274.64 278.503 274.64C279.186 274.64 279.772 274.773 280.263 275.04C280.754 275.296 281.159 275.669 281.479 276.16C281.799 276.651 282.034 277.259 282.183 277.984C282.332 278.699 282.407 279.509 282.407 280.416C282.407 281.333 282.332 282.149 282.183 282.864C282.034 283.579 281.799 284.181 281.479 284.672C281.159 285.163 280.754 285.541 280.263 285.808C279.772 286.064 279.186 286.192 278.503 286.192ZM278.503 285.024C278.951 285.024 279.335 284.939 279.655 284.768C279.975 284.587 280.231 284.336 280.423 284.016C280.626 283.696 280.775 283.312 280.871 282.864C280.967 282.405 281.015 281.893 281.015 281.328V279.504C281.015 278.949 280.967 278.443 280.871 277.984C280.775 277.525 280.626 277.136 280.423 276.816C280.231 276.496 279.975 276.251 279.655 276.08C279.335 275.899 278.951 275.808 278.503 275.808C278.055 275.808 277.671 275.899 277.351 276.08C277.031 276.251 276.77 276.496 276.567 276.816C276.375 277.136 276.231 277.525 276.135 277.984C276.039 278.443 275.991 278.949 275.991 279.504V281.328C275.991 281.893 276.039 282.405 276.135 282.864C276.231 283.312 276.375 283.696 276.567 284.016C276.77 284.336 277.031 284.587 277.351 284.768C277.671 284.939 278.055 285.024 278.503 285.024ZM278.503 281.36C278.13 281.36 277.868 281.285 277.719 281.136C277.58 280.987 277.511 280.805 277.511 280.592V280.24C277.511 280.027 277.58 279.845 277.719 279.696C277.868 279.547 278.13 279.472 278.503 279.472C278.876 279.472 279.132 279.547 279.271 279.696C279.42 279.845 279.495 280.027 279.495 280.24V280.592C279.495 280.805 279.42 280.987 279.271 281.136C279.132 281.285 278.876 281.36 278.503 281.36ZM288.097 286.192C287.414 286.192 286.828 286.064 286.337 285.808C285.846 285.541 285.441 285.163 285.121 284.672C284.801 284.181 284.566 283.579 284.417 282.864C284.268 282.149 284.193 281.333 284.193 280.416C284.193 279.509 284.268 278.699 284.417 277.984C284.566 277.259 284.801 276.651 285.121 276.16C285.441 275.669 285.846 275.296 286.337 275.04C286.828 274.773 287.414 274.64 288.097 274.64C288.78 274.64 289.366 274.773 289.857 275.04C290.348 275.296 290.753 275.669 291.073 276.16C291.393 276.651 291.628 277.259 291.777 277.984C291.926 278.699 292.001 279.509 292.001 280.416C292.001 281.333 291.926 282.149 291.777 282.864C291.628 283.579 291.393 284.181 291.073 284.672C290.753 285.163 290.348 285.541 289.857 285.808C289.366 286.064 288.78 286.192 288.097 286.192ZM288.097 285.024C288.545 285.024 288.929 284.939 289.249 284.768C289.569 284.587 289.825 284.336 290.017 284.016C290.22 283.696 290.369 283.312 290.465 282.864C290.561 282.405 290.609 281.893 290.609 281.328V279.504C290.609 278.949 290.561 278.443 290.465 277.984C290.369 277.525 290.22 277.136 290.017 276.816C289.825 276.496 289.569 276.251 289.249 276.08C288.929 275.899 288.545 275.808 288.097 275.808C287.649 275.808 287.265 275.899 286.945 276.08C286.625 276.251 286.364 276.496 286.161 276.816C285.969 277.136 285.825 277.525 285.729 277.984C285.633 278.443 285.585 278.949 285.585 279.504V281.328C285.585 281.893 285.633 282.405 285.729 282.864C285.825 283.312 285.969 283.696 286.161 284.016C286.364 284.336 286.625 284.587 286.945 284.768C287.265 284.939 287.649 285.024 288.097 285.024ZM288.097 281.36C287.724 281.36 287.462 281.285 287.313 281.136C287.174 280.987 287.105 280.805 287.105 280.592V280.24C287.105 280.027 287.174 279.845 287.313 279.696C287.462 279.547 287.724 279.472 288.097 279.472C288.47 279.472 288.726 279.547 288.865 279.696C289.014 279.845 289.089 280.027 289.089 280.24V280.592C289.089 280.805 289.014 280.987 288.865 281.136C288.726 281.285 288.47 281.36 288.097 281.36Z" fill="black"/>
<path d="M362.701 286H355.245V284.624L358.973 281.264C359.517 280.773 359.965 280.272 360.317 279.76C360.669 279.237 360.845 278.688 360.845 278.112V277.92C360.845 277.248 360.669 276.731 360.317 276.368C359.965 275.995 359.443 275.808 358.749 275.808C358.067 275.808 357.539 275.984 357.165 276.336C356.803 276.677 356.531 277.136 356.349 277.712L355.149 277.264C355.256 276.933 355.4 276.613 355.581 276.304C355.773 275.984 356.013 275.701 356.301 275.456C356.589 275.211 356.936 275.013 357.341 274.864C357.757 274.715 358.237 274.64 358.781 274.64C359.336 274.64 359.827 274.72 360.253 274.88C360.691 275.04 361.053 275.264 361.341 275.552C361.64 275.84 361.864 276.181 362.013 276.576C362.173 276.971 362.253 277.403 362.253 277.872C362.253 278.299 362.189 278.699 362.061 279.072C361.944 279.445 361.773 279.803 361.549 280.144C361.336 280.485 361.075 280.821 360.765 281.152C360.467 281.472 360.131 281.792 359.757 282.112L356.637 284.832H362.701V286ZM368.503 286.192C367.82 286.192 367.234 286.064 366.743 285.808C366.252 285.541 365.847 285.163 365.527 284.672C365.207 284.181 364.972 283.579 364.823 282.864C364.674 282.149 364.599 281.333 364.599 280.416C364.599 279.509 364.674 278.699 364.823 277.984C364.972 277.259 365.207 276.651 365.527 276.16C365.847 275.669 366.252 275.296 366.743 275.04C367.234 274.773 367.82 274.64 368.503 274.64C369.186 274.64 369.772 274.773 370.263 275.04C370.754 275.296 371.159 275.669 371.479 276.16C371.799 276.651 372.034 277.259 372.183 277.984C372.332 278.699 372.407 279.509 372.407 280.416C372.407 281.333 372.332 282.149 372.183 282.864C372.034 283.579 371.799 284.181 371.479 284.672C371.159 285.163 370.754 285.541 370.263 285.808C369.772 286.064 369.186 286.192 368.503 286.192ZM368.503 285.024C368.951 285.024 369.335 284.939 369.655 284.768C369.975 284.587 370.231 284.336 370.423 284.016C370.626 283.696 370.775 283.312 370.871 282.864C370.967 282.405 371.015 281.893 371.015 281.328V279.504C371.015 278.949 370.967 278.443 370.871 277.984C370.775 277.525 370.626 277.136 370.423 276.816C370.231 276.496 369.975 276.251 369.655 276.08C369.335 275.899 368.951 275.808 368.503 275.808C368.055 275.808 367.671 275.899 367.351 276.08C367.031 276.251 366.77 276.496 366.567 276.816C366.375 277.136 366.231 277.525 366.135 277.984C366.039 278.443 365.991 278.949 365.991 279.504V281.328C365.991 281.893 366.039 282.405 366.135 282.864C366.231 283.312 366.375 283.696 366.567 284.016C366.77 284.336 367.031 284.587 367.351 284.768C367.671 284.939 368.055 285.024 368.503 285.024ZM368.503 281.36C368.13 281.36 367.868 281.285 367.719 281.136C367.58 280.987 367.511 280.805 367.511 280.592V280.24C367.511 280.027 367.58 279.845 367.719 279.696C367.868 279.547 368.13 279.472 368.503 279.472C368.876 279.472 369.132 279.547 369.271 279.696C369.42 279.845 369.495 280.027 369.495 280.24V280.592C369.495 280.805 369.42 280.987 369.271 281.136C369.132 281.285 368.876 281.36 368.503 281.36ZM378.097 286.192C377.414 286.192 376.828 286.064 376.337 285.808C375.846 285.541 375.441 285.163 375.121 284.672C374.801 284.181 374.566 283.579 374.417 282.864C374.268 282.149 374.193 281.333 374.193 280.416C374.193 279.509 374.268 278.699 374.417 277.984C374.566 277.259 374.801 276.651 375.121 276.16C375.441 275.669 375.846 275.296 376.337 275.04C376.828 274.773 377.414 274.64 378.097 274.64C378.78 274.64 379.366 274.773 379.857 275.04C380.348 275.296 380.753 275.669 381.073 276.16C381.393 276.651 381.628 277.259 381.777 277.984C381.926 278.699 382.001 279.509 382.001 280.416C382.001 281.333 381.926 282.149 381.777 282.864C381.628 283.579 381.393 284.181 381.073 284.672C380.753 285.163 380.348 285.541 379.857 285.808C379.366 286.064 378.78 286.192 378.097 286.192ZM378.097 285.024C378.545 285.024 378.929 284.939 379.249 284.768C379.569 284.587 379.825 284.336 380.017 284.016C380.22 283.696 380.369 283.312 380.465 282.864C380.561 282.405 380.609 281.893 380.609 281.328V279.504C380.609 278.949 380.561 278.443 380.465 277.984C380.369 277.525 380.22 277.136 380.017 276.816C379.825 276.496 379.569 276.251 379.249 276.08C378.929 275.899 378.545 275.808 378.097 275.808C377.649 275.808 377.265 275.899 376.945 276.08C376.625 276.251 376.364 276.496 376.161 276.816C375.969 277.136 375.825 277.525 375.729 277.984C375.633 278.443 375.585 278.949 375.585 279.504V281.328C375.585 281.893 375.633 282.405 375.729 282.864C375.825 283.312 375.969 283.696 376.161 284.016C376.364 284.336 376.625 284.587 376.945 284.768C377.265 284.939 377.649 285.024 378.097 285.024ZM378.097 281.36C377.724 281.36 377.462 281.285 377.313 281.136C377.174 280.987 377.105 280.805 377.105 280.592V280.24C377.105 280.027 377.174 279.845 377.313 279.696C377.462 279.547 377.724 279.472 378.097 279.472C378.47 279.472 378.726 279.547 378.865 279.696C379.014 279.845 379.089 280.027 379.089 280.24V280.592C379.089 280.805 379.014 280.987 378.865 281.136C378.726 281.285 378.47 281.36 378.097 281.36Z" fill="black"/>
<path d="M442.429 279.568C443.208 279.568 443.789 279.397 444.173 279.056C444.568 278.704 444.765 278.256 444.765 277.712V277.6C444.765 277.003 444.573 276.555 444.189 276.256C443.816 275.957 443.325 275.808 442.717 275.808C442.12 275.808 441.635 275.941 441.261 276.208C440.899 276.464 440.6 276.805 440.365 277.232L439.357 276.464C439.496 276.24 439.667 276.021 439.869 275.808C440.072 275.584 440.307 275.387 440.573 275.216C440.851 275.045 441.165 274.907 441.517 274.8C441.88 274.693 442.291 274.64 442.749 274.64C443.229 274.64 443.677 274.704 444.093 274.832C444.509 274.949 444.872 275.131 445.181 275.376C445.491 275.611 445.731 275.904 445.901 276.256C446.083 276.608 446.173 277.008 446.173 277.456C446.173 277.819 446.115 278.144 445.997 278.432C445.891 278.72 445.736 278.971 445.533 279.184C445.341 279.397 445.112 279.579 444.845 279.728C444.579 279.877 444.296 279.989 443.997 280.064V280.128C444.307 280.192 444.605 280.299 444.893 280.448C445.181 280.587 445.437 280.773 445.661 281.008C445.885 281.232 446.061 281.509 446.189 281.84C446.328 282.16 446.397 282.528 446.397 282.944C446.397 283.424 446.301 283.867 446.109 284.272C445.928 284.667 445.667 285.008 445.325 285.296C444.995 285.573 444.589 285.792 444.109 285.952C443.64 286.112 443.117 286.192 442.541 286.192C442.051 286.192 441.613 286.139 441.229 286.032C440.856 285.925 440.52 285.781 440.221 285.6C439.933 285.419 439.677 285.216 439.453 284.992C439.24 284.768 439.048 284.533 438.877 284.288L439.885 283.52C440.035 283.744 440.189 283.947 440.349 284.128C440.509 284.309 440.691 284.469 440.893 284.608C441.107 284.736 441.347 284.837 441.613 284.912C441.88 284.987 442.189 285.024 442.541 285.024C443.331 285.024 443.933 284.843 444.349 284.48C444.776 284.117 444.989 283.6 444.989 282.928V282.8C444.989 282.139 444.781 281.627 444.365 281.264C443.96 280.901 443.347 280.72 442.525 280.72H441.197V279.568H442.429ZM452.503 286.192C451.82 286.192 451.234 286.064 450.743 285.808C450.252 285.541 449.847 285.163 449.527 284.672C449.207 284.181 448.972 283.579 448.823 282.864C448.674 282.149 448.599 281.333 448.599 280.416C448.599 279.509 448.674 278.699 448.823 277.984C448.972 277.259 449.207 276.651 449.527 276.16C449.847 275.669 450.252 275.296 450.743 275.04C451.234 274.773 451.82 274.64 452.503 274.64C453.186 274.64 453.772 274.773 454.263 275.04C454.754 275.296 455.159 275.669 455.479 276.16C455.799 276.651 456.034 277.259 456.183 277.984C456.332 278.699 456.407 279.509 456.407 280.416C456.407 281.333 456.332 282.149 456.183 282.864C456.034 283.579 455.799 284.181 455.479 284.672C455.159 285.163 454.754 285.541 454.263 285.808C453.772 286.064 453.186 286.192 452.503 286.192ZM452.503 285.024C452.951 285.024 453.335 284.939 453.655 284.768C453.975 284.587 454.231 284.336 454.423 284.016C454.626 283.696 454.775 283.312 454.871 282.864C454.967 282.405 455.015 281.893 455.015 281.328V279.504C455.015 278.949 454.967 278.443 454.871 277.984C454.775 277.525 454.626 277.136 454.423 276.816C454.231 276.496 453.975 276.251 453.655 276.08C453.335 275.899 452.951 275.808 452.503 275.808C452.055 275.808 451.671 275.899 451.351 276.08C451.031 276.251 450.77 276.496 450.567 276.816C450.375 277.136 450.231 277.525 450.135 277.984C450.039 278.443 449.991 278.949 449.991 279.504V281.328C449.991 281.893 450.039 282.405 450.135 282.864C450.231 283.312 450.375 283.696 450.567 284.016C450.77 284.336 451.031 284.587 451.351 284.768C451.671 284.939 452.055 285.024 452.503 285.024ZM452.503 281.36C452.13 281.36 451.868 281.285 451.719 281.136C451.58 280.987 451.511 280.805 451.511 280.592V280.24C451.511 280.027 451.58 279.845 451.719 279.696C451.868 279.547 452.13 279.472 452.503 279.472C452.876 279.472 453.132 279.547 453.271 279.696C453.42 279.845 453.495 280.027 453.495 280.24V280.592C453.495 280.805 453.42 280.987 453.271 281.136C453.132 281.285 452.876 281.36 452.503 281.36ZM462.097 286.192C461.414 286.192 460.828 286.064 460.337 285.808C459.846 285.541 459.441 285.163 459.121 284.672C458.801 284.181 458.566 283.579 458.417 282.864C458.268 282.149 458.193 281.333 458.193 280.416C458.193 279.509 458.268 278.699 458.417 277.984C458.566 277.259 458.801 276.651 459.121 276.16C459.441 275.669 459.846 275.296 460.337 275.04C460.828 274.773 461.414 274.64 462.097 274.64C462.78 274.64 463.366 274.773 463.857 275.04C464.348 275.296 464.753 275.669 465.073 276.16C465.393 276.651 465.628 277.259 465.777 277.984C465.926 278.699 466.001 279.509 466.001 280.416C466.001 281.333 465.926 282.149 465.777 282.864C465.628 283.579 465.393 284.181 465.073 284.672C464.753 285.163 464.348 285.541 463.857 285.808C463.366 286.064 462.78 286.192 462.097 286.192ZM462.097 285.024C462.545 285.024 462.929 284.939 463.249 284.768C463.569 284.587 463.825 284.336 464.017 284.016C464.22 283.696 464.369 283.312 464.465 282.864C464.561 282.405 464.609 281.893 464.609 281.328V279.504C464.609 278.949 464.561 278.443 464.465 277.984C464.369 277.525 464.22 277.136 464.017 276.816C463.825 276.496 463.569 276.251 463.249 276.08C462.929 275.899 462.545 275.808 462.097 275.808C461.649 275.808 461.265 275.899 460.945 276.08C460.625 276.251 460.364 276.496 460.161 276.816C459.969 277.136 459.825 277.525 459.729 277.984C459.633 278.443 459.585 278.949 459.585 279.504V281.328C459.585 281.893 459.633 282.405 459.729 282.864C459.825 283.312 459.969 283.696 460.161 284.016C460.364 284.336 460.625 284.587 460.945 284.768C461.265 284.939 461.649 285.024 462.097 285.024ZM462.097 281.36C461.724 281.36 461.462 281.285 461.313 281.136C461.174 280.987 461.105 280.805 461.105 280.592V280.24C461.105 280.027 461.174 279.845 461.313 279.696C461.462 279.547 461.724 279.472 462.097 279.472C462.47 279.472 462.726 279.547 462.865 279.696C463.014 279.845 463.089 280.027 463.089 280.24V280.592C463.089 280.805 463.014 280.987 462.865 281.136C462.726 281.285 462.47 281.36 462.097 281.36Z" fill="black"/>
<path d="M252.598 29.644H257.988C259.499 29.644 260.65 30.0107 261.442 30.744C262.249 31.4773 262.652 32.4747 262.652 33.736C262.652 34.616 262.432 35.32 261.992 35.848C261.567 36.3613 260.951 36.7353 260.144 36.97V37.102C261.098 37.3367 261.831 37.7473 262.344 38.334C262.872 38.9207 263.136 39.7347 263.136 40.776C263.136 42.0667 262.726 43.0933 261.904 43.856C261.098 44.6187 259.961 45 258.494 45H252.598V29.644ZM257.482 42.69C258.274 42.69 258.854 42.558 259.22 42.294C259.587 42.03 259.77 41.546 259.77 40.842V40.204C259.77 39.5 259.587 39.016 259.22 38.752C258.854 38.488 258.274 38.356 257.482 38.356H255.81V42.69H257.482ZM257.064 36.156C257.842 36.156 258.406 36.0313 258.758 35.782C259.11 35.518 259.286 35.0487 259.286 34.374V33.714C259.286 33.0393 259.11 32.5773 258.758 32.328C258.406 32.0787 257.842 31.954 257.064 31.954H255.81V36.156H257.064Z" fill="black"/>
<path d="M236.494 6.66C236.074 6.66 235.78 6.576 235.612 6.408C235.444 6.228 235.36 6.006 235.36 5.742V5.454C235.36 5.19 235.444 4.974 235.612 4.806C235.78 4.626 236.074 4.536 236.494 4.536C236.914 4.536 237.208 4.626 237.376 4.806C237.544 4.974 237.628 5.19 237.628 5.454V5.742C237.628 6.006 237.544 6.228 237.376 6.408C237.208 6.576 236.914 6.66 236.494 6.66ZM232.426 16.776H235.774V9.936H232.426V8.712H237.214V16.776H240.346V18H232.426V16.776ZM243.075 18V8.712H244.515V10.224H244.587C244.683 9.996 244.803 9.78 244.947 9.576C245.091 9.36 245.265 9.174 245.469 9.018C245.685 8.862 245.937 8.736 246.225 8.64C246.513 8.544 246.849 8.496 247.233 8.496C248.205 8.496 248.985 8.808 249.573 9.432C250.161 10.044 250.455 10.914 250.455 12.042V18H249.015V12.294C249.015 11.442 248.829 10.812 248.457 10.404C248.085 9.984 247.539 9.774 246.819 9.774C246.531 9.774 246.249 9.81 245.973 9.882C245.697 9.954 245.451 10.062 245.235 10.206C245.019 10.35 244.845 10.536 244.713 10.764C244.581 10.992 244.515 11.256 244.515 11.556V18H243.075ZM253.814 8.712H255.254V10.224H255.326C255.926 9.072 256.88 8.496 258.188 8.496C259.328 8.496 260.216 8.922 260.852 9.774C261.5 10.626 261.824 11.82 261.824 13.356C261.824 14.892 261.5 16.086 260.852 16.938C260.216 17.79 259.328 18.216 258.188 18.216C256.88 18.216 255.926 17.64 255.326 16.488H255.254V21.6H253.814V8.712ZM257.63 16.938C258.47 16.938 259.118 16.686 259.574 16.182C260.042 15.666 260.276 14.988 260.276 14.148V12.564C260.276 11.724 260.042 11.052 259.574 10.548C259.118 10.032 258.47 9.774 257.63 9.774C257.306 9.774 257 9.816 256.712 9.9C256.424 9.984 256.172 10.11 255.956 10.278C255.74 10.434 255.566 10.632 255.434 10.872C255.314 11.1 255.254 11.37 255.254 11.682V15.03C255.254 15.342 255.314 15.618 255.434 15.858C255.566 16.086 255.74 16.284 255.956 16.452C256.172 16.608 256.424 16.728 256.712 16.812C257 16.896 257.306 16.938 257.63 16.938ZM270.492 16.488H270.42C270.324 16.716 270.204 16.938 270.06 17.154C269.916 17.358 269.736 17.538 269.52 17.694C269.316 17.85 269.07 17.976 268.782 18.072C268.494 18.168 268.158 18.216 267.774 18.216C266.802 18.216 266.022 17.91 265.434 17.298C264.846 16.674 264.552 15.798 264.552 14.67V8.712H265.992V14.418C265.992 15.27 266.178 15.906 266.55 16.326C266.922 16.734 267.468 16.938 268.188 16.938C268.476 16.938 268.758 16.902 269.034 16.83C269.31 16.758 269.556 16.65 269.772 16.506C269.988 16.362 270.162 16.182 270.294 15.966C270.426 15.738 270.492 15.468 270.492 15.156V8.712H271.932V18H270.492V16.488ZM279.539 18C278.831 18 278.309 17.802 277.973 17.406C277.649 17.01 277.487 16.5 277.487 15.876V9.936H274.391V8.712H276.695C277.007 8.712 277.223 8.652 277.343 8.532C277.475 8.4 277.541 8.178 277.541 7.866V5.436H278.927V8.712H283.157V9.936H278.927V16.776H283.157V18H279.539Z" fill="black"/>
<path d="M257.293 352.707C257.683 353.098 258.317 353.098 258.707 352.707L265.071 346.343C265.462 345.953 265.462 345.319 265.071 344.929C264.681 344.538 264.047 344.538 263.657 344.929L258 350.586L252.343 344.929C251.953 344.538 251.319 344.538 250.929 344.929C250.538 345.319 250.538 345.953 250.929 346.343L257.293 352.707ZM257 318V352H259V318H257Z" fill="#B1B1B1"/>
<path d="M239.781 406V403.338H243.917V393.042H243.719L240.595 397.134L238.483 395.484L242.157 390.644H247.217V403.338H250.473V406H239.781ZM257.504 406.264C255.451 406.264 253.933 405.567 252.95 404.174C251.982 402.781 251.498 400.83 251.498 398.322C251.498 395.814 251.982 393.863 252.95 392.47C253.933 391.077 255.451 390.38 257.504 390.38C259.558 390.38 261.068 391.077 262.036 392.47C263.019 393.863 263.51 395.814 263.51 398.322C263.51 400.83 263.019 402.781 262.036 404.174C261.068 405.567 259.558 406.264 257.504 406.264ZM257.504 403.668C258.487 403.668 259.169 403.323 259.55 402.634C259.946 401.945 260.144 400.984 260.144 399.752V396.892C260.144 395.66 259.946 394.699 259.55 394.01C259.169 393.321 258.487 392.976 257.504 392.976C256.522 392.976 255.832 393.321 255.436 394.01C255.055 394.699 254.864 395.66 254.864 396.892V399.752C254.864 400.984 255.055 401.945 255.436 402.634C255.832 403.323 256.522 403.668 257.504 403.668ZM257.504 399.62C256.991 399.62 256.632 399.517 256.426 399.312C256.236 399.107 256.14 398.857 256.14 398.564V398.08C256.14 397.787 256.236 397.537 256.426 397.332C256.632 397.127 256.991 397.024 257.504 397.024C258.018 397.024 258.37 397.127 258.56 397.332C258.766 397.537 258.868 397.787 258.868 398.08V398.564C258.868 398.857 258.766 399.107 258.56 399.312C258.37 399.517 258.018 399.62 257.504 399.62ZM270.696 406.264C268.642 406.264 267.124 405.567 266.142 404.174C265.174 402.781 264.69 400.83 264.69 398.322C264.69 395.814 265.174 393.863 266.142 392.47C267.124 391.077 268.642 390.38 270.696 390.38C272.749 390.38 274.26 391.077 275.228 392.47C276.21 393.863 276.702 395.814 276.702 398.322C276.702 400.83 276.21 402.781 275.228 404.174C274.26 405.567 272.749 406.264 270.696 406.264ZM270.696 403.668C271.678 403.668 272.36 403.323 272.742 402.634C273.138 401.945 273.336 400.984 273.336 399.752V396.892C273.336 395.66 273.138 394.699 272.742 394.01C272.36 393.321 271.678 392.976 270.696 392.976C269.713 392.976 269.024 393.321 268.628 394.01C268.246 394.699 268.056 395.66 268.056 396.892V399.752C268.056 400.984 268.246 401.945 268.628 402.634C269.024 403.323 269.713 403.668 270.696 403.668ZM270.696 399.62C270.182 399.62 269.823 399.517 269.618 399.312C269.427 399.107 269.332 398.857 269.332 398.564V398.08C269.332 397.787 269.427 397.537 269.618 397.332C269.823 397.127 270.182 397.024 270.696 397.024C271.209 397.024 271.561 397.127 271.752 397.332C271.957 397.537 272.06 397.787 272.06 398.08V398.564C272.06 398.857 271.957 399.107 271.752 399.312C271.561 399.517 271.209 399.62 270.696 399.62Z" fill="black"/>
<path d="M230.521 379.216C229.873 379.216 229.285 379.102 228.757 378.874C228.241 378.646 227.797 378.322 227.425 377.902C227.065 377.47 226.789 376.96 226.597 376.372C226.405 375.772 226.309 375.1 226.309 374.356C226.309 373.624 226.405 372.958 226.597 372.358C226.789 371.758 227.065 371.248 227.425 370.828C227.797 370.396 228.241 370.066 228.757 369.838C229.285 369.61 229.873 369.496 230.521 369.496C231.169 369.496 231.751 369.61 232.267 369.838C232.795 370.066 233.239 370.396 233.599 370.828C233.971 371.248 234.253 371.758 234.445 372.358C234.637 372.958 234.733 373.624 234.733 374.356C234.733 375.1 234.637 375.772 234.445 376.372C234.253 376.96 233.971 377.47 233.599 377.902C233.239 378.322 232.795 378.646 232.267 378.874C231.751 379.102 231.169 379.216 230.521 379.216ZM230.521 377.974C231.325 377.974 231.973 377.734 232.465 377.254C232.957 376.774 233.203 376.03 233.203 375.022V373.69C233.203 372.682 232.957 371.938 232.465 371.458C231.973 370.978 231.325 370.738 230.521 370.738C229.717 370.738 229.069 370.978 228.577 371.458C228.085 371.938 227.839 372.682 227.839 373.69V375.022C227.839 376.03 228.085 376.774 228.577 377.254C229.069 377.734 229.717 377.974 230.521 377.974ZM243.51 377.488H243.438C243.342 377.716 243.222 377.938 243.078 378.154C242.934 378.358 242.754 378.538 242.538 378.694C242.334 378.85 242.088 378.976 241.8 379.072C241.512 379.168 241.176 379.216 240.792 379.216C239.82 379.216 239.04 378.91 238.452 378.298C237.864 377.674 237.57 376.798 237.57 375.67V369.712H239.01V375.418C239.01 376.27 239.196 376.906 239.568 377.326C239.94 377.734 240.486 377.938 241.206 377.938C241.494 377.938 241.776 377.902 242.052 377.83C242.328 377.758 242.574 377.65 242.79 377.506C243.006 377.362 243.18 377.182 243.312 376.966C243.444 376.738 243.51 376.468 243.51 376.156V369.712H244.95V379H243.51V377.488ZM252.557 379C251.849 379 251.327 378.802 250.991 378.406C250.667 378.01 250.505 377.5 250.505 376.876V370.936H247.409V369.712H249.713C250.025 369.712 250.241 369.652 250.361 369.532C250.493 369.4 250.559 369.178 250.559 368.866V366.436H251.945V369.712H256.175V370.936H251.945V377.776H256.175V379H252.557ZM259.21 369.712H260.65V371.224H260.722C261.322 370.072 262.276 369.496 263.584 369.496C264.724 369.496 265.612 369.922 266.248 370.774C266.896 371.626 267.22 372.82 267.22 374.356C267.22 375.892 266.896 377.086 266.248 377.938C265.612 378.79 264.724 379.216 263.584 379.216C262.276 379.216 261.322 378.64 260.722 377.488H260.65V382.6H259.21V369.712ZM263.026 377.938C263.866 377.938 264.514 377.686 264.97 377.182C265.438 376.666 265.672 375.988 265.672 375.148V373.564C265.672 372.724 265.438 372.052 264.97 371.548C264.514 371.032 263.866 370.774 263.026 370.774C262.702 370.774 262.396 370.816 262.108 370.9C261.82 370.984 261.568 371.11 261.352 371.278C261.136 371.434 260.962 371.632 260.83 371.872C260.71 372.1 260.65 372.37 260.65 372.682V376.03C260.65 376.342 260.71 376.618 260.83 376.858C260.962 377.086 261.136 377.284 261.352 377.452C261.568 377.608 261.82 377.728 262.108 377.812C262.396 377.896 262.702 377.938 263.026 377.938ZM275.889 377.488H275.817C275.721 377.716 275.601 377.938 275.457 378.154C275.313 378.358 275.133 378.538 274.917 378.694C274.713 378.85 274.467 378.976 274.179 379.072C273.891 379.168 273.555 379.216 273.171 379.216C272.199 379.216 271.419 378.91 270.831 378.298C270.243 377.674 269.949 376.798 269.949 375.67V369.712H271.389V375.418C271.389 376.27 271.575 376.906 271.947 377.326C272.319 377.734 272.865 377.938 273.585 377.938C273.873 377.938 274.155 377.902 274.431 377.83C274.707 377.758 274.953 377.65 275.169 377.506C275.385 377.362 275.559 377.182 275.691 376.966C275.823 376.738 275.889 376.468 275.889 376.156V369.712H277.329V379H275.889V377.488ZM284.936 379C284.228 379 283.706 378.802 283.37 378.406C283.046 378.01 282.884 377.5 282.884 376.876V370.936H279.788V369.712H282.092C282.404 369.712 282.62 369.652 282.74 369.532C282.872 369.4 282.938 369.178 282.938 368.866V366.436H284.324V369.712H288.554V370.936H284.324V377.776H288.554V379H284.936Z" fill="black"/>
<line x1="258.5" y1="268" x2="258.5" y2="318" stroke="black"/>
<line x1="345.5" y1="268" x2="345.5" y2="318" stroke="black"/>
<line x1="432.5" y1="268" x2="432.5" y2="318" stroke="black"/>
</svg>
