<svg width="540" height="424" viewBox="0 0 540 424" fill="none" xmlns="http://www.w3.org/2000/svg">
<path d="M343.293 115.707C343.683 116.098 344.317 116.098 344.707 115.707L351.071 109.343C351.462 108.953 351.462 108.319 351.071 107.929C350.681 107.538 350.047 107.538 349.657 107.929L344 113.586L338.343 107.929C337.953 107.538 337.319 107.538 336.929 107.929C336.538 108.319 336.538 108.953 336.929 109.343L343.293 115.707ZM343 56V115H345V56H343Z" fill="#B1B1B1"/>
<path d="M343.293 293.707C343.683 294.098 344.317 294.098 344.707 293.707L351.071 287.343C351.462 286.953 351.462 286.319 351.071 285.929C350.681 285.538 350.047 285.538 349.657 285.929L344 291.586L338.343 285.929C337.953 285.538 337.319 285.538 336.929 285.929C336.538 286.319 336.538 286.953 336.929 287.343L343.293 293.707ZM343 140V293H345V140H343Z" fill="#B1B1B1"/>
<path d="M8.88313 101.288H17.4631C21.2178 101.288 24.0191 102.579 25.8671 105.16C27.7151 107.741 28.6391 111.569 28.6391 116.644C28.6391 121.719 27.7151 125.547 25.8671 128.128C24.0191 130.709 21.2178 132 17.4631 132H8.88313V101.288ZM17.2871 128.788C19.7511 128.788 21.5991 127.937 22.8311 126.236C24.0925 124.535 24.7231 122.129 24.7231 119.02V114.268C24.7231 111.159 24.0925 108.753 22.8311 107.052C21.5991 105.351 19.7511 104.5 17.2871 104.5H12.5791V128.788H17.2871ZM44.2859 132.528C42.4086 132.528 40.7953 132.176 39.4459 131.472C38.0966 130.739 36.9819 129.697 36.1019 128.348C35.2219 126.999 34.5766 125.341 34.1659 123.376C33.7553 121.411 33.5499 119.167 33.5499 116.644C33.5499 114.151 33.7553 111.921 34.1659 109.956C34.5766 107.961 35.2219 106.289 36.1019 104.94C36.9819 103.591 38.0966 102.564 39.4459 101.86C40.7953 101.127 42.4086 100.76 44.2859 100.76C46.1633 100.76 47.7766 101.127 49.1259 101.86C50.4753 102.564 51.5899 103.591 52.4699 104.94C53.3499 106.289 53.9953 107.961 54.4059 109.956C54.8166 111.921 55.0219 114.151 55.0219 116.644C55.0219 119.167 54.8166 121.411 54.4059 123.376C53.9953 125.341 53.3499 126.999 52.4699 128.348C51.5899 129.697 50.4753 130.739 49.1259 131.472C47.7766 132.176 46.1633 132.528 44.2859 132.528ZM44.2859 129.316C45.5179 129.316 46.5593 129.081 47.4099 128.612C48.2606 128.113 48.9646 127.424 49.5219 126.544C50.0793 125.664 50.4753 124.608 50.7099 123.376C50.9739 122.115 51.1059 120.707 51.1059 119.152V114.136C51.1059 112.611 50.9739 111.217 50.7099 109.956C50.4753 108.695 50.0793 107.624 49.5219 106.744C48.9646 105.864 48.2606 105.189 47.4099 104.72C46.5593 104.221 45.5179 103.972 44.2859 103.972C43.0539 103.972 42.0126 104.221 41.1619 104.72C40.3113 105.189 39.6073 105.864 39.0499 106.744C38.4926 107.624 38.0819 108.695 37.8179 109.956C37.5833 111.217 37.4659 112.611 37.4659 114.136V119.152C37.4659 120.707 37.5833 122.115 37.8179 123.376C38.0819 124.608 38.4926 125.664 39.0499 126.544C39.6073 127.424 40.3113 128.113 41.1619 128.612C42.0126 129.081 43.0539 129.316 44.2859 129.316ZM77.4888 116.6V106.876H77.1368L70.6688 122.672L64.2008 106.876H63.8488V116.6V132H60.4608V101.288H65.2128L70.6248 114.84H70.8888L76.3008 101.288H80.8768V132H77.4888V116.6ZM105.016 132L102.42 123.244H91.6396L89.0436 132H85.2156L94.6316 101.288H99.5156L108.932 132H105.016ZM97.2276 105.204H96.8316L92.5196 120.032H101.54L97.2276 105.204ZM113.93 132V129.052H121.586V104.236H113.93V101.288H132.938V104.236H125.282V129.052H132.938V132H113.93ZM143.789 105.996H143.481V132H140.137V101.288H145.373L155.845 127.028H156.153V101.288H159.497V132H154.261L143.789 105.996Z" fill="black"/>
<path d="M367.732 207.264C366.544 207.264 365.517 207.066 364.652 206.67C363.801 206.259 363.075 205.717 362.474 205.042L363.662 204.008C364.205 204.58 364.799 205.02 365.444 205.328C366.089 205.636 366.867 205.79 367.776 205.79C368.656 205.79 369.375 205.636 369.932 205.328C370.504 205.005 370.79 204.507 370.79 203.832C370.79 203.539 370.731 203.297 370.614 203.106C370.511 202.901 370.365 202.739 370.174 202.622C369.983 202.505 369.771 202.417 369.536 202.358C369.301 202.285 369.052 202.226 368.788 202.182L367.006 201.918C366.61 201.859 366.177 201.779 365.708 201.676C365.253 201.573 364.835 201.412 364.454 201.192C364.073 200.957 363.75 200.649 363.486 200.268C363.237 199.887 363.112 199.388 363.112 198.772C363.112 198.2 363.222 197.709 363.442 197.298C363.677 196.873 363.999 196.521 364.41 196.242C364.821 195.949 365.305 195.736 365.862 195.604C366.419 195.457 367.028 195.384 367.688 195.384C368.715 195.384 369.602 195.545 370.35 195.868C371.113 196.191 371.765 196.638 372.308 197.21L371.164 198.288C371.032 198.127 370.863 197.965 370.658 197.804C370.467 197.628 370.225 197.474 369.932 197.342C369.653 197.195 369.323 197.078 368.942 196.99C368.561 196.902 368.121 196.858 367.622 196.858C366.727 196.858 366.038 197.012 365.554 197.32C365.085 197.628 364.85 198.075 364.85 198.662C364.85 198.955 364.901 199.205 365.004 199.41C365.121 199.601 365.275 199.755 365.466 199.872C365.657 199.989 365.869 200.085 366.104 200.158C366.353 200.217 366.603 200.268 366.852 200.312L368.634 200.576C369.045 200.635 369.477 200.715 369.932 200.818C370.387 200.921 370.805 201.089 371.186 201.324C371.567 201.544 371.883 201.845 372.132 202.226C372.396 202.607 372.528 203.106 372.528 203.722C372.528 204.851 372.088 205.724 371.208 206.34C370.343 206.956 369.184 207.264 367.732 207.264ZM381.187 207.264C380.366 207.264 379.633 207.125 378.987 206.846C378.357 206.553 377.821 206.149 377.381 205.636C376.941 205.123 376.604 204.499 376.369 203.766C376.149 203.033 376.039 202.219 376.039 201.324C376.039 200.429 376.157 199.615 376.391 198.882C376.626 198.149 376.963 197.525 377.403 197.012C377.843 196.484 378.379 196.081 379.009 195.802C379.64 195.523 380.359 195.384 381.165 195.384C382.265 195.384 383.16 195.626 383.849 196.11C384.539 196.594 385.045 197.225 385.367 198.002L383.959 198.75C383.754 198.163 383.409 197.709 382.925 197.386C382.456 197.063 381.869 196.902 381.165 196.902C380.652 196.902 380.19 196.99 379.779 197.166C379.383 197.327 379.046 197.562 378.767 197.87C378.489 198.178 378.276 198.545 378.129 198.97C377.997 199.395 377.931 199.857 377.931 200.356V202.292C377.931 202.791 377.997 203.253 378.129 203.678C378.276 204.103 378.489 204.47 378.767 204.778C379.046 205.086 379.391 205.328 379.801 205.504C380.212 205.665 380.681 205.746 381.209 205.746C381.972 205.746 382.603 205.57 383.101 205.218C383.6 204.866 383.996 204.382 384.289 203.766L385.543 204.624C385.206 205.387 384.678 206.017 383.959 206.516C383.255 207.015 382.331 207.264 381.187 207.264ZM398.273 207C397.583 207 397.092 206.824 396.799 206.472C396.505 206.12 396.322 205.68 396.249 205.152H396.139C395.889 205.812 395.486 206.333 394.929 206.714C394.386 207.081 393.653 207.264 392.729 207.264C391.541 207.264 390.595 206.956 389.891 206.34C389.187 205.724 388.835 204.881 388.835 203.81C388.835 202.754 389.216 201.94 389.979 201.368C390.756 200.796 392.003 200.51 393.719 200.51H396.139V199.388C396.139 198.552 395.904 197.929 395.435 197.518C394.965 197.093 394.298 196.88 393.433 196.88C392.67 196.88 392.047 197.034 391.563 197.342C391.079 197.635 390.69 198.039 390.397 198.552L389.209 197.672C389.355 197.379 389.553 197.093 389.803 196.814C390.052 196.535 390.36 196.293 390.727 196.088C391.093 195.868 391.511 195.699 391.981 195.582C392.45 195.45 392.971 195.384 393.543 195.384C394.877 195.384 395.933 195.721 396.711 196.396C397.503 197.071 397.899 198.009 397.899 199.212V205.46H399.483V207H398.273ZM393.037 205.79C393.491 205.79 393.902 205.739 394.269 205.636C394.65 205.519 394.98 205.372 395.259 205.196C395.537 205.005 395.75 204.785 395.897 204.536C396.058 204.272 396.139 203.993 396.139 203.7V201.83H393.719C392.663 201.83 391.893 201.977 391.409 202.27C390.925 202.563 390.683 202.989 390.683 203.546V204.008C390.683 204.595 390.888 205.042 391.299 205.35C391.724 205.643 392.303 205.79 393.037 205.79ZM402.334 205.504H406.294V192.216H402.334V190.72H408.054V205.504H412.014V207H402.334V205.504ZM420.564 207.264C419.742 207.264 419.002 207.125 418.342 206.846C417.696 206.567 417.139 206.171 416.67 205.658C416.215 205.13 415.863 204.507 415.614 203.788C415.364 203.055 415.24 202.241 415.24 201.346C415.24 200.437 415.364 199.615 415.614 198.882C415.878 198.149 416.237 197.525 416.692 197.012C417.146 196.484 417.689 196.081 418.32 195.802C418.965 195.523 419.676 195.384 420.454 195.384C421.216 195.384 421.906 195.523 422.522 195.802C423.152 196.081 423.688 196.469 424.128 196.968C424.568 197.452 424.905 198.031 425.14 198.706C425.374 199.381 425.492 200.121 425.492 200.928V201.764H417.088V202.292C417.088 202.791 417.168 203.253 417.33 203.678C417.491 204.103 417.718 204.47 418.012 204.778C418.32 205.086 418.686 205.328 419.112 205.504C419.552 205.665 420.036 205.746 420.564 205.746C421.326 205.746 421.986 205.57 422.544 205.218C423.101 204.866 423.526 204.382 423.82 203.766L425.118 204.646C424.78 205.409 424.216 206.039 423.424 206.538C422.646 207.022 421.693 207.264 420.564 207.264ZM420.454 196.836C419.97 196.836 419.522 196.924 419.112 197.1C418.701 197.276 418.342 197.518 418.034 197.826C417.74 198.134 417.506 198.501 417.33 198.926C417.168 199.337 417.088 199.791 417.088 200.29V200.444H423.6V200.202C423.6 199.703 423.519 199.249 423.358 198.838C423.211 198.427 422.998 198.075 422.72 197.782C422.456 197.474 422.126 197.239 421.73 197.078C421.348 196.917 420.923 196.836 420.454 196.836ZM429.597 207V191.644H431.445V205.394H438.727V207H429.597ZM447.452 193.14C446.939 193.14 446.58 193.037 446.374 192.832C446.169 192.612 446.066 192.341 446.066 192.018V191.666C446.066 191.343 446.169 191.079 446.374 190.874C446.58 190.654 446.939 190.544 447.452 190.544C447.966 190.544 448.325 190.654 448.53 190.874C448.736 191.079 448.838 191.343 448.838 191.666V192.018C448.838 192.341 448.736 192.612 448.53 192.832C448.325 193.037 447.966 193.14 447.452 193.14ZM442.48 205.504H446.572V197.144H442.48V195.648H448.332V205.504H452.16V207H442.48V205.504ZM455.496 207V195.648H457.256V197.496H457.344C457.461 197.217 457.608 196.953 457.784 196.704C457.96 196.44 458.173 196.213 458.422 196.022C458.686 195.831 458.994 195.677 459.346 195.56C459.698 195.443 460.109 195.384 460.578 195.384C461.766 195.384 462.719 195.765 463.438 196.528C464.157 197.276 464.516 198.339 464.516 199.718V207H462.756V200.026C462.756 198.985 462.529 198.215 462.074 197.716C461.619 197.203 460.952 196.946 460.072 196.946C459.72 196.946 459.375 196.99 459.038 197.078C458.701 197.166 458.4 197.298 458.136 197.474C457.872 197.65 457.659 197.877 457.498 198.156C457.337 198.435 457.256 198.757 457.256 199.124V207H455.496ZM473.329 207.264C472.508 207.264 471.767 207.125 471.107 206.846C470.462 206.567 469.905 206.171 469.435 205.658C468.981 205.13 468.629 204.507 468.379 203.788C468.13 203.055 468.005 202.241 468.005 201.346C468.005 200.437 468.13 199.615 468.379 198.882C468.643 198.149 469.003 197.525 469.457 197.012C469.912 196.484 470.455 196.081 471.085 195.802C471.731 195.523 472.442 195.384 473.219 195.384C473.982 195.384 474.671 195.523 475.287 195.802C475.918 196.081 476.453 196.469 476.893 196.968C477.333 197.452 477.671 198.031 477.905 198.706C478.14 199.381 478.257 200.121 478.257 200.928V201.764H469.853V202.292C469.853 202.791 469.934 203.253 470.095 203.678C470.257 204.103 470.484 204.47 470.777 204.778C471.085 205.086 471.452 205.328 471.877 205.504C472.317 205.665 472.801 205.746 473.329 205.746C474.092 205.746 474.752 205.57 475.309 205.218C475.867 204.866 476.292 204.382 476.585 203.766L477.883 204.646C477.546 205.409 476.981 206.039 476.189 206.538C475.412 207.022 474.459 207.264 473.329 207.264ZM473.219 196.836C472.735 196.836 472.288 196.924 471.877 197.1C471.467 197.276 471.107 197.518 470.799 197.826C470.506 198.134 470.271 198.501 470.095 198.926C469.934 199.337 469.853 199.791 469.853 200.29V200.444H476.365V200.202C476.365 199.703 476.285 199.249 476.123 198.838C475.977 198.427 475.764 198.075 475.485 197.782C475.221 197.474 474.891 197.239 474.495 197.078C474.114 196.917 473.689 196.836 473.219 196.836ZM490.613 207C489.923 207 489.432 206.824 489.139 206.472C488.845 206.12 488.662 205.68 488.589 205.152H488.479C488.229 205.812 487.826 206.333 487.269 206.714C486.726 207.081 485.993 207.264 485.069 207.264C483.881 207.264 482.935 206.956 482.231 206.34C481.527 205.724 481.175 204.881 481.175 203.81C481.175 202.754 481.556 201.94 482.319 201.368C483.096 200.796 484.343 200.51 486.059 200.51H488.479V199.388C488.479 198.552 488.244 197.929 487.775 197.518C487.305 197.093 486.638 196.88 485.773 196.88C485.01 196.88 484.387 197.034 483.903 197.342C483.419 197.635 483.03 198.039 482.737 198.552L481.549 197.672C481.695 197.379 481.893 197.093 482.143 196.814C482.392 196.535 482.7 196.293 483.067 196.088C483.433 195.868 483.851 195.699 484.321 195.582C484.79 195.45 485.311 195.384 485.883 195.384C487.217 195.384 488.273 195.721 489.051 196.396C489.843 197.071 490.239 198.009 490.239 199.212V205.46H491.823V207H490.613ZM485.377 205.79C485.831 205.79 486.242 205.739 486.609 205.636C486.99 205.519 487.32 205.372 487.599 205.196C487.877 205.005 488.09 204.785 488.237 204.536C488.398 204.272 488.479 203.993 488.479 203.7V201.83H486.059C485.003 201.83 484.233 201.977 483.749 202.27C483.265 202.563 483.023 202.989 483.023 203.546V204.008C483.023 204.595 483.228 205.042 483.639 205.35C484.064 205.643 484.643 205.79 485.377 205.79ZM494.608 205.504H497.93V197.144H494.608V195.648H499.69V198.508H499.8C500.035 197.613 500.475 196.917 501.12 196.418C501.78 195.905 502.616 195.648 503.628 195.648H505.212V197.408H503.078C502.066 197.408 501.245 197.701 500.614 198.288C499.998 198.875 499.69 199.645 499.69 200.598V205.504H504.09V207H494.608V205.504ZM510.615 200.158C510.615 199.087 510.733 198.061 510.967 197.078C511.217 196.081 511.547 195.157 511.957 194.306C512.383 193.455 512.874 192.693 513.431 192.018C513.989 191.329 514.575 190.749 515.191 190.28H516.973C516.328 190.764 515.719 191.329 515.147 191.974C514.59 192.605 514.091 193.301 513.651 194.064C513.226 194.812 512.889 195.626 512.639 196.506C512.39 197.371 512.265 198.273 512.265 199.212V201.104C512.265 202.043 512.39 202.952 512.639 203.832C512.889 204.697 513.226 205.511 513.651 206.274C514.091 207.022 514.59 207.711 515.147 208.342C515.719 208.987 516.328 209.552 516.973 210.036H515.191C514.575 209.581 513.989 209.009 513.431 208.32C512.874 207.631 512.383 206.861 511.957 206.01C511.547 205.159 511.217 204.243 510.967 203.26C510.733 202.263 510.615 201.229 510.615 200.158ZM527.987 200.158C527.987 201.229 527.862 202.263 527.613 203.26C527.378 204.243 527.048 205.159 526.623 206.01C526.212 206.861 525.728 207.631 525.171 208.32C524.614 209.009 524.027 209.581 523.411 210.036H521.629C522.26 209.552 522.861 208.987 523.433 208.342C524.005 207.711 524.504 207.022 524.929 206.274C525.369 205.511 525.714 204.697 525.963 203.832C526.212 202.952 526.337 202.043 526.337 201.104V199.212C526.337 198.273 526.212 197.371 525.963 196.506C525.714 195.626 525.369 194.812 524.929 194.064C524.504 193.301 524.005 192.605 523.433 191.974C522.861 191.329 522.26 190.764 521.629 190.28H523.411C524.027 190.749 524.614 191.329 525.171 192.018C525.728 192.693 526.212 193.455 526.623 194.306C527.048 195.157 527.378 196.081 527.613 197.078C527.862 198.061 527.987 199.087 527.987 200.158Z" fill="black"/>
<path d="M123.742 310H120.046V279.288H131.222C134.067 279.288 136.238 280.065 137.734 281.62C139.23 283.175 139.978 285.345 139.978 288.132C139.978 290.625 139.333 292.62 138.042 294.116C136.751 295.612 134.874 296.477 132.41 296.712L140.242 310H136.106L128.626 296.888H123.742V310ZM131.134 293.764C132.689 293.764 133.891 293.383 134.742 292.62C135.622 291.828 136.062 290.713 136.062 289.276V286.988C136.062 285.551 135.622 284.451 134.742 283.688C133.891 282.896 132.689 282.5 131.134 282.5H123.742V293.764H131.134ZM163.633 310L161.037 301.244H150.257L147.661 310H143.833L153.249 279.288H158.133L167.549 310H163.633ZM155.845 283.204H155.449L151.137 298.032H160.157L155.845 283.204ZM176.024 283.996H175.716V310H172.372V279.288H177.608L188.08 305.028H188.388V279.288H191.732V310H186.496L176.024 283.996ZM214.77 305.908H214.55C214.286 306.495 213.978 307.067 213.626 307.624C213.274 308.181 212.82 308.68 212.262 309.12C211.734 309.531 211.089 309.868 210.326 310.132C209.564 310.396 208.654 310.528 207.598 310.528C204.254 310.528 201.761 309.179 200.118 306.48C198.505 303.781 197.698 299.909 197.698 294.864C197.698 289.584 198.593 285.58 200.382 282.852C202.172 280.124 204.929 278.76 208.654 278.76C210.092 278.76 211.338 278.951 212.394 279.332C213.45 279.713 214.345 280.227 215.078 280.872C215.841 281.517 216.472 282.251 216.97 283.072C217.469 283.864 217.88 284.671 218.202 285.492L215.034 286.944C214.77 286.269 214.462 285.639 214.11 285.052C213.788 284.436 213.377 283.908 212.878 283.468C212.409 282.999 211.837 282.632 211.162 282.368C210.488 282.104 209.696 281.972 208.786 281.972C206.322 281.972 204.504 282.896 203.33 284.744C202.186 286.592 201.614 289.056 201.614 292.136V296.888C201.614 298.443 201.732 299.865 201.966 301.156C202.201 302.417 202.582 303.517 203.11 304.456C203.668 305.395 204.372 306.128 205.222 306.656C206.102 307.155 207.173 307.404 208.434 307.404C210.429 307.404 211.984 306.803 213.098 305.6C214.213 304.397 214.77 302.843 214.77 300.936V297.768H208.302V294.82H218.202V310H214.77V305.908ZM225.577 310V279.288H244.497V282.5H229.273V292.84H243.969V296.052H229.273V306.788H244.497V310H225.577Z" fill="black"/>
<rect x="183" y="90" width="321" height="50" fill="#A5D4FF"/>
<path d="M196.504 82.264C195.566 82.264 194.759 82.088 194.084 81.736C193.41 81.3693 192.852 80.8487 192.412 80.174C191.972 79.4993 191.65 78.6707 191.444 77.688C191.239 76.7053 191.136 75.5833 191.136 74.322C191.136 73.0753 191.239 71.9607 191.444 70.978C191.65 69.9807 191.972 69.1447 192.412 68.47C192.852 67.7953 193.41 67.282 194.084 66.93C194.759 66.5633 195.566 66.38 196.504 66.38C197.443 66.38 198.25 66.5633 198.924 66.93C199.599 67.282 200.156 67.7953 200.596 68.47C201.036 69.1447 201.359 69.9807 201.564 70.978C201.77 71.9607 201.872 73.0753 201.872 74.322C201.872 75.5833 201.77 76.7053 201.564 77.688C201.359 78.6707 201.036 79.4993 200.596 80.174C200.156 80.8487 199.599 81.3693 198.924 81.736C198.25 82.088 197.443 82.264 196.504 82.264ZM196.504 80.658C197.12 80.658 197.648 80.5407 198.088 80.306C198.528 80.0567 198.88 79.712 199.144 79.272C199.423 78.832 199.628 78.304 199.76 77.688C199.892 77.0573 199.958 76.3533 199.958 75.576V73.068C199.958 72.3053 199.892 71.6087 199.76 70.978C199.628 70.3473 199.423 69.812 199.144 69.372C198.88 68.932 198.528 68.5947 198.088 68.36C197.648 68.1107 197.12 67.986 196.504 67.986C195.888 67.986 195.36 68.1107 194.92 68.36C194.48 68.5947 194.121 68.932 193.842 69.372C193.578 69.812 193.38 70.3473 193.248 70.978C193.116 71.6087 193.05 72.3053 193.05 73.068V75.576C193.05 76.3533 193.116 77.0573 193.248 77.688C193.38 78.304 193.578 78.832 193.842 79.272C194.121 79.712 194.48 80.0567 194.92 80.306C195.36 80.5407 195.888 80.658 196.504 80.658ZM196.504 75.62C195.991 75.62 195.632 75.5173 195.426 75.312C195.236 75.1067 195.14 74.8573 195.14 74.564V74.08C195.14 73.7867 195.236 73.5373 195.426 73.332C195.632 73.1267 195.991 73.024 196.504 73.024C197.018 73.024 197.37 73.1267 197.56 73.332C197.766 73.5373 197.868 73.7867 197.868 74.08V74.564C197.868 74.8573 197.766 75.1067 197.56 75.312C197.37 75.5173 197.018 75.62 196.504 75.62Z" fill="black"/>
<path d="M453.487 82V80.394H457.887V68.008H457.733L453.861 71.616L452.783 70.45L456.853 66.644H459.735V80.394H463.783V82H453.487ZM471.409 82.264C470.47 82.264 469.663 82.088 468.989 81.736C468.314 81.3693 467.757 80.8487 467.317 80.174C466.877 79.4993 466.554 78.6707 466.349 77.688C466.143 76.7053 466.041 75.5833 466.041 74.322C466.041 73.0753 466.143 71.9607 466.349 70.978C466.554 69.9807 466.877 69.1447 467.317 68.47C467.757 67.7953 468.314 67.282 468.989 66.93C469.663 66.5633 470.47 66.38 471.409 66.38C472.347 66.38 473.154 66.5633 473.829 66.93C474.503 67.282 475.061 67.7953 475.501 68.47C475.941 69.1447 476.263 69.9807 476.469 70.978C476.674 71.9607 476.777 73.0753 476.777 74.322C476.777 75.5833 476.674 76.7053 476.469 77.688C476.263 78.6707 475.941 79.4993 475.501 80.174C475.061 80.8487 474.503 81.3693 473.829 81.736C473.154 82.088 472.347 82.264 471.409 82.264ZM471.409 80.658C472.025 80.658 472.553 80.5407 472.993 80.306C473.433 80.0567 473.785 79.712 474.049 79.272C474.327 78.832 474.533 78.304 474.665 77.688C474.797 77.0573 474.863 76.3533 474.863 75.576V73.068C474.863 72.3053 474.797 71.6087 474.665 70.978C474.533 70.3473 474.327 69.812 474.049 69.372C473.785 68.932 473.433 68.5947 472.993 68.36C472.553 68.1107 472.025 67.986 471.409 67.986C470.793 67.986 470.265 68.1107 469.825 68.36C469.385 68.5947 469.025 68.932 468.747 69.372C468.483 69.812 468.285 70.3473 468.153 70.978C468.021 71.6087 467.955 72.3053 467.955 73.068V75.576C467.955 76.3533 468.021 77.0573 468.153 77.688C468.285 78.304 468.483 78.832 468.747 79.272C469.025 79.712 469.385 80.0567 469.825 80.306C470.265 80.5407 470.793 80.658 471.409 80.658ZM471.409 75.62C470.895 75.62 470.536 75.5173 470.331 75.312C470.14 75.1067 470.045 74.8573 470.045 74.564V74.08C470.045 73.7867 470.14 73.5373 470.331 73.332C470.536 73.1267 470.895 73.024 471.409 73.024C471.922 73.024 472.274 73.1267 472.465 73.332C472.67 73.5373 472.773 73.7867 472.773 74.08V74.564C472.773 74.8573 472.67 75.1067 472.465 75.312C472.274 75.5173 471.922 75.62 471.409 75.62ZM484.6 82.264C483.661 82.264 482.855 82.088 482.18 81.736C481.505 81.3693 480.948 80.8487 480.508 80.174C480.068 79.4993 479.745 78.6707 479.54 77.688C479.335 76.7053 479.232 75.5833 479.232 74.322C479.232 73.0753 479.335 71.9607 479.54 70.978C479.745 69.9807 480.068 69.1447 480.508 68.47C480.948 67.7953 481.505 67.282 482.18 66.93C482.855 66.5633 483.661 66.38 484.6 66.38C485.539 66.38 486.345 66.5633 487.02 66.93C487.695 67.282 488.252 67.7953 488.692 68.47C489.132 69.1447 489.455 69.9807 489.66 70.978C489.865 71.9607 489.968 73.0753 489.968 74.322C489.968 75.5833 489.865 76.7053 489.66 77.688C489.455 78.6707 489.132 79.4993 488.692 80.174C488.252 80.8487 487.695 81.3693 487.02 81.736C486.345 82.088 485.539 82.264 484.6 82.264ZM484.6 80.658C485.216 80.658 485.744 80.5407 486.184 80.306C486.624 80.0567 486.976 79.712 487.24 79.272C487.519 78.832 487.724 78.304 487.856 77.688C487.988 77.0573 488.054 76.3533 488.054 75.576V73.068C488.054 72.3053 487.988 71.6087 487.856 70.978C487.724 70.3473 487.519 69.812 487.24 69.372C486.976 68.932 486.624 68.5947 486.184 68.36C485.744 68.1107 485.216 67.986 484.6 67.986C483.984 67.986 483.456 68.1107 483.016 68.36C482.576 68.5947 482.217 68.932 481.938 69.372C481.674 69.812 481.476 70.3473 481.344 70.978C481.212 71.6087 481.146 72.3053 481.146 73.068V75.576C481.146 76.3533 481.212 77.0573 481.344 77.688C481.476 78.304 481.674 78.832 481.938 79.272C482.217 79.712 482.576 80.0567 483.016 80.306C483.456 80.5407 483.984 80.658 484.6 80.658ZM484.6 75.62C484.087 75.62 483.727 75.5173 483.522 75.312C483.331 75.1067 483.236 74.8573 483.236 74.564V74.08C483.236 73.7867 483.331 73.5373 483.522 73.332C483.727 73.1267 484.087 73.024 484.6 73.024C485.113 73.024 485.465 73.1267 485.656 73.332C485.861 73.5373 485.964 73.7867 485.964 74.08V74.564C485.964 74.8573 485.861 75.1067 485.656 75.312C485.465 75.5173 485.113 75.62 484.6 75.62ZM497.791 82.264C496.853 82.264 496.046 82.088 495.371 81.736C494.697 81.3693 494.139 80.8487 493.699 80.174C493.259 79.4993 492.937 78.6707 492.731 77.688C492.526 76.7053 492.423 75.5833 492.423 74.322C492.423 73.0753 492.526 71.9607 492.731 70.978C492.937 69.9807 493.259 69.1447 493.699 68.47C494.139 67.7953 494.697 67.282 495.371 66.93C496.046 66.5633 496.853 66.38 497.791 66.38C498.73 66.38 499.537 66.5633 500.211 66.93C500.886 67.282 501.443 67.7953 501.883 68.47C502.323 69.1447 502.646 69.9807 502.851 70.978C503.057 71.9607 503.159 73.0753 503.159 74.322C503.159 75.5833 503.057 76.7053 502.851 77.688C502.646 78.6707 502.323 79.4993 501.883 80.174C501.443 80.8487 500.886 81.3693 500.211 81.736C499.537 82.088 498.73 82.264 497.791 82.264ZM497.791 80.658C498.407 80.658 498.935 80.5407 499.375 80.306C499.815 80.0567 500.167 79.712 500.431 79.272C500.71 78.832 500.915 78.304 501.047 77.688C501.179 77.0573 501.245 76.3533 501.245 75.576V73.068C501.245 72.3053 501.179 71.6087 501.047 70.978C500.915 70.3473 500.71 69.812 500.431 69.372C500.167 68.932 499.815 68.5947 499.375 68.36C498.935 68.1107 498.407 67.986 497.791 67.986C497.175 67.986 496.647 68.1107 496.207 68.36C495.767 68.5947 495.408 68.932 495.129 69.372C494.865 69.812 494.667 70.3473 494.535 70.978C494.403 71.6087 494.337 72.3053 494.337 73.068V75.576C494.337 76.3533 494.403 77.0573 494.535 77.688C494.667 78.304 494.865 78.832 495.129 79.272C495.408 79.712 495.767 80.0567 496.207 80.306C496.647 80.5407 497.175 80.658 497.791 80.658ZM497.791 75.62C497.278 75.62 496.919 75.5173 496.713 75.312C496.523 75.1067 496.427 74.8573 496.427 74.564V74.08C496.427 73.7867 496.523 73.5373 496.713 73.332C496.919 73.1267 497.278 73.024 497.791 73.024C498.305 73.024 498.657 73.1267 498.847 73.332C499.053 73.5373 499.155 73.7867 499.155 74.08V74.564C499.155 74.8573 499.053 75.1067 498.847 75.312C498.657 75.5173 498.305 75.62 497.791 75.62Z" fill="black"/>
<rect x="263" y="268" width="162" height="50" fill="#FC4773"/>
<path d="M269.504 260.264C268.566 260.264 267.759 260.088 267.084 259.736C266.41 259.369 265.852 258.849 265.412 258.174C264.972 257.499 264.65 256.671 264.444 255.688C264.239 254.705 264.136 253.583 264.136 252.322C264.136 251.075 264.239 249.961 264.444 248.978C264.65 247.981 264.972 247.145 265.412 246.47C265.852 245.795 266.41 245.282 267.084 244.93C267.759 244.563 268.566 244.38 269.504 244.38C270.443 244.38 271.25 244.563 271.924 244.93C272.599 245.282 273.156 245.795 273.596 246.47C274.036 247.145 274.359 247.981 274.564 248.978C274.77 249.961 274.872 251.075 274.872 252.322C274.872 253.583 274.77 254.705 274.564 255.688C274.359 256.671 274.036 257.499 273.596 258.174C273.156 258.849 272.599 259.369 271.924 259.736C271.25 260.088 270.443 260.264 269.504 260.264ZM269.504 258.658C270.12 258.658 270.648 258.541 271.088 258.306C271.528 258.057 271.88 257.712 272.144 257.272C272.423 256.832 272.628 256.304 272.76 255.688C272.892 255.057 272.958 254.353 272.958 253.576V251.068C272.958 250.305 272.892 249.609 272.76 248.978C272.628 248.347 272.423 247.812 272.144 247.372C271.88 246.932 271.528 246.595 271.088 246.36C270.648 246.111 270.12 245.986 269.504 245.986C268.888 245.986 268.36 246.111 267.92 246.36C267.48 246.595 267.121 246.932 266.842 247.372C266.578 247.812 266.38 248.347 266.248 248.978C266.116 249.609 266.05 250.305 266.05 251.068V253.576C266.05 254.353 266.116 255.057 266.248 255.688C266.38 256.304 266.578 256.832 266.842 257.272C267.121 257.712 267.48 258.057 267.92 258.306C268.36 258.541 268.888 258.658 269.504 258.658ZM269.504 253.62C268.991 253.62 268.632 253.517 268.426 253.312C268.236 253.107 268.14 252.857 268.14 252.564V252.08C268.14 251.787 268.236 251.537 268.426 251.332C268.632 251.127 268.991 251.024 269.504 251.024C270.018 251.024 270.37 251.127 270.56 251.332C270.766 251.537 270.868 251.787 270.868 252.08V252.564C270.868 252.857 270.766 253.107 270.56 253.312C270.37 253.517 270.018 253.62 269.504 253.62Z" fill="black"/>
<path d="M394.029 260V256.986H386.461V255.358L393.105 244.644H395.789V255.468H398.077V256.986H395.789V260H394.029ZM388.111 255.468H394.029V246.074H393.941L388.111 255.468ZM405.504 260.264C404.566 260.264 403.759 260.088 403.084 259.736C402.41 259.369 401.852 258.849 401.412 258.174C400.972 257.499 400.65 256.671 400.444 255.688C400.239 254.705 400.136 253.583 400.136 252.322C400.136 251.075 400.239 249.961 400.444 248.978C400.65 247.981 400.972 247.145 401.412 246.47C401.852 245.795 402.41 245.282 403.084 244.93C403.759 244.563 404.566 244.38 405.504 244.38C406.443 244.38 407.25 244.563 407.924 244.93C408.599 245.282 409.156 245.795 409.596 246.47C410.036 247.145 410.359 247.981 410.564 248.978C410.77 249.961 410.872 251.075 410.872 252.322C410.872 253.583 410.77 254.705 410.564 255.688C410.359 256.671 410.036 257.499 409.596 258.174C409.156 258.849 408.599 259.369 407.924 259.736C407.25 260.088 406.443 260.264 405.504 260.264ZM405.504 258.658C406.12 258.658 406.648 258.541 407.088 258.306C407.528 258.057 407.88 257.712 408.144 257.272C408.423 256.832 408.628 256.304 408.76 255.688C408.892 255.057 408.958 254.353 408.958 253.576V251.068C408.958 250.305 408.892 249.609 408.76 248.978C408.628 248.347 408.423 247.812 408.144 247.372C407.88 246.932 407.528 246.595 407.088 246.36C406.648 246.111 406.12 245.986 405.504 245.986C404.888 245.986 404.36 246.111 403.92 246.36C403.48 246.595 403.121 246.932 402.842 247.372C402.578 247.812 402.38 248.347 402.248 248.978C402.116 249.609 402.05 250.305 402.05 251.068V253.576C402.05 254.353 402.116 255.057 402.248 255.688C402.38 256.304 402.578 256.832 402.842 257.272C403.121 257.712 403.48 258.057 403.92 258.306C404.36 258.541 404.888 258.658 405.504 258.658ZM405.504 253.62C404.991 253.62 404.632 253.517 404.426 253.312C404.236 253.107 404.14 252.857 404.14 252.564V252.08C404.14 251.787 404.236 251.537 404.426 251.332C404.632 251.127 404.991 251.024 405.504 251.024C406.018 251.024 406.37 251.127 406.56 251.332C406.766 251.537 406.868 251.787 406.868 252.08V252.564C406.868 252.857 406.766 253.107 406.56 253.312C406.37 253.517 406.018 253.62 405.504 253.62ZM418.696 260.264C417.757 260.264 416.95 260.088 416.276 259.736C415.601 259.369 415.044 258.849 414.604 258.174C414.164 257.499 413.841 256.671 413.636 255.688C413.43 254.705 413.328 253.583 413.328 252.322C413.328 251.075 413.43 249.961 413.636 248.978C413.841 247.981 414.164 247.145 414.604 246.47C415.044 245.795 415.601 245.282 416.276 244.93C416.95 244.563 417.757 244.38 418.696 244.38C419.634 244.38 420.441 244.563 421.116 244.93C421.79 245.282 422.348 245.795 422.788 246.47C423.228 247.145 423.55 247.981 423.756 248.978C423.961 249.961 424.064 251.075 424.064 252.322C424.064 253.583 423.961 254.705 423.756 255.688C423.55 256.671 423.228 257.499 422.788 258.174C422.348 258.849 421.79 259.369 421.116 259.736C420.441 260.088 419.634 260.264 418.696 260.264ZM418.696 258.658C419.312 258.658 419.84 258.541 420.28 258.306C420.72 258.057 421.072 257.712 421.336 257.272C421.614 256.832 421.82 256.304 421.952 255.688C422.084 255.057 422.15 254.353 422.15 253.576V251.068C422.15 250.305 422.084 249.609 421.952 248.978C421.82 248.347 421.614 247.812 421.336 247.372C421.072 246.932 420.72 246.595 420.28 246.36C419.84 246.111 419.312 245.986 418.696 245.986C418.08 245.986 417.552 246.111 417.112 246.36C416.672 246.595 416.312 246.932 416.034 247.372C415.77 247.812 415.572 248.347 415.44 248.978C415.308 249.609 415.242 250.305 415.242 251.068V253.576C415.242 254.353 415.308 255.057 415.44 255.688C415.572 256.304 415.77 256.832 416.034 257.272C416.312 257.712 416.672 258.057 417.112 258.306C417.552 258.541 418.08 258.658 418.696 258.658ZM418.696 253.62C418.182 253.62 417.823 253.517 417.618 253.312C417.427 253.107 417.332 252.857 417.332 252.564V252.08C417.332 251.787 417.427 251.537 417.618 251.332C417.823 251.127 418.182 251.024 418.696 251.024C419.209 251.024 419.561 251.127 419.752 251.332C419.957 251.537 420.06 251.787 420.06 252.08V252.564C420.06 252.857 419.957 253.107 419.752 253.312C419.561 253.517 419.209 253.62 418.696 253.62Z" fill="black"/>
<path d="M335.263 32.526H328.157L327.805 37.388H328.003C328.164 37.036 328.348 36.7133 328.553 36.42C328.758 36.112 329 35.8553 329.279 35.65C329.558 35.43 329.88 35.2613 330.247 35.144C330.614 35.0267 331.032 34.968 331.501 34.968C332.132 34.968 332.726 35.078 333.283 35.298C333.855 35.518 334.354 35.8407 334.779 36.266C335.219 36.6767 335.564 37.19 335.813 37.806C336.062 38.4073 336.187 39.0893 336.187 39.852C336.187 40.6293 336.055 41.348 335.791 42.008C335.527 42.668 335.138 43.24 334.625 43.724C334.126 44.208 333.503 44.5893 332.755 44.868C332.007 45.132 331.156 45.264 330.203 45.264C329.455 45.264 328.788 45.1833 328.201 45.022C327.614 44.8607 327.094 44.648 326.639 44.384C326.199 44.1053 325.81 43.79 325.473 43.438C325.15 43.0713 324.872 42.6973 324.637 42.316L327.035 40.424C327.211 40.7173 327.394 40.996 327.585 41.26C327.79 41.524 328.018 41.7587 328.267 41.964C328.531 42.1547 328.817 42.3087 329.125 42.426C329.448 42.5287 329.814 42.58 330.225 42.58C331.046 42.58 331.662 42.36 332.073 41.92C332.498 41.4653 332.711 40.864 332.711 40.116V39.94C332.711 39.2213 332.498 38.6567 332.073 38.246C331.648 37.8353 331.061 37.63 330.313 37.63C329.697 37.63 329.184 37.7547 328.773 38.004C328.377 38.2387 328.076 38.4733 327.871 38.708L325.165 38.334L325.737 29.644H335.263V32.526ZM343.504 45.264C341.451 45.264 339.933 44.5673 338.95 43.174C337.982 41.7807 337.498 39.83 337.498 37.322C337.498 34.814 337.982 32.8633 338.95 31.47C339.933 30.0767 341.451 29.38 343.504 29.38C345.558 29.38 347.068 30.0767 348.036 31.47C349.019 32.8633 349.51 34.814 349.51 37.322C349.51 39.83 349.019 41.7807 348.036 43.174C347.068 44.5673 345.558 45.264 343.504 45.264ZM343.504 42.668C344.487 42.668 345.169 42.3233 345.55 41.634C345.946 40.9447 346.144 39.984 346.144 38.752V35.892C346.144 34.66 345.946 33.6993 345.55 33.01C345.169 32.3207 344.487 31.976 343.504 31.976C342.522 31.976 341.832 32.3207 341.436 33.01C341.055 33.6993 340.864 34.66 340.864 35.892V38.752C340.864 39.984 341.055 40.9447 341.436 41.634C341.832 42.3233 342.522 42.668 343.504 42.668ZM343.504 38.62C342.991 38.62 342.632 38.5173 342.426 38.312C342.236 38.1067 342.14 37.8573 342.14 37.564V37.08C342.14 36.7867 342.236 36.5373 342.426 36.332C342.632 36.1267 342.991 36.024 343.504 36.024C344.018 36.024 344.37 36.1267 344.56 36.332C344.766 36.5373 344.868 36.7867 344.868 37.08V37.564C344.868 37.8573 344.766 38.1067 344.56 38.312C344.37 38.5173 344.018 38.62 343.504 38.62ZM356.696 45.264C354.642 45.264 353.124 44.5673 352.142 43.174C351.174 41.7807 350.69 39.83 350.69 37.322C350.69 34.814 351.174 32.8633 352.142 31.47C353.124 30.0767 354.642 29.38 356.696 29.38C358.749 29.38 360.26 30.0767 361.228 31.47C362.21 32.8633 362.702 34.814 362.702 37.322C362.702 39.83 362.21 41.7807 361.228 43.174C360.26 44.5673 358.749 45.264 356.696 45.264ZM356.696 42.668C357.678 42.668 358.36 42.3233 358.742 41.634C359.138 40.9447 359.336 39.984 359.336 38.752V35.892C359.336 34.66 359.138 33.6993 358.742 33.01C358.36 32.3207 357.678 31.976 356.696 31.976C355.713 31.976 355.024 32.3207 354.628 33.01C354.246 33.6993 354.056 34.66 354.056 35.892V38.752C354.056 39.984 354.246 40.9447 354.628 41.634C355.024 42.3233 355.713 42.668 356.696 42.668ZM356.696 38.62C356.182 38.62 355.823 38.5173 355.618 38.312C355.427 38.1067 355.332 37.8573 355.332 37.564V37.08C355.332 36.7867 355.427 36.5373 355.618 36.332C355.823 36.1267 356.182 36.024 356.696 36.024C357.209 36.024 357.561 36.1267 357.752 36.332C357.957 36.5373 358.06 36.7867 358.06 37.08V37.564C358.06 37.8573 357.957 38.1067 357.752 38.312C357.561 38.5173 357.209 38.62 356.696 38.62Z" fill="black"/>
<path d="M322.494 6.66C322.074 6.66 321.78 6.576 321.612 6.408C321.444 6.228 321.36 6.006 321.36 5.742V5.454C321.36 5.19 321.444 4.974 321.612 4.806C321.78 4.626 322.074 4.536 322.494 4.536C322.914 4.536 323.208 4.626 323.376 4.806C323.544 4.974 323.628 5.19 323.628 5.454V5.742C323.628 6.006 323.544 6.228 323.376 6.408C323.208 6.576 322.914 6.66 322.494 6.66ZM318.426 16.776H321.774V9.936H318.426V8.712H323.214V16.776H326.346V18H318.426V16.776ZM329.075 18V8.712H330.515V10.224H330.587C330.683 9.996 330.803 9.78 330.947 9.576C331.091 9.36 331.265 9.174 331.469 9.018C331.685 8.862 331.937 8.736 332.225 8.64C332.513 8.544 332.849 8.496 333.233 8.496C334.205 8.496 334.985 8.808 335.573 9.432C336.161 10.044 336.455 10.914 336.455 12.042V18H335.015V12.294C335.015 11.442 334.829 10.812 334.457 10.404C334.085 9.984 333.539 9.774 332.819 9.774C332.531 9.774 332.249 9.81 331.973 9.882C331.697 9.954 331.451 10.062 331.235 10.206C331.019 10.35 330.845 10.536 330.713 10.764C330.581 10.992 330.515 11.256 330.515 11.556V18H329.075ZM339.814 8.712H341.254V10.224H341.326C341.926 9.072 342.88 8.496 344.188 8.496C345.328 8.496 346.216 8.922 346.852 9.774C347.5 10.626 347.824 11.82 347.824 13.356C347.824 14.892 347.5 16.086 346.852 16.938C346.216 17.79 345.328 18.216 344.188 18.216C342.88 18.216 341.926 17.64 341.326 16.488H341.254V21.6H339.814V8.712ZM343.63 16.938C344.47 16.938 345.118 16.686 345.574 16.182C346.042 15.666 346.276 14.988 346.276 14.148V12.564C346.276 11.724 346.042 11.052 345.574 10.548C345.118 10.032 344.47 9.774 343.63 9.774C343.306 9.774 343 9.816 342.712 9.9C342.424 9.984 342.172 10.11 341.956 10.278C341.74 10.434 341.566 10.632 341.434 10.872C341.314 11.1 341.254 11.37 341.254 11.682V15.03C341.254 15.342 341.314 15.618 341.434 15.858C341.566 16.086 341.74 16.284 341.956 16.452C342.172 16.608 342.424 16.728 342.712 16.812C343 16.896 343.306 16.938 343.63 16.938ZM356.492 16.488H356.42C356.324 16.716 356.204 16.938 356.06 17.154C355.916 17.358 355.736 17.538 355.52 17.694C355.316 17.85 355.07 17.976 354.782 18.072C354.494 18.168 354.158 18.216 353.774 18.216C352.802 18.216 352.022 17.91 351.434 17.298C350.846 16.674 350.552 15.798 350.552 14.67V8.712H351.992V14.418C351.992 15.27 352.178 15.906 352.55 16.326C352.922 16.734 353.468 16.938 354.188 16.938C354.476 16.938 354.758 16.902 355.034 16.83C355.31 16.758 355.556 16.65 355.772 16.506C355.988 16.362 356.162 16.182 356.294 15.966C356.426 15.738 356.492 15.468 356.492 15.156V8.712H357.932V18H356.492V16.488ZM365.539 18C364.831 18 364.309 17.802 363.973 17.406C363.649 17.01 363.487 16.5 363.487 15.876V9.936H360.391V8.712H362.695C363.007 8.712 363.223 8.652 363.343 8.532C363.475 8.4 363.541 8.178 363.541 7.866V5.436H364.927V8.712H369.157V9.936H364.927V16.776H369.157V18H365.539Z" fill="black"/>
<path d="M343.293 352.707C343.683 353.098 344.317 353.098 344.707 352.707L351.071 346.343C351.462 345.953 351.462 345.319 351.071 344.929C350.681 344.538 350.047 344.538 349.657 344.929L344 350.586L338.343 344.929C337.953 344.538 337.319 344.538 336.929 344.929C336.538 345.319 336.538 345.953 336.929 346.343L343.293 352.707ZM343 318V352H345V318H343Z" fill="#B1B1B1"/>
<path d="M335.923 406H324.879V402.986L329.719 398.96C330.555 398.241 331.156 397.618 331.523 397.09C331.89 396.562 332.073 396.005 332.073 395.418V395.198C332.073 394.553 331.882 394.069 331.501 393.746C331.12 393.409 330.606 393.24 329.961 393.24C329.228 393.24 328.663 393.453 328.267 393.878C327.871 394.303 327.592 394.809 327.431 395.396L324.549 394.296C324.725 393.768 324.967 393.269 325.275 392.8C325.583 392.316 325.972 391.898 326.441 391.546C326.925 391.194 327.482 390.915 328.113 390.71C328.744 390.49 329.47 390.38 330.291 390.38C331.127 390.38 331.875 390.497 332.535 390.732C333.195 390.967 333.752 391.289 334.207 391.7C334.662 392.111 335.006 392.602 335.241 393.174C335.476 393.731 335.593 394.34 335.593 395C335.593 395.645 335.483 396.239 335.263 396.782C335.058 397.31 334.764 397.809 334.383 398.278C334.016 398.747 333.576 399.202 333.063 399.642C332.564 400.082 332.029 400.522 331.457 400.962L328.531 403.228H335.923V406ZM343.504 406.264C341.451 406.264 339.933 405.567 338.95 404.174C337.982 402.781 337.498 400.83 337.498 398.322C337.498 395.814 337.982 393.863 338.95 392.47C339.933 391.077 341.451 390.38 343.504 390.38C345.558 390.38 347.068 391.077 348.036 392.47C349.019 393.863 349.51 395.814 349.51 398.322C349.51 400.83 349.019 402.781 348.036 404.174C347.068 405.567 345.558 406.264 343.504 406.264ZM343.504 403.668C344.487 403.668 345.169 403.323 345.55 402.634C345.946 401.945 346.144 400.984 346.144 399.752V396.892C346.144 395.66 345.946 394.699 345.55 394.01C345.169 393.321 344.487 392.976 343.504 392.976C342.522 392.976 341.832 393.321 341.436 394.01C341.055 394.699 340.864 395.66 340.864 396.892V399.752C340.864 400.984 341.055 401.945 341.436 402.634C341.832 403.323 342.522 403.668 343.504 403.668ZM343.504 399.62C342.991 399.62 342.632 399.517 342.426 399.312C342.236 399.107 342.14 398.857 342.14 398.564V398.08C342.14 397.787 342.236 397.537 342.426 397.332C342.632 397.127 342.991 397.024 343.504 397.024C344.018 397.024 344.37 397.127 344.56 397.332C344.766 397.537 344.868 397.787 344.868 398.08V398.564C344.868 398.857 344.766 399.107 344.56 399.312C344.37 399.517 344.018 399.62 343.504 399.62ZM356.696 406.264C354.642 406.264 353.124 405.567 352.142 404.174C351.174 402.781 350.69 400.83 350.69 398.322C350.69 395.814 351.174 393.863 352.142 392.47C353.124 391.077 354.642 390.38 356.696 390.38C358.749 390.38 360.26 391.077 361.228 392.47C362.21 393.863 362.702 395.814 362.702 398.322C362.702 400.83 362.21 402.781 361.228 404.174C360.26 405.567 358.749 406.264 356.696 406.264ZM356.696 403.668C357.678 403.668 358.36 403.323 358.742 402.634C359.138 401.945 359.336 400.984 359.336 399.752V396.892C359.336 395.66 359.138 394.699 358.742 394.01C358.36 393.321 357.678 392.976 356.696 392.976C355.713 392.976 355.024 393.321 354.628 394.01C354.246 394.699 354.056 395.66 354.056 396.892V399.752C354.056 400.984 354.246 401.945 354.628 402.634C355.024 403.323 355.713 403.668 356.696 403.668ZM356.696 399.62C356.182 399.62 355.823 399.517 355.618 399.312C355.427 399.107 355.332 398.857 355.332 398.564V398.08C355.332 397.787 355.427 397.537 355.618 397.332C355.823 397.127 356.182 397.024 356.696 397.024C357.209 397.024 357.561 397.127 357.752 397.332C357.957 397.537 358.06 397.787 358.06 398.08V398.564C358.06 398.857 357.957 399.107 357.752 399.312C357.561 399.517 357.209 399.62 356.696 399.62Z" fill="black"/>
<path d="M316.521 379.216C315.873 379.216 315.285 379.102 314.757 378.874C314.241 378.646 313.797 378.322 313.425 377.902C313.065 377.47 312.789 376.96 312.597 376.372C312.405 375.772 312.309 375.1 312.309 374.356C312.309 373.624 312.405 372.958 312.597 372.358C312.789 371.758 313.065 371.248 313.425 370.828C313.797 370.396 314.241 370.066 314.757 369.838C315.285 369.61 315.873 369.496 316.521 369.496C317.169 369.496 317.751 369.61 318.267 369.838C318.795 370.066 319.239 370.396 319.599 370.828C319.971 371.248 320.253 371.758 320.445 372.358C320.637 372.958 320.733 373.624 320.733 374.356C320.733 375.1 320.637 375.772 320.445 376.372C320.253 376.96 319.971 377.47 319.599 377.902C319.239 378.322 318.795 378.646 318.267 378.874C317.751 379.102 317.169 379.216 316.521 379.216ZM316.521 377.974C317.325 377.974 317.973 377.734 318.465 377.254C318.957 376.774 319.203 376.03 319.203 375.022V373.69C319.203 372.682 318.957 371.938 318.465 371.458C317.973 370.978 317.325 370.738 316.521 370.738C315.717 370.738 315.069 370.978 314.577 371.458C314.085 371.938 313.839 372.682 313.839 373.69V375.022C313.839 376.03 314.085 376.774 314.577 377.254C315.069 377.734 315.717 377.974 316.521 377.974ZM329.51 377.488H329.438C329.342 377.716 329.222 377.938 329.078 378.154C328.934 378.358 328.754 378.538 328.538 378.694C328.334 378.85 328.088 378.976 327.8 379.072C327.512 379.168 327.176 379.216 326.792 379.216C325.82 379.216 325.04 378.91 324.452 378.298C323.864 377.674 323.57 376.798 323.57 375.67V369.712H325.01V375.418C325.01 376.27 325.196 376.906 325.568 377.326C325.94 377.734 326.486 377.938 327.206 377.938C327.494 377.938 327.776 377.902 328.052 377.83C328.328 377.758 328.574 377.65 328.79 377.506C329.006 377.362 329.18 377.182 329.312 376.966C329.444 376.738 329.51 376.468 329.51 376.156V369.712H330.95V379H329.51V377.488ZM338.557 379C337.849 379 337.327 378.802 336.991 378.406C336.667 378.01 336.505 377.5 336.505 376.876V370.936H333.409V369.712H335.713C336.025 369.712 336.241 369.652 336.361 369.532C336.493 369.4 336.559 369.178 336.559 368.866V366.436H337.945V369.712H342.175V370.936H337.945V377.776H342.175V379H338.557ZM345.21 369.712H346.65V371.224H346.722C347.322 370.072 348.276 369.496 349.584 369.496C350.724 369.496 351.612 369.922 352.248 370.774C352.896 371.626 353.22 372.82 353.22 374.356C353.22 375.892 352.896 377.086 352.248 377.938C351.612 378.79 350.724 379.216 349.584 379.216C348.276 379.216 347.322 378.64 346.722 377.488H346.65V382.6H345.21V369.712ZM349.026 377.938C349.866 377.938 350.514 377.686 350.97 377.182C351.438 376.666 351.672 375.988 351.672 375.148V373.564C351.672 372.724 351.438 372.052 350.97 371.548C350.514 371.032 349.866 370.774 349.026 370.774C348.702 370.774 348.396 370.816 348.108 370.9C347.82 370.984 347.568 371.11 347.352 371.278C347.136 371.434 346.962 371.632 346.83 371.872C346.71 372.1 346.65 372.37 346.65 372.682V376.03C346.65 376.342 346.71 376.618 346.83 376.858C346.962 377.086 347.136 377.284 347.352 377.452C347.568 377.608 347.82 377.728 348.108 377.812C348.396 377.896 348.702 377.938 349.026 377.938ZM361.889 377.488H361.817C361.721 377.716 361.601 377.938 361.457 378.154C361.313 378.358 361.133 378.538 360.917 378.694C360.713 378.85 360.467 378.976 360.179 379.072C359.891 379.168 359.555 379.216 359.171 379.216C358.199 379.216 357.419 378.91 356.831 378.298C356.243 377.674 355.949 376.798 355.949 375.67V369.712H357.389V375.418C357.389 376.27 357.575 376.906 357.947 377.326C358.319 377.734 358.865 377.938 359.585 377.938C359.873 377.938 360.155 377.902 360.431 377.83C360.707 377.758 360.953 377.65 361.169 377.506C361.385 377.362 361.559 377.182 361.691 376.966C361.823 376.738 361.889 376.468 361.889 376.156V369.712H363.329V379H361.889V377.488ZM370.936 379C370.228 379 369.706 378.802 369.37 378.406C369.046 378.01 368.884 377.5 368.884 376.876V370.936H365.788V369.712H368.092C368.404 369.712 368.62 369.652 368.74 369.532C368.872 369.4 368.938 369.178 368.938 368.866V366.436H370.324V369.712H374.554V370.936H370.324V377.776H374.554V379H370.936Z" fill="black"/>
</svg>
