<svg width="372" height="249" viewBox="0 0 372 249" fill="none" xmlns="http://www.w3.org/2000/svg">
<path d="M193 52H372V5C372 2.23858 369.761 0 367 0H198C195.239 0 193 2.23858 193 5V52Z" fill="#40B3FF"/>
<path d="M193 52H372V244C372 246.761 369.761 249 367 249H198C195.239 249 193 246.761 193 244V52Z" fill="#40B3FF" fill-opacity="0.3"/>
<path d="M0 52H179V5C179 2.23858 176.761 0 174 0H5C2.23857 0 0 2.23858 0 5V52Z" fill="#FF3E00"/>
<path d="M0 52H179V244C179 246.761 176.761 249 174 249H5C2.23857 249 0 246.761 0 244V52Z" fill="#FF3E00" fill-opacity="0.2"/>
<path d="M44.4752 38.36C42.5952 38.36 41.0552 38.02 39.8552 37.34C38.6552 36.64 37.6652 35.75 36.8852 34.67L38.7152 33.17C39.5352 34.19 40.3952 34.95 41.2952 35.45C42.2152 35.95 43.3052 36.2 44.5652 36.2C46.0852 36.2 47.2452 35.85 48.0452 35.15C48.8452 34.45 49.2452 33.47 49.2452 32.21C49.2452 31.19 48.9552 30.4 48.3752 29.84C47.7952 29.26 46.7852 28.85 45.3452 28.61L43.0052 28.22C41.9852 28.04 41.1252 27.77 40.4252 27.41C39.7452 27.05 39.1952 26.62 38.7752 26.12C38.3552 25.6 38.0552 25.04 37.8752 24.44C37.6952 23.82 37.6052 23.18 37.6052 22.52C37.6052 20.6 38.2352 19.15 39.4952 18.17C40.7552 17.19 42.4552 16.7 44.5952 16.7C46.2752 16.7 47.6852 16.98 48.8252 17.54C49.9852 18.1 50.9152 18.89 51.6152 19.91L49.8452 21.44C49.2652 20.68 48.5652 20.06 47.7452 19.58C46.9252 19.1 45.8652 18.86 44.5652 18.86C43.1452 18.86 42.0552 19.16 41.2952 19.76C40.5352 20.36 40.1552 21.26 40.1552 22.46C40.1552 23.4 40.4352 24.17 40.9952 24.77C41.5752 25.35 42.6052 25.77 44.0852 26.03L46.3352 26.42C47.3552 26.6 48.2152 26.87 48.9152 27.23C49.6152 27.59 50.1752 28.02 50.5952 28.52C51.0352 29.02 51.3452 29.58 51.5252 30.2C51.7052 30.82 51.7952 31.47 51.7952 32.15C51.7952 34.09 51.1552 35.61 49.8752 36.71C48.6152 37.81 46.8152 38.36 44.4752 38.36ZM60.8134 38L54.6034 17.06H57.2734L60.2434 27.53L62.4934 35.45H62.6434L64.8934 27.53L67.8634 17.06H70.4434L64.2334 38H60.8134ZM74.2117 38V17.06H87.1117V19.25H76.7317V26.3H86.7517V28.49H76.7317V35.81H87.1117V38H74.2117ZM93.1 38V17.06H95.62V35.81H105.55V38H93.1ZM117.748 19.25V38H115.228V19.25H108.238V17.06H124.738V19.25H117.748ZM128.177 38V17.06H141.077V19.25H130.697V26.3H140.717V28.49H130.697V35.81H141.077V38H128.177Z" fill="black"/>
<path d="M267.362 17.06H273.212C275.772 17.06 277.682 17.94 278.942 19.7C280.202 21.46 280.832 24.07 280.832 27.53C280.832 30.99 280.202 33.6 278.942 35.36C277.682 37.12 275.772 38 273.212 38H267.362V17.06ZM273.092 35.81C274.772 35.81 276.032 35.23 276.872 34.07C277.732 32.91 278.162 31.27 278.162 29.15V25.91C278.162 23.79 277.732 22.15 276.872 20.99C276.032 19.83 274.772 19.25 273.092 19.25H269.882V35.81H273.092ZM290.6 25.94C292.06 25.94 293.15 25.62 293.87 24.98C294.61 24.32 294.98 23.48 294.98 22.46V22.25C294.98 21.13 294.62 20.29 293.9 19.73C293.2 19.17 292.28 18.89 291.14 18.89C290.02 18.89 289.11 19.14 288.41 19.64C287.73 20.12 287.17 20.76 286.73 21.56L284.84 20.12C285.1 19.7 285.42 19.29 285.8 18.89C286.18 18.47 286.62 18.1 287.12 17.78C287.64 17.46 288.23 17.2 288.89 17C289.57 16.8 290.34 16.7 291.2 16.7C292.1 16.7 292.94 16.82 293.72 17.06C294.5 17.28 295.18 17.62 295.76 18.08C296.34 18.52 296.79 19.07 297.11 19.73C297.45 20.39 297.62 21.14 297.62 21.98C297.62 22.66 297.51 23.27 297.29 23.81C297.09 24.35 296.8 24.82 296.42 25.22C296.06 25.62 295.63 25.96 295.13 26.24C294.63 26.52 294.1 26.73 293.54 26.87V26.99C294.12 27.11 294.68 27.31 295.22 27.59C295.76 27.85 296.24 28.2 296.66 28.64C297.08 29.06 297.41 29.58 297.65 30.2C297.91 30.8 298.04 31.49 298.04 32.27C298.04 33.17 297.86 34 297.5 34.76C297.16 35.5 296.67 36.14 296.03 36.68C295.41 37.2 294.65 37.61 293.75 37.91C292.87 38.21 291.89 38.36 290.81 38.36C289.89 38.36 289.07 38.26 288.35 38.06C287.65 37.86 287.02 37.59 286.46 37.25C285.92 36.91 285.44 36.53 285.02 36.11C284.62 35.69 284.26 35.25 283.94 34.79L285.83 33.35C286.11 33.77 286.4 34.15 286.7 34.49C287 34.83 287.34 35.13 287.72 35.39C288.12 35.63 288.57 35.82 289.07 35.96C289.57 36.1 290.15 36.17 290.81 36.17C292.29 36.17 293.42 35.83 294.2 35.15C295 34.47 295.4 33.5 295.4 32.24V32C295.4 30.76 295.01 29.8 294.23 29.12C293.47 28.44 292.32 28.1 290.78 28.1H288.29V25.94H290.6Z" fill="black"/>
<path d="M43.793 85.25C42.8086 85.25 41.9466 84.9896 41.207 84.4687C40.4674 83.9479 39.8893 83.2214 39.4727 82.2891C39.0612 81.3568 38.8555 80.2708 38.8555 79.0313C38.8555 77.7969 39.0612 76.7161 39.4727 75.7891C39.8893 74.8568 40.4701 74.1328 41.2148 73.6172C41.9596 73.0964 42.8268 72.8359 43.8164 72.8359C44.5456 72.8359 45.1523 72.9661 45.6367 73.2266C46.1211 73.4818 46.5091 73.7995 46.8008 74.1797C47.0924 74.5599 47.319 74.9297 47.4805 75.2891H47.6055V69H49.0039V85H47.6445V82.7734H47.4805C47.319 83.138 47.0898 83.513 46.793 83.8984C46.4961 84.2786 46.1029 84.599 45.6133 84.8594C45.1289 85.1198 44.5221 85.25 43.793 85.25ZM43.957 83.9766C44.7331 83.9766 45.3945 83.7656 45.9414 83.3437C46.4883 82.9167 46.9049 82.3307 47.1914 81.5859C47.4831 80.8359 47.6289 79.9766 47.6289 79.0078C47.6289 78.0495 47.4857 77.2031 47.1992 76.4687C46.9128 75.7292 46.4961 75.151 45.9492 74.7344C45.4023 74.3125 44.7383 74.1016 43.957 74.1016C43.1549 74.1016 42.4779 74.3203 41.9258 74.7578C41.3789 75.1901 40.9622 75.776 40.6758 76.5156C40.3945 77.2552 40.2539 78.0859 40.2539 79.0078C40.2539 79.9401 40.3971 80.7812 40.6836 81.5313C40.9701 82.2812 41.3867 82.8776 41.9336 83.3203C42.4857 83.7578 43.1602 83.9766 43.957 83.9766ZM57.6289 85.25C56.5924 85.25 55.6758 84.987 54.8789 84.4609C54.0872 83.9349 53.4674 83.2083 53.0195 82.2812C52.5716 81.349 52.3477 80.2734 52.3477 79.0547C52.3477 77.8255 52.5716 76.7448 53.0195 75.8125C53.4674 74.875 54.0872 74.1458 54.8789 73.625C55.6758 73.099 56.5924 72.8359 57.6289 72.8359C58.6654 72.8359 59.5794 73.099 60.3711 73.625C61.1628 74.151 61.7826 74.8802 62.2305 75.8125C62.6836 76.7448 62.9102 77.8255 62.9102 79.0547C62.9102 80.2734 62.6862 81.349 62.2383 82.2812C61.7904 83.2083 61.168 83.9349 60.3711 84.4609C59.5794 84.987 58.6654 85.25 57.6289 85.25ZM57.6289 83.9766C58.4622 83.9766 59.168 83.7526 59.7461 83.3047C60.3242 82.8568 60.7617 82.2604 61.0586 81.5156C61.3607 80.7708 61.5117 79.9505 61.5117 79.0547C61.5117 78.1589 61.3607 77.3359 61.0586 76.5859C60.7617 75.8359 60.3242 75.2344 59.7461 74.7812C59.168 74.3281 58.4622 74.1016 57.6289 74.1016C56.8008 74.1016 56.0951 74.3281 55.5117 74.7812C54.9336 75.2344 54.4935 75.8359 54.1914 76.5859C53.8945 77.3359 53.7461 78.1589 53.7461 79.0547C53.7461 79.9505 53.8945 80.7708 54.1914 81.5156C54.4935 82.2604 54.9336 82.8568 55.5117 83.3047C56.0898 83.7526 56.7956 83.9766 57.6289 83.9766ZM70.6504 85.25C69.5775 85.25 68.6426 84.9818 67.8457 84.4453C67.054 83.9089 66.4395 83.1745 66.002 82.2422C65.5645 81.3099 65.3457 80.2474 65.3457 79.0547C65.3457 77.8516 65.5671 76.7812 66.0098 75.8437C66.4577 74.9062 67.0775 74.1719 67.8691 73.6406C68.6608 73.1042 69.5801 72.8359 70.627 72.8359C71.429 72.8359 72.1556 72.9922 72.8066 73.3047C73.4577 73.612 73.9941 74.0469 74.416 74.6094C74.8431 75.1667 75.1113 75.8177 75.2207 76.5625H73.8145C73.6686 75.8854 73.3171 75.3073 72.7598 74.8281C72.2077 74.3437 71.5046 74.1016 70.6504 74.1016C69.8848 74.1016 69.2077 74.3099 68.6191 74.7266C68.0306 75.138 67.5697 75.7135 67.2363 76.4531C66.9082 77.1875 66.7441 78.0391 66.7441 79.0078C66.7441 79.9818 66.9056 80.8437 67.2285 81.5937C67.5514 82.3385 68.0046 82.9219 68.5879 83.3437C69.1764 83.7656 69.8639 83.9766 70.6504 83.9766C71.1816 83.9766 71.666 83.8776 72.1035 83.6797C72.5462 83.4766 72.916 83.1901 73.2129 82.8203C73.515 82.4505 73.7181 82.0104 73.8223 81.5H75.2285C75.1243 82.224 74.8665 82.8698 74.4551 83.4375C74.0488 84 73.5202 84.4427 72.8691 84.7656C72.2233 85.0885 71.4837 85.25 70.6504 85.25ZM85.834 80.4141V73H87.2246V85H85.834V83.0078H85.7246C85.4434 83.6224 84.998 84.1354 84.3887 84.5469C83.7793 84.9531 83.0345 85.1563 82.1543 85.1563C81.3887 85.1563 80.709 84.9896 80.1152 84.6562C79.5215 84.3177 79.0553 83.8229 78.7168 83.1719C78.3783 82.5208 78.209 81.7214 78.209 80.7734V73H79.5996V80.6875C79.5996 81.625 79.8757 82.3802 80.4277 82.9531C80.9798 83.5208 81.6882 83.8047 82.5527 83.8047C83.0944 83.8047 83.6152 83.6745 84.1152 83.4141C84.6152 83.1536 85.0267 82.7734 85.3496 82.2734C85.6725 81.7682 85.834 81.1484 85.834 80.4141ZM90.9063 85V73H92.2578V74.8437H92.3828C92.6224 74.224 93.0208 73.737 93.5781 73.3828C94.1406 73.0234 94.8151 72.8438 95.6016 72.8438C96.4297 72.8438 97.1094 73.0391 97.6406 73.4297C98.1771 73.8151 98.5781 74.3464 98.8438 75.0234H98.9453C99.2161 74.3568 99.6563 73.8281 100.266 73.4375C100.88 73.0417 101.625 72.8438 102.5 72.8438C103.615 72.8438 104.495 73.1953 105.141 73.8984C105.786 74.5964 106.109 75.6172 106.109 76.9609V85H104.719V76.9609C104.719 76.013 104.477 75.3021 103.992 74.8281C103.508 74.3542 102.87 74.1172 102.078 74.1172C101.161 74.1172 100.456 74.3984 99.9609 74.9609C99.4661 75.5234 99.2188 76.237 99.2188 77.1016V85H97.7969V76.8359C97.7969 76.0234 97.5703 75.3672 97.1172 74.8672C96.6641 74.3672 96.026 74.1172 95.2031 74.1172C94.651 74.1172 94.1536 74.2526 93.7109 74.5234C93.2734 74.7943 92.9271 75.1719 92.6719 75.6562C92.4219 76.1354 92.2969 76.6875 92.2969 77.3125V85H90.9063ZM114.643 85.25C113.523 85.25 112.554 84.9896 111.736 84.4687C110.919 83.9427 110.286 83.2161 109.838 82.2891C109.395 81.3568 109.174 80.2839 109.174 79.0703C109.174 77.862 109.395 76.7891 109.838 75.8516C110.286 74.9089 110.903 74.1719 111.689 73.6406C112.481 73.1042 113.395 72.8359 114.432 72.8359C115.083 72.8359 115.71 72.9557 116.314 73.1953C116.919 73.4297 117.46 73.7917 117.939 74.2812C118.424 74.7656 118.807 75.3776 119.088 76.1172C119.369 76.8516 119.51 77.7214 119.51 78.7266V79.4141H110.135V78.1875H118.088C118.088 77.4167 117.932 76.724 117.619 76.1094C117.312 75.4896 116.882 75 116.33 74.6406C115.783 74.2812 115.15 74.1016 114.432 74.1016C113.671 74.1016 113.002 74.3047 112.424 74.7109C111.846 75.1172 111.393 75.6536 111.064 76.3203C110.742 76.987 110.577 77.7161 110.572 78.5078V79.2422C110.572 80.1953 110.736 81.0286 111.064 81.7422C111.398 82.4505 111.869 83 112.479 83.3906C113.088 83.7812 113.809 83.9766 114.643 83.9766C115.21 83.9766 115.708 83.888 116.135 83.7109C116.567 83.5339 116.929 83.2969 117.221 83C117.518 82.6979 117.742 82.3672 117.893 82.0078L119.213 82.4375C119.031 82.9427 118.731 83.4089 118.314 83.8359C117.903 84.263 117.387 84.6068 116.768 84.8672C116.153 85.1224 115.445 85.25 114.643 85.25ZM123.965 77.5V85H122.574V73H123.926V74.8828H124.051C124.332 74.2682 124.77 73.776 125.363 73.4063C125.962 73.0313 126.702 72.8438 127.582 72.8438C128.389 72.8438 129.098 73.013 129.707 73.3516C130.322 73.6849 130.798 74.1771 131.137 74.8281C131.48 75.4792 131.652 76.2786 131.652 77.2266V85H130.262V77.3125C130.262 76.3281 129.986 75.5495 129.434 74.9766C128.887 74.4036 128.152 74.1172 127.23 74.1172C126.6 74.1172 126.04 74.2526 125.551 74.5234C125.061 74.7943 124.673 75.1849 124.387 75.6953C124.105 76.2005 123.965 76.8021 123.965 77.5ZM140.041 73V74.2109H134.314V73H140.041ZM136.104 70.125H137.502V81.8672C137.502 82.3672 137.588 82.7604 137.76 83.0469C137.932 83.3281 138.156 83.5286 138.432 83.6484C138.708 83.763 139.002 83.8203 139.314 83.8203C139.497 83.8203 139.653 83.8099 139.783 83.7891C139.913 83.763 140.028 83.737 140.127 83.7109L140.424 84.9687C140.288 85.0208 140.122 85.0677 139.924 85.1094C139.726 85.1563 139.481 85.1797 139.189 85.1797C138.679 85.1797 138.187 85.0677 137.713 84.8437C137.244 84.6198 136.859 84.2865 136.557 83.8437C136.255 83.401 136.104 82.8516 136.104 82.1953V70.125ZM25.8945 112V100H27.2461V101.844H27.3711C27.6107 101.224 28.0091 100.737 28.5664 100.383C29.1289 100.023 29.8034 99.8438 30.5898 99.8438C31.418 99.8438 32.0977 100.039 32.6289 100.43C33.1654 100.815 33.5664 101.346 33.832 102.023H33.9336C34.2044 101.357 34.6445 100.828 35.2539 100.437C35.8685 100.042 36.6133 99.8438 37.4883 99.8438C38.6029 99.8438 39.4831 100.195 40.1289 100.898C40.7747 101.596 41.0977 102.617 41.0977 103.961V112H39.707V103.961C39.707 103.013 39.4648 102.302 38.9805 101.828C38.4961 101.354 37.8581 101.117 37.0664 101.117C36.1497 101.117 35.444 101.398 34.9492 101.961C34.4544 102.523 34.207 103.237 34.207 104.102V112H32.7852V103.836C32.7852 103.023 32.5586 102.367 32.1055 101.867C31.6523 101.367 31.0143 101.117 30.1914 101.117C29.6393 101.117 29.1419 101.253 28.6992 101.523C28.2617 101.794 27.9154 102.172 27.6602 102.656C27.4102 103.135 27.2852 103.687 27.2852 104.312V112H25.8945ZM48.1309 112.273C47.4069 112.273 46.7454 112.133 46.1465 111.852C45.5475 111.565 45.071 111.154 44.7168 110.617C44.3626 110.076 44.1855 109.419 44.1855 108.648C44.1855 108.055 44.2975 107.555 44.5215 107.148C44.7454 106.742 45.0632 106.409 45.4746 106.148C45.8861 105.888 46.373 105.682 46.9355 105.531C47.498 105.38 48.1178 105.263 48.7949 105.18C49.4668 105.096 50.0345 105.023 50.498 104.961C50.9668 104.898 51.3236 104.799 51.5684 104.664C51.8132 104.529 51.9355 104.31 51.9355 104.008V103.727C51.9355 102.909 51.6908 102.266 51.2012 101.797C50.7168 101.323 50.0189 101.086 49.1074 101.086C48.2428 101.086 47.5371 101.276 46.9902 101.656C46.4486 102.036 46.0684 102.484 45.8496 103L44.5293 102.523C44.8001 101.867 45.1751 101.344 45.6543 100.953C46.1335 100.557 46.6699 100.273 47.2637 100.102C47.8574 99.9245 48.459 99.8359 49.0684 99.8359C49.5267 99.8359 50.0033 99.8958 50.498 100.016C50.998 100.135 51.4616 100.344 51.8887 100.641C52.3158 100.932 52.6621 101.341 52.9277 101.867C53.1934 102.388 53.3262 103.049 53.3262 103.852V112H51.9355V110.102H51.8496C51.6829 110.456 51.4355 110.799 51.1074 111.133C50.7793 111.466 50.3678 111.74 49.873 111.953C49.3783 112.167 48.7975 112.273 48.1309 112.273ZM48.3184 111C49.0579 111 49.6986 110.836 50.2402 110.508C50.7819 110.18 51.1986 109.745 51.4902 109.203C51.7871 108.656 51.9355 108.055 51.9355 107.398V105.664C51.8314 105.763 51.6569 105.852 51.4121 105.93C51.1725 106.008 50.8939 106.078 50.5762 106.141C50.2637 106.198 49.9512 106.247 49.6387 106.289C49.3262 106.331 49.0449 106.367 48.7949 106.398C48.1178 106.482 47.5397 106.612 47.0605 106.789C46.5814 106.966 46.2142 107.211 45.959 107.523C45.7038 107.831 45.5762 108.227 45.5762 108.711C45.5762 109.44 45.8366 110.005 46.3574 110.406C46.8783 110.802 47.5319 111 48.3184 111ZM58.416 104.5V112H57.0254V100H58.377V101.883H58.502C58.7832 101.268 59.2207 100.776 59.8145 100.406C60.4134 100.031 61.153 99.8438 62.0332 99.8438C62.8405 99.8438 63.5488 100.013 64.1582 100.352C64.7728 100.685 65.2493 101.177 65.5879 101.828C65.9316 102.479 66.1035 103.279 66.1035 104.227V112H64.7129V104.312C64.7129 103.328 64.4368 102.549 63.8848 101.977C63.3379 101.404 62.6035 101.117 61.6816 101.117C61.0514 101.117 60.4915 101.253 60.002 101.523C59.5124 101.794 59.1243 102.185 58.8379 102.695C58.5566 103.201 58.416 103.802 58.416 104.5ZM69.7813 112V100H71.1797V112H69.7813ZM70.4922 97.9375C70.2057 97.9375 69.9609 97.8411 69.7578 97.6484C69.5547 97.4505 69.4531 97.2135 69.4531 96.9375C69.4531 96.6615 69.5547 96.4271 69.7578 96.2344C69.9609 96.0365 70.2057 95.9375 70.4922 95.9375C70.7786 95.9375 71.0234 96.0365 71.2266 96.2344C71.4297 96.4271 71.5313 96.6615 71.5313 96.9375C71.5313 97.2135 71.4297 97.4505 71.2266 97.6484C71.0234 97.8411 70.7786 97.9375 70.4922 97.9375ZM74.8574 116.5V100H76.209V102.289H76.373C76.5397 101.93 76.7689 101.562 77.0605 101.187C77.3522 100.807 77.7376 100.487 78.2168 100.227C78.7012 99.9661 79.3105 99.8359 80.0449 99.8359C81.0345 99.8359 81.8991 100.096 82.6387 100.617C83.3835 101.133 83.9616 101.857 84.373 102.789C84.7897 103.716 84.998 104.797 84.998 106.031C84.998 107.271 84.7897 108.357 84.373 109.289C83.9616 110.221 83.3835 110.948 82.6387 111.469C81.8991 111.99 81.0397 112.25 80.0605 112.25C79.3366 112.25 78.7298 112.12 78.2402 111.859C77.7559 111.599 77.3626 111.279 77.0605 110.898C76.7637 110.513 76.5345 110.138 76.373 109.773H76.248V116.5H74.8574ZM76.2324 106.008C76.2324 106.977 76.3757 107.836 76.6621 108.586C76.9538 109.331 77.3704 109.917 77.9121 110.344C78.459 110.766 79.1204 110.977 79.8965 110.977C80.6934 110.977 81.3652 110.758 81.9121 110.32C82.4642 109.878 82.8835 109.281 83.1699 108.531C83.4616 107.781 83.6074 106.94 83.6074 106.008C83.6074 105.086 83.4642 104.255 83.1777 103.516C82.8965 102.776 82.4798 102.19 81.9277 101.758C81.3757 101.32 80.6986 101.102 79.8965 101.102C79.1152 101.102 78.4512 101.312 77.9043 101.734C77.3574 102.151 76.9408 102.729 76.6543 103.469C76.373 104.203 76.2324 105.049 76.2324 106.008ZM95.6738 107.414V100H97.0645V112H95.6738V110.008H95.5645C95.2832 110.622 94.8379 111.135 94.2285 111.547C93.6191 111.953 92.8743 112.156 91.9941 112.156C91.2285 112.156 90.5488 111.99 89.9551 111.656C89.3613 111.318 88.8952 110.823 88.5566 110.172C88.2181 109.521 88.0488 108.721 88.0488 107.773V100H89.4395V107.687C89.4395 108.625 89.7155 109.38 90.2676 109.953C90.8197 110.521 91.528 110.805 92.3926 110.805C92.9342 110.805 93.4551 110.674 93.9551 110.414C94.4551 110.154 94.8665 109.773 95.1895 109.273C95.5124 108.768 95.6738 108.148 95.6738 107.414ZM102.137 96V112H100.746V96H102.137ZM109.168 112.273C108.444 112.273 107.783 112.133 107.184 111.852C106.585 111.565 106.108 111.154 105.754 110.617C105.4 110.076 105.223 109.419 105.223 108.648C105.223 108.055 105.335 107.555 105.559 107.148C105.783 106.742 106.1 106.409 106.512 106.148C106.923 105.888 107.41 105.682 107.973 105.531C108.535 105.38 109.155 105.263 109.832 105.18C110.504 105.096 111.072 105.023 111.535 104.961C112.004 104.898 112.361 104.799 112.605 104.664C112.85 104.529 112.973 104.31 112.973 104.008V103.727C112.973 102.909 112.728 102.266 112.238 101.797C111.754 101.323 111.056 101.086 110.145 101.086C109.28 101.086 108.574 101.276 108.027 101.656C107.486 102.036 107.105 102.484 106.887 103L105.566 102.523C105.837 101.867 106.212 101.344 106.691 100.953C107.171 100.557 107.707 100.273 108.301 100.102C108.895 99.9245 109.496 99.8359 110.105 99.8359C110.564 99.8359 111.04 99.8958 111.535 100.016C112.035 100.135 112.499 100.344 112.926 100.641C113.353 100.932 113.699 101.341 113.965 101.867C114.23 102.388 114.363 103.049 114.363 103.852V112H112.973V110.102H112.887C112.72 110.456 112.473 110.799 112.145 111.133C111.816 111.466 111.405 111.74 110.91 111.953C110.415 112.167 109.835 112.273 109.168 112.273ZM109.355 111C110.095 111 110.736 110.836 111.277 110.508C111.819 110.18 112.236 109.745 112.527 109.203C112.824 108.656 112.973 108.055 112.973 107.398V105.664C112.868 105.763 112.694 105.852 112.449 105.93C112.21 106.008 111.931 106.078 111.613 106.141C111.301 106.198 110.988 106.247 110.676 106.289C110.363 106.331 110.082 106.367 109.832 106.398C109.155 106.482 108.577 106.612 108.098 106.789C107.618 106.966 107.251 107.211 106.996 107.523C106.741 107.831 106.613 108.227 106.613 108.711C106.613 109.44 106.874 110.005 107.395 110.406C107.915 110.802 108.569 111 109.355 111ZM122.789 100V101.211H117.063V100H122.789ZM118.852 97.125H120.25V108.867C120.25 109.367 120.336 109.76 120.508 110.047C120.68 110.328 120.904 110.529 121.18 110.648C121.456 110.763 121.75 110.82 122.063 110.82C122.245 110.82 122.401 110.81 122.531 110.789C122.661 110.763 122.776 110.737 122.875 110.711L123.172 111.969C123.036 112.021 122.87 112.068 122.672 112.109C122.474 112.156 122.229 112.18 121.937 112.18C121.427 112.18 120.935 112.068 120.461 111.844C119.992 111.62 119.607 111.286 119.305 110.844C119.003 110.401 118.852 109.852 118.852 109.195V97.125ZM125.963 112V100H127.361V112H125.963ZM126.674 97.9375C126.387 97.9375 126.143 97.8411 125.939 97.6484C125.736 97.4505 125.635 97.2135 125.635 96.9375C125.635 96.6615 125.736 96.4271 125.939 96.2344C126.143 96.0365 126.387 95.9375 126.674 95.9375C126.96 95.9375 127.205 96.0365 127.408 96.2344C127.611 96.4271 127.713 96.6615 127.713 96.9375C127.713 97.2135 127.611 97.4505 127.408 97.6484C127.205 97.8411 126.96 97.9375 126.674 97.9375ZM135.703 112.25C134.667 112.25 133.75 111.987 132.953 111.461C132.161 110.935 131.542 110.208 131.094 109.281C130.646 108.349 130.422 107.273 130.422 106.055C130.422 104.826 130.646 103.745 131.094 102.812C131.542 101.875 132.161 101.146 132.953 100.625C133.75 100.099 134.667 99.8359 135.703 99.8359C136.74 99.8359 137.654 100.099 138.445 100.625C139.237 101.151 139.857 101.88 140.305 102.812C140.758 103.745 140.984 104.826 140.984 106.055C140.984 107.273 140.76 108.349 140.313 109.281C139.865 110.208 139.242 110.935 138.445 111.461C137.654 111.987 136.74 112.25 135.703 112.25ZM135.703 110.977C136.536 110.977 137.242 110.753 137.82 110.305C138.398 109.857 138.836 109.26 139.133 108.516C139.435 107.771 139.586 106.951 139.586 106.055C139.586 105.159 139.435 104.336 139.133 103.586C138.836 102.836 138.398 102.234 137.82 101.781C137.242 101.328 136.536 101.102 135.703 101.102C134.875 101.102 134.169 101.328 133.586 101.781C133.008 102.234 132.568 102.836 132.266 103.586C131.969 104.336 131.82 105.159 131.82 106.055C131.82 106.951 131.969 107.771 132.266 108.516C132.568 109.26 133.008 109.857 133.586 110.305C134.164 110.753 134.87 110.977 135.703 110.977ZM145.428 104.5V112H144.037V100H145.389V101.883H145.514C145.795 101.268 146.232 100.776 146.826 100.406C147.425 100.031 148.165 99.8438 149.045 99.8438C149.852 99.8438 150.561 100.013 151.17 100.352C151.785 100.685 152.261 101.177 152.6 101.828C152.943 102.479 153.115 103.279 153.115 104.227V112H151.725V104.312C151.725 103.328 151.449 102.549 150.896 101.977C150.35 101.404 149.615 101.117 148.693 101.117C148.063 101.117 147.503 101.253 147.014 101.523C146.524 101.794 146.136 102.185 145.85 102.695C145.568 103.201 145.428 103.802 145.428 104.5Z" fill="black"/>
<path d="M42.5234 152V153.211H36.7969V152H42.5234ZM38.5859 149.125H39.9844V160.867C39.9844 161.367 40.0703 161.76 40.2422 162.047C40.4141 162.328 40.638 162.529 40.9141 162.648C41.1901 162.763 41.4844 162.82 41.7969 162.82C41.9792 162.82 42.1354 162.81 42.2656 162.789C42.3958 162.763 42.5104 162.737 42.6094 162.711L42.9063 163.969C42.7708 164.021 42.6042 164.068 42.4062 164.109C42.2083 164.156 41.9635 164.18 41.6719 164.18C41.1615 164.18 40.6693 164.068 40.1953 163.844C39.7266 163.62 39.3411 163.286 39.0391 162.844C38.737 162.401 38.5859 161.852 38.5859 161.195V149.125ZM45.6816 164V152H47.0332V153.844H47.1348C47.3743 153.24 47.791 152.753 48.3848 152.383C48.9837 152.008 49.6608 151.82 50.416 151.82C50.5306 151.82 50.6582 151.823 50.7988 151.828C50.9395 151.833 51.0566 151.839 51.1504 151.844V153.258C51.0879 153.247 50.9785 153.232 50.8223 153.211C50.666 153.19 50.4967 153.18 50.3145 153.18C49.6895 153.18 49.1322 153.312 48.6426 153.578C48.1582 153.839 47.7754 154.201 47.4941 154.664C47.2129 155.128 47.0723 155.656 47.0723 156.25V164H45.6816ZM56.875 164.273C56.151 164.273 55.4896 164.133 54.8906 163.852C54.2917 163.565 53.8151 163.154 53.4609 162.617C53.1068 162.076 52.9297 161.419 52.9297 160.648C52.9297 160.055 53.0417 159.555 53.2656 159.148C53.4896 158.742 53.8073 158.409 54.2188 158.148C54.6302 157.888 55.1172 157.682 55.6797 157.531C56.2422 157.38 56.862 157.263 57.5391 157.18C58.2109 157.096 58.7786 157.023 59.2422 156.961C59.7109 156.898 60.0677 156.799 60.3125 156.664C60.5573 156.529 60.6797 156.31 60.6797 156.008V155.727C60.6797 154.909 60.4349 154.266 59.9453 153.797C59.4609 153.323 58.763 153.086 57.8516 153.086C56.987 153.086 56.2813 153.276 55.7344 153.656C55.1927 154.036 54.8125 154.484 54.5938 155L53.2734 154.523C53.5443 153.867 53.9193 153.344 54.3984 152.953C54.8776 152.557 55.4141 152.273 56.0078 152.102C56.6016 151.924 57.2031 151.836 57.8125 151.836C58.2708 151.836 58.7474 151.896 59.2422 152.016C59.7422 152.135 60.2057 152.344 60.6328 152.641C61.0599 152.932 61.4063 153.341 61.6719 153.867C61.9375 154.388 62.0703 155.049 62.0703 155.852V164H60.6797V162.102H60.5938C60.4271 162.456 60.1797 162.799 59.8516 163.133C59.5234 163.466 59.112 163.74 58.6172 163.953C58.1224 164.167 57.5417 164.273 56.875 164.273ZM57.0625 163C57.8021 163 58.4427 162.836 58.9844 162.508C59.526 162.18 59.9427 161.745 60.2344 161.203C60.5313 160.656 60.6797 160.055 60.6797 159.398V157.664C60.5755 157.763 60.401 157.852 60.1563 157.93C59.9167 158.008 59.638 158.078 59.3203 158.141C59.0078 158.198 58.6953 158.247 58.3828 158.289C58.0703 158.331 57.7891 158.367 57.5391 158.398C56.862 158.482 56.2839 158.612 55.8047 158.789C55.3255 158.966 54.9583 159.211 54.7031 159.523C54.4479 159.831 54.3203 160.227 54.3203 160.711C54.3203 161.44 54.5807 162.005 55.1016 162.406C55.6224 162.802 56.276 163 57.0625 163ZM67.1602 156.5V164H65.7695V152H67.1211V153.883H67.2461C67.5273 153.268 67.9648 152.776 68.5586 152.406C69.1576 152.031 69.8971 151.844 70.7773 151.844C71.5846 151.844 72.293 152.013 72.9023 152.352C73.5169 152.685 73.9935 153.177 74.332 153.828C74.6758 154.479 74.8477 155.279 74.8477 156.227V164H73.457V156.312C73.457 155.328 73.181 154.549 72.6289 153.977C72.082 153.404 71.3477 153.117 70.4258 153.117C69.7956 153.117 69.2357 153.253 68.7461 153.523C68.2565 153.794 67.8685 154.185 67.582 154.695C67.3008 155.201 67.1602 155.802 67.1602 156.5ZM86.5723 154.633L85.2988 154.992C85.1738 154.633 84.9967 154.307 84.7676 154.016C84.5384 153.724 84.2389 153.492 83.8691 153.32C83.5046 153.148 83.0514 153.062 82.5098 153.062C81.6973 153.062 81.0306 153.255 80.5098 153.641C79.9889 154.026 79.7285 154.523 79.7285 155.133C79.7285 155.648 79.9056 156.068 80.2598 156.391C80.6191 156.708 81.1712 156.961 81.916 157.148L83.7285 157.594C84.7337 157.839 85.4863 158.227 85.9863 158.758C86.4915 159.289 86.7441 159.956 86.7441 160.758C86.7441 161.435 86.5566 162.036 86.1816 162.562C85.8066 163.089 85.2832 163.503 84.6113 163.805C83.9447 164.102 83.1712 164.25 82.291 164.25C81.1191 164.25 80.153 163.987 79.3926 163.461C78.6322 162.93 78.1452 162.164 77.9316 161.164L79.2676 160.836C79.4395 161.549 79.7754 162.089 80.2754 162.453C80.7806 162.818 81.4447 163 82.2676 163C83.1895 163 83.9264 162.794 84.4785 162.383C85.0306 161.966 85.3066 161.445 85.3066 160.82C85.3066 160.336 85.1452 159.93 84.8223 159.602C84.4993 159.268 84.0098 159.023 83.3535 158.867L81.3926 158.398C80.3509 158.148 79.5801 157.753 79.0801 157.211C78.5801 156.669 78.3301 155.997 78.3301 155.195C78.3301 154.534 78.5098 153.953 78.8691 153.453C79.2285 152.948 79.7233 152.552 80.3535 152.266C80.9837 151.979 81.7025 151.836 82.5098 151.836C83.6087 151.836 84.4863 152.086 85.1426 152.586C85.804 153.081 86.2806 153.763 86.5723 154.633ZM89.8047 164V152H91.2031V164H89.8047ZM90.5156 149.937C90.2292 149.937 89.9844 149.841 89.7813 149.648C89.5781 149.451 89.4766 149.214 89.4766 148.937C89.4766 148.661 89.5781 148.427 89.7813 148.234C89.9844 148.036 90.2292 147.937 90.5156 147.937C90.8021 147.937 91.0469 148.036 91.25 148.234C91.4531 148.427 91.5547 148.661 91.5547 148.937C91.5547 149.214 91.4531 149.451 91.25 149.648C91.0469 149.841 90.8021 149.937 90.5156 149.937ZM99.6074 152V153.211H93.8809V152H99.6074ZM95.6699 149.125H97.0684V160.867C97.0684 161.367 97.1543 161.76 97.3262 162.047C97.498 162.328 97.722 162.529 97.998 162.648C98.2741 162.763 98.5684 162.82 98.8809 162.82C99.0632 162.82 99.2194 162.81 99.3496 162.789C99.4798 162.763 99.5944 162.737 99.6934 162.711L99.9902 163.969C99.8548 164.021 99.6882 164.068 99.4902 164.109C99.2923 164.156 99.0475 164.18 98.7559 164.18C98.2454 164.18 97.7533 164.068 97.2793 163.844C96.8105 163.62 96.4251 163.286 96.123 162.844C95.821 162.401 95.6699 161.852 95.6699 161.195V149.125ZM102.781 164V152H104.18V164H102.781ZM103.492 149.937C103.206 149.937 102.961 149.841 102.758 149.648C102.555 149.451 102.453 149.214 102.453 148.937C102.453 148.661 102.555 148.427 102.758 148.234C102.961 148.036 103.206 147.937 103.492 147.937C103.779 147.937 104.023 148.036 104.227 148.234C104.43 148.427 104.531 148.661 104.531 148.937C104.531 149.214 104.43 149.451 104.227 149.648C104.023 149.841 103.779 149.937 103.492 149.937ZM112.521 164.25C111.485 164.25 110.568 163.987 109.771 163.461C108.98 162.935 108.36 162.208 107.912 161.281C107.464 160.349 107.24 159.273 107.24 158.055C107.24 156.826 107.464 155.745 107.912 154.812C108.36 153.875 108.98 153.146 109.771 152.625C110.568 152.099 111.485 151.836 112.521 151.836C113.558 151.836 114.472 152.099 115.264 152.625C116.055 153.151 116.675 153.88 117.123 154.812C117.576 155.745 117.803 156.826 117.803 158.055C117.803 159.273 117.579 160.349 117.131 161.281C116.683 162.208 116.061 162.935 115.264 163.461C114.472 163.987 113.558 164.25 112.521 164.25ZM112.521 162.977C113.355 162.977 114.061 162.753 114.639 162.305C115.217 161.857 115.654 161.26 115.951 160.516C116.253 159.771 116.404 158.951 116.404 158.055C116.404 157.159 116.253 156.336 115.951 155.586C115.654 154.836 115.217 154.234 114.639 153.781C114.061 153.328 113.355 153.102 112.521 153.102C111.693 153.102 110.988 153.328 110.404 153.781C109.826 154.234 109.386 154.836 109.084 155.586C108.787 156.336 108.639 157.159 108.639 158.055C108.639 158.951 108.787 159.771 109.084 160.516C109.386 161.26 109.826 161.857 110.404 162.305C110.982 162.753 111.688 162.977 112.521 162.977ZM122.246 156.5V164H120.855V152H122.207V153.883H122.332C122.613 153.268 123.051 152.776 123.645 152.406C124.243 152.031 124.983 151.844 125.863 151.844C126.671 151.844 127.379 152.013 127.988 152.352C128.603 152.685 129.079 153.177 129.418 153.828C129.762 154.479 129.934 155.279 129.934 156.227V164H128.543V156.312C128.543 155.328 128.267 154.549 127.715 153.977C127.168 153.404 126.434 153.117 125.512 153.117C124.882 153.117 124.322 153.253 123.832 153.523C123.342 153.794 122.954 154.185 122.668 154.695C122.387 155.201 122.246 155.802 122.246 156.5ZM141.658 154.633L140.385 154.992C140.26 154.633 140.083 154.307 139.854 154.016C139.624 153.724 139.325 153.492 138.955 153.32C138.59 153.148 138.137 153.062 137.596 153.062C136.783 153.062 136.117 153.255 135.596 153.641C135.075 154.026 134.814 154.523 134.814 155.133C134.814 155.648 134.992 156.068 135.346 156.391C135.705 156.708 136.257 156.961 137.002 157.148L138.814 157.594C139.82 157.839 140.572 158.227 141.072 158.758C141.577 159.289 141.83 159.956 141.83 160.758C141.83 161.435 141.643 162.036 141.268 162.562C140.893 163.089 140.369 163.503 139.697 163.805C139.031 164.102 138.257 164.25 137.377 164.25C136.205 164.25 135.239 163.987 134.479 163.461C133.718 162.93 133.231 162.164 133.018 161.164L134.354 160.836C134.525 161.549 134.861 162.089 135.361 162.453C135.867 162.818 136.531 163 137.354 163C138.275 163 139.012 162.794 139.564 162.383C140.117 161.966 140.393 161.445 140.393 160.82C140.393 160.336 140.231 159.93 139.908 159.602C139.585 159.268 139.096 159.023 138.439 158.867L136.479 158.398C135.437 158.148 134.666 157.753 134.166 157.211C133.666 156.669 133.416 155.997 133.416 155.195C133.416 154.534 133.596 153.953 133.955 153.453C134.314 152.948 134.809 152.552 135.439 152.266C136.07 151.979 136.788 151.836 137.596 151.836C138.695 151.836 139.572 152.086 140.229 152.586C140.89 153.081 141.367 153.763 141.658 154.633Z" fill="black"/>
<path d="M259.946 154.633L258.673 154.992C258.548 154.633 258.371 154.307 258.142 154.016C257.912 153.724 257.613 153.492 257.243 153.32C256.879 153.148 256.425 153.062 255.884 153.062C255.071 153.062 254.405 153.255 253.884 153.641C253.363 154.026 253.103 154.523 253.103 155.133C253.103 155.648 253.28 156.068 253.634 156.391C253.993 156.708 254.545 156.961 255.29 157.148L257.103 157.594C258.108 157.839 258.86 158.227 259.36 158.758C259.866 159.289 260.118 159.956 260.118 160.758C260.118 161.435 259.931 162.036 259.556 162.562C259.181 163.089 258.657 163.503 257.985 163.805C257.319 164.102 256.545 164.25 255.665 164.25C254.493 164.25 253.527 163.987 252.767 163.461C252.006 162.93 251.519 162.164 251.306 161.164L252.642 160.836C252.813 161.549 253.149 162.089 253.649 162.453C254.155 162.818 254.819 163 255.642 163C256.563 163 257.3 162.794 257.853 162.383C258.405 161.966 258.681 161.445 258.681 160.82C258.681 160.336 258.519 159.93 258.196 159.602C257.873 159.268 257.384 159.023 256.728 158.867L254.767 158.398C253.725 158.148 252.954 157.753 252.454 157.211C251.954 156.669 251.704 155.997 251.704 155.195C251.704 154.534 251.884 153.953 252.243 153.453C252.603 152.948 253.097 152.552 253.728 152.266C254.358 151.979 255.076 151.836 255.884 151.836C256.983 151.836 257.86 152.086 258.517 152.586C259.178 153.081 259.655 153.763 259.946 154.633ZM267.851 164.25C266.778 164.25 265.843 163.982 265.046 163.445C264.254 162.909 263.64 162.174 263.202 161.242C262.765 160.31 262.546 159.247 262.546 158.055C262.546 156.852 262.767 155.781 263.21 154.844C263.658 153.906 264.278 153.172 265.069 152.641C265.861 152.104 266.78 151.836 267.827 151.836C268.629 151.836 269.356 151.992 270.007 152.305C270.658 152.612 271.194 153.047 271.616 153.609C272.043 154.167 272.312 154.818 272.421 155.562H271.015C270.869 154.885 270.517 154.307 269.96 153.828C269.408 153.344 268.705 153.102 267.851 153.102C267.085 153.102 266.408 153.31 265.819 153.727C265.231 154.138 264.77 154.714 264.437 155.453C264.108 156.187 263.944 157.039 263.944 158.008C263.944 158.982 264.106 159.844 264.429 160.594C264.752 161.339 265.205 161.922 265.788 162.344C266.377 162.766 267.064 162.977 267.851 162.977C268.382 162.977 268.866 162.878 269.304 162.68C269.746 162.477 270.116 162.19 270.413 161.82C270.715 161.451 270.918 161.01 271.022 160.5H272.429C272.325 161.224 272.067 161.87 271.655 162.438C271.249 163 270.72 163.443 270.069 163.766C269.424 164.089 268.684 164.25 267.851 164.25ZM278.761 164.273C278.037 164.273 277.375 164.133 276.776 163.852C276.177 163.565 275.701 163.154 275.347 162.617C274.993 162.076 274.815 161.419 274.815 160.648C274.815 160.055 274.927 159.555 275.151 159.148C275.375 158.742 275.693 158.409 276.104 158.148C276.516 157.888 277.003 157.682 277.565 157.531C278.128 157.38 278.748 157.263 279.425 157.18C280.097 157.096 280.664 157.023 281.128 156.961C281.597 156.898 281.953 156.799 282.198 156.664C282.443 156.529 282.565 156.31 282.565 156.008V155.727C282.565 154.909 282.321 154.266 281.831 153.797C281.347 153.323 280.649 153.086 279.737 153.086C278.873 153.086 278.167 153.276 277.62 153.656C277.078 154.036 276.698 154.484 276.479 155L275.159 154.523C275.43 153.867 275.805 153.344 276.284 152.953C276.763 152.557 277.3 152.273 277.894 152.102C278.487 151.924 279.089 151.836 279.698 151.836C280.157 151.836 280.633 151.896 281.128 152.016C281.628 152.135 282.091 152.344 282.519 152.641C282.946 152.932 283.292 153.341 283.558 153.867C283.823 154.388 283.956 155.049 283.956 155.852V164H282.565V162.102H282.479C282.313 162.456 282.065 162.799 281.737 163.133C281.409 163.466 280.998 163.74 280.503 163.953C280.008 164.167 279.427 164.273 278.761 164.273ZM278.948 163C279.688 163 280.328 162.836 280.87 162.508C281.412 162.18 281.828 161.745 282.12 161.203C282.417 160.656 282.565 160.055 282.565 159.398V157.664C282.461 157.763 282.287 157.852 282.042 157.93C281.802 158.008 281.524 158.078 281.206 158.141C280.894 158.198 280.581 158.247 280.269 158.289C279.956 158.331 279.675 158.367 279.425 158.398C278.748 158.482 278.17 158.612 277.69 158.789C277.211 158.966 276.844 159.211 276.589 159.523C276.334 159.831 276.206 160.227 276.206 160.711C276.206 161.44 276.466 162.005 276.987 162.406C277.508 162.802 278.162 163 278.948 163ZM289.046 148V164H287.655V148H289.046ZM297.577 164.25C296.457 164.25 295.489 163.99 294.671 163.469C293.853 162.943 293.22 162.216 292.772 161.289C292.33 160.357 292.108 159.284 292.108 158.07C292.108 156.862 292.33 155.789 292.772 154.852C293.22 153.909 293.838 153.172 294.624 152.641C295.416 152.104 296.33 151.836 297.366 151.836C298.017 151.836 298.645 151.956 299.249 152.195C299.853 152.43 300.395 152.792 300.874 153.281C301.358 153.766 301.741 154.378 302.022 155.117C302.304 155.852 302.444 156.721 302.444 157.727V158.414H293.069V157.187H301.022C301.022 156.417 300.866 155.724 300.554 155.109C300.246 154.49 299.817 154 299.265 153.641C298.718 153.281 298.085 153.102 297.366 153.102C296.606 153.102 295.937 153.305 295.358 153.711C294.78 154.117 294.327 154.654 293.999 155.32C293.676 155.987 293.512 156.716 293.507 157.508V158.242C293.507 159.195 293.671 160.029 293.999 160.742C294.332 161.451 294.804 162 295.413 162.391C296.022 162.781 296.744 162.977 297.577 162.977C298.145 162.977 298.642 162.888 299.069 162.711C299.502 162.534 299.864 162.297 300.155 162C300.452 161.698 300.676 161.367 300.827 161.008L302.147 161.437C301.965 161.943 301.666 162.409 301.249 162.836C300.838 163.263 300.322 163.607 299.702 163.867C299.088 164.122 298.379 164.25 297.577 164.25ZM313.571 154.633L312.298 154.992C312.173 154.633 311.996 154.307 311.767 154.016C311.537 153.724 311.238 153.492 310.868 153.32C310.504 153.148 310.05 153.062 309.509 153.062C308.696 153.062 308.03 153.255 307.509 153.641C306.988 154.026 306.728 154.523 306.728 155.133C306.728 155.648 306.905 156.068 307.259 156.391C307.618 156.708 308.17 156.961 308.915 157.148L310.728 157.594C311.733 157.839 312.485 158.227 312.985 158.758C313.491 159.289 313.743 159.956 313.743 160.758C313.743 161.435 313.556 162.036 313.181 162.562C312.806 163.089 312.282 163.503 311.61 163.805C310.944 164.102 310.17 164.25 309.29 164.25C308.118 164.25 307.152 163.987 306.392 163.461C305.631 162.93 305.144 162.164 304.931 161.164L306.267 160.836C306.438 161.549 306.774 162.089 307.274 162.453C307.78 162.818 308.444 163 309.267 163C310.188 163 310.925 162.794 311.478 162.383C312.03 161.966 312.306 161.445 312.306 160.82C312.306 160.336 312.144 159.93 311.821 159.602C311.498 159.268 311.009 159.023 310.353 158.867L308.392 158.398C307.35 158.148 306.579 157.753 306.079 157.211C305.579 156.669 305.329 155.997 305.329 155.195C305.329 154.534 305.509 153.953 305.868 153.453C306.228 152.948 306.722 152.552 307.353 152.266C307.983 151.979 308.701 151.836 309.509 151.836C310.608 151.836 311.485 152.086 312.142 152.586C312.803 153.081 313.28 153.763 313.571 154.633Z" fill="black"/>
<path d="M255.596 216.633L254.322 216.992C254.197 216.633 254.02 216.307 253.791 216.016C253.562 215.724 253.262 215.492 252.893 215.32C252.528 215.148 252.075 215.062 251.533 215.062C250.721 215.062 250.054 215.255 249.533 215.641C249.012 216.026 248.752 216.523 248.752 217.133C248.752 217.648 248.929 218.068 249.283 218.391C249.643 218.708 250.195 218.961 250.939 219.148L252.752 219.594C253.757 219.839 254.51 220.227 255.01 220.758C255.515 221.289 255.768 221.956 255.768 222.758C255.768 223.435 255.58 224.036 255.205 224.562C254.83 225.089 254.307 225.503 253.635 225.805C252.968 226.102 252.195 226.25 251.314 226.25C250.143 226.25 249.176 225.987 248.416 225.461C247.656 224.93 247.169 224.164 246.955 223.164L248.291 222.836C248.463 223.549 248.799 224.089 249.299 224.453C249.804 224.818 250.468 225 251.291 225C252.213 225 252.95 224.794 253.502 224.383C254.054 223.966 254.33 223.445 254.33 222.82C254.33 222.336 254.169 221.93 253.846 221.602C253.523 221.268 253.033 221.023 252.377 220.867L250.416 220.398C249.374 220.148 248.604 219.753 248.104 219.211C247.604 218.669 247.354 217.997 247.354 217.195C247.354 216.534 247.533 215.953 247.893 215.453C248.252 214.948 248.747 214.552 249.377 214.266C250.007 213.979 250.726 213.836 251.533 213.836C252.632 213.836 253.51 214.086 254.166 214.586C254.827 215.081 255.304 215.763 255.596 216.633ZM260.203 218.5V226H258.813V210H260.203V215.883H260.328C260.609 215.263 261.044 214.768 261.633 214.398C262.227 214.029 262.977 213.844 263.883 213.844C264.695 213.844 265.409 214.01 266.023 214.344C266.638 214.677 267.117 215.169 267.461 215.82C267.805 216.471 267.977 217.273 267.977 218.227V226H266.578V218.312C266.578 217.323 266.302 216.544 265.75 215.977C265.203 215.404 264.464 215.117 263.531 215.117C262.891 215.117 262.32 215.253 261.82 215.523C261.32 215.794 260.924 216.185 260.633 216.695C260.346 217.201 260.203 217.802 260.203 218.5ZM274.99 226.273C274.266 226.273 273.605 226.133 273.006 225.852C272.407 225.565 271.93 225.154 271.576 224.617C271.222 224.076 271.045 223.419 271.045 222.648C271.045 222.055 271.157 221.555 271.381 221.148C271.605 220.742 271.923 220.409 272.334 220.148C272.745 219.888 273.232 219.682 273.795 219.531C274.357 219.38 274.977 219.263 275.654 219.18C276.326 219.096 276.894 219.023 277.357 218.961C277.826 218.898 278.183 218.799 278.428 218.664C278.673 218.529 278.795 218.31 278.795 218.008V217.727C278.795 216.909 278.55 216.266 278.061 215.797C277.576 215.323 276.878 215.086 275.967 215.086C275.102 215.086 274.396 215.276 273.85 215.656C273.308 216.036 272.928 216.484 272.709 217L271.389 216.523C271.66 215.867 272.035 215.344 272.514 214.953C272.993 214.557 273.529 214.273 274.123 214.102C274.717 213.924 275.318 213.836 275.928 213.836C276.386 213.836 276.863 213.896 277.357 214.016C277.857 214.135 278.321 214.344 278.748 214.641C279.175 214.932 279.521 215.341 279.787 215.867C280.053 216.388 280.186 217.049 280.186 217.852V226H278.795V224.102H278.709C278.542 224.456 278.295 224.799 277.967 225.133C277.639 225.466 277.227 225.74 276.732 225.953C276.238 226.167 275.657 226.273 274.99 226.273ZM275.178 225C275.917 225 276.558 224.836 277.1 224.508C277.641 224.18 278.058 223.745 278.35 223.203C278.646 222.656 278.795 222.055 278.795 221.398V219.664C278.691 219.763 278.516 219.852 278.271 219.93C278.032 220.008 277.753 220.078 277.436 220.141C277.123 220.198 276.811 220.247 276.498 220.289C276.186 220.331 275.904 220.367 275.654 220.398C274.977 220.482 274.399 220.612 273.92 220.789C273.441 220.966 273.074 221.211 272.818 221.523C272.563 221.831 272.436 222.227 272.436 222.711C272.436 223.44 272.696 224.005 273.217 224.406C273.738 224.802 274.391 225 275.178 225ZM283.885 230.5V214H285.236V216.289H285.4C285.567 215.93 285.796 215.562 286.088 215.187C286.38 214.807 286.765 214.487 287.244 214.227C287.729 213.966 288.338 213.836 289.072 213.836C290.062 213.836 290.926 214.096 291.666 214.617C292.411 215.133 292.989 215.857 293.4 216.789C293.817 217.716 294.025 218.797 294.025 220.031C294.025 221.271 293.817 222.357 293.4 223.289C292.989 224.221 292.411 224.948 291.666 225.469C290.926 225.99 290.067 226.25 289.088 226.25C288.364 226.25 287.757 226.12 287.268 225.859C286.783 225.599 286.39 225.279 286.088 224.898C285.791 224.513 285.562 224.138 285.4 223.773H285.275V230.5H283.885ZM285.26 220.008C285.26 220.977 285.403 221.836 285.689 222.586C285.981 223.331 286.398 223.917 286.939 224.344C287.486 224.766 288.148 224.977 288.924 224.977C289.721 224.977 290.393 224.758 290.939 224.32C291.492 223.878 291.911 223.281 292.197 222.531C292.489 221.781 292.635 220.94 292.635 220.008C292.635 219.086 292.492 218.255 292.205 217.516C291.924 216.776 291.507 216.19 290.955 215.758C290.403 215.32 289.726 215.102 288.924 215.102C288.143 215.102 287.479 215.312 286.932 215.734C286.385 216.151 285.968 216.729 285.682 217.469C285.4 218.203 285.26 219.049 285.26 220.008ZM301.928 226.25C300.808 226.25 299.839 225.99 299.021 225.469C298.204 224.943 297.571 224.216 297.123 223.289C296.68 222.357 296.459 221.284 296.459 220.07C296.459 218.862 296.68 217.789 297.123 216.852C297.571 215.909 298.188 215.172 298.975 214.641C299.766 214.104 300.68 213.836 301.717 213.836C302.368 213.836 302.995 213.956 303.6 214.195C304.204 214.43 304.745 214.792 305.225 215.281C305.709 215.766 306.092 216.378 306.373 217.117C306.654 217.852 306.795 218.721 306.795 219.727V220.414H297.42V219.187H305.373C305.373 218.417 305.217 217.724 304.904 217.109C304.597 216.49 304.167 216 303.615 215.641C303.068 215.281 302.436 215.102 301.717 215.102C300.956 215.102 300.287 215.305 299.709 215.711C299.131 216.117 298.678 216.654 298.35 217.32C298.027 217.987 297.863 218.716 297.857 219.508V220.242C297.857 221.195 298.021 222.029 298.35 222.742C298.683 223.451 299.154 224 299.764 224.391C300.373 224.781 301.094 224.977 301.928 224.977C302.495 224.977 302.993 224.888 303.42 224.711C303.852 224.534 304.214 224.297 304.506 224C304.803 223.698 305.027 223.367 305.178 223.008L306.498 223.437C306.316 223.943 306.016 224.409 305.6 224.836C305.188 225.263 304.673 225.607 304.053 225.867C303.438 226.122 302.73 226.25 301.928 226.25ZM317.922 216.633L316.648 216.992C316.523 216.633 316.346 216.307 316.117 216.016C315.888 215.724 315.589 215.492 315.219 215.32C314.854 215.148 314.401 215.062 313.859 215.062C313.047 215.062 312.38 215.255 311.859 215.641C311.339 216.026 311.078 216.523 311.078 217.133C311.078 217.648 311.255 218.068 311.609 218.391C311.969 218.708 312.521 218.961 313.266 219.148L315.078 219.594C316.083 219.839 316.836 220.227 317.336 220.758C317.841 221.289 318.094 221.956 318.094 222.758C318.094 223.435 317.906 224.036 317.531 224.562C317.156 225.089 316.633 225.503 315.961 225.805C315.294 226.102 314.521 226.25 313.641 226.25C312.469 226.25 311.503 225.987 310.742 225.461C309.982 224.93 309.495 224.164 309.281 223.164L310.617 222.836C310.789 223.549 311.125 224.089 311.625 224.453C312.13 224.818 312.794 225 313.617 225C314.539 225 315.276 224.794 315.828 224.383C316.38 223.966 316.656 223.445 316.656 222.82C316.656 222.336 316.495 221.93 316.172 221.602C315.849 221.268 315.359 221.023 314.703 220.867L312.742 220.398C311.701 220.148 310.93 219.753 310.43 219.211C309.93 218.669 309.68 217.997 309.68 217.195C309.68 216.534 309.859 215.953 310.219 215.453C310.578 214.948 311.073 214.552 311.703 214.266C312.333 213.979 313.052 213.836 313.859 213.836C314.958 213.836 315.836 214.086 316.492 214.586C317.154 215.081 317.63 215.763 317.922 216.633Z" fill="black"/>
<path d="M261.81 85.2734C261.086 85.2734 260.424 85.1328 259.825 84.8516C259.226 84.5651 258.75 84.1536 258.396 83.6172C258.041 83.0755 257.864 82.4193 257.864 81.6484C257.864 81.0547 257.976 80.5547 258.2 80.1484C258.424 79.7422 258.742 79.4089 259.153 79.1484C259.565 78.888 260.052 78.6823 260.614 78.5312C261.177 78.3802 261.797 78.263 262.474 78.1797C263.146 78.0964 263.713 78.0234 264.177 77.9609C264.646 77.8984 265.002 77.7995 265.247 77.6641C265.492 77.5286 265.614 77.3099 265.614 77.0078V76.7266C265.614 75.9089 265.369 75.2656 264.88 74.7969C264.396 74.3229 263.698 74.0859 262.786 74.0859C261.922 74.0859 261.216 74.276 260.669 74.6562C260.127 75.0365 259.747 75.4844 259.528 76L258.208 75.5234C258.479 74.8672 258.854 74.3437 259.333 73.9531C259.812 73.5573 260.349 73.2734 260.942 73.1016C261.536 72.9245 262.138 72.8359 262.747 72.8359C263.205 72.8359 263.682 72.8958 264.177 73.0156C264.677 73.1354 265.14 73.3437 265.567 73.6406C265.994 73.9323 266.341 74.3411 266.606 74.8672C266.872 75.388 267.005 76.0495 267.005 76.8516V85H265.614V83.1016H265.528C265.362 83.4557 265.114 83.7995 264.786 84.1328C264.458 84.4661 264.047 84.7396 263.552 84.9531C263.057 85.1667 262.476 85.2734 261.81 85.2734ZM261.997 84C262.737 84 263.377 83.8359 263.919 83.5078C264.461 83.1797 264.877 82.7448 265.169 82.2031C265.466 81.6562 265.614 81.0547 265.614 80.3984V78.6641C265.51 78.763 265.336 78.8516 265.091 78.9297C264.851 79.0078 264.573 79.0781 264.255 79.1406C263.942 79.1979 263.63 79.2474 263.317 79.2891C263.005 79.3307 262.724 79.3672 262.474 79.3984C261.797 79.4818 261.218 79.612 260.739 79.7891C260.26 79.9661 259.893 80.2109 259.638 80.5234C259.382 80.8307 259.255 81.2266 259.255 81.7109C259.255 82.4401 259.515 83.0052 260.036 83.4062C260.557 83.8021 261.211 84 261.997 84ZM270.704 85V73H272.056V74.8437H272.157C272.397 74.2396 272.813 73.7526 273.407 73.3828C274.006 73.0078 274.683 72.8203 275.438 72.8203C275.553 72.8203 275.681 72.8229 275.821 72.8281C275.962 72.8333 276.079 72.8385 276.173 72.8438V74.2578C276.11 74.2474 276.001 74.2318 275.845 74.2109C275.688 74.1901 275.519 74.1797 275.337 74.1797C274.712 74.1797 274.155 74.3125 273.665 74.5781C273.181 74.8385 272.798 75.2005 272.517 75.6641C272.235 76.1276 272.095 76.6562 272.095 77.25V85H270.704ZM278.546 85V73H279.897V74.8437H279.999C280.239 74.2396 280.655 73.7526 281.249 73.3828C281.848 73.0078 282.525 72.8203 283.28 72.8203C283.395 72.8203 283.522 72.8229 283.663 72.8281C283.804 72.8333 283.921 72.8385 284.015 72.8438V74.2578C283.952 74.2474 283.843 74.2318 283.687 74.2109C283.53 74.1901 283.361 74.1797 283.179 74.1797C282.554 74.1797 281.996 74.3125 281.507 74.5781C281.022 74.8385 280.64 75.2005 280.358 75.6641C280.077 76.1276 279.937 76.6562 279.937 77.25V85H278.546ZM289.739 85.2734C289.015 85.2734 288.354 85.1328 287.755 84.8516C287.156 84.5651 286.679 84.1536 286.325 83.6172C285.971 83.0755 285.794 82.4193 285.794 81.6484C285.794 81.0547 285.906 80.5547 286.13 80.1484C286.354 79.7422 286.672 79.4089 287.083 79.1484C287.494 78.888 287.981 78.6823 288.544 78.5312C289.106 78.3802 289.726 78.263 290.403 78.1797C291.075 78.0964 291.643 78.0234 292.106 77.9609C292.575 77.8984 292.932 77.7995 293.177 77.6641C293.422 77.5286 293.544 77.3099 293.544 77.0078V76.7266C293.544 75.9089 293.299 75.2656 292.81 74.7969C292.325 74.3229 291.627 74.0859 290.716 74.0859C289.851 74.0859 289.146 74.276 288.599 74.6562C288.057 75.0365 287.677 75.4844 287.458 76L286.138 75.5234C286.409 74.8672 286.784 74.3437 287.263 73.9531C287.742 73.5573 288.278 73.2734 288.872 73.1016C289.466 72.9245 290.067 72.8359 290.677 72.8359C291.135 72.8359 291.612 72.8958 292.106 73.0156C292.606 73.1354 293.07 73.3437 293.497 73.6406C293.924 73.9323 294.271 74.3411 294.536 74.8672C294.802 75.388 294.935 76.0495 294.935 76.8516V85H293.544V83.1016H293.458C293.291 83.4557 293.044 83.7995 292.716 84.1328C292.388 84.4661 291.976 84.7396 291.481 84.9531C290.987 85.1667 290.406 85.2734 289.739 85.2734ZM289.927 84C290.666 84 291.307 83.8359 291.849 83.5078C292.39 83.1797 292.807 82.7448 293.099 82.2031C293.396 81.6562 293.544 81.0547 293.544 80.3984V78.6641C293.44 78.763 293.265 78.8516 293.021 78.9297C292.781 79.0078 292.502 79.0781 292.185 79.1406C291.872 79.1979 291.56 79.2474 291.247 79.2891C290.935 79.3307 290.653 79.3672 290.403 79.3984C289.726 79.4818 289.148 79.612 288.669 79.7891C288.19 79.9661 287.823 80.2109 287.567 80.5234C287.312 80.8307 287.185 81.2266 287.185 81.7109C287.185 82.4401 287.445 83.0052 287.966 83.4062C288.487 83.8021 289.14 84 289.927 84ZM299.173 89.5C298.897 89.5 298.639 89.474 298.399 89.4219C298.16 89.3698 297.97 89.3125 297.829 89.25L298.204 88.0234C298.678 88.1693 299.1 88.2214 299.47 88.1797C299.84 88.1432 300.168 87.9766 300.454 87.6797C300.741 87.388 300.996 86.9401 301.22 86.3359L301.657 85.1172L297.243 73H298.751L302.313 83.1641H302.423L305.985 73H307.493L302.415 86.8984C302.201 87.4766 301.938 87.9583 301.626 88.3438C301.313 88.7344 300.951 89.0234 300.54 89.2109C300.134 89.4036 299.678 89.5 299.173 89.5ZM218.895 112V100H220.246V101.844H220.371C220.611 101.224 221.009 100.737 221.566 100.383C222.129 100.023 222.803 99.8438 223.59 99.8438C224.418 99.8438 225.098 100.039 225.629 100.43C226.165 100.815 226.566 101.346 226.832 102.023H226.934C227.204 101.357 227.645 100.828 228.254 100.437C228.868 100.042 229.613 99.8438 230.488 99.8438C231.603 99.8438 232.483 100.195 233.129 100.898C233.775 101.596 234.098 102.617 234.098 103.961V112H232.707V103.961C232.707 103.013 232.465 102.302 231.98 101.828C231.496 101.354 230.858 101.117 230.066 101.117C229.15 101.117 228.444 101.398 227.949 101.961C227.454 102.523 227.207 103.237 227.207 104.102V112H225.785V103.836C225.785 103.023 225.559 102.367 225.105 101.867C224.652 101.367 224.014 101.117 223.191 101.117C222.639 101.117 222.142 101.253 221.699 101.523C221.262 101.794 220.915 102.172 220.66 102.656C220.41 103.135 220.285 103.687 220.285 104.312V112H218.895ZM241.131 112.273C240.407 112.273 239.745 112.133 239.146 111.852C238.548 111.565 238.071 111.154 237.717 110.617C237.363 110.076 237.186 109.419 237.186 108.648C237.186 108.055 237.298 107.555 237.521 107.148C237.745 106.742 238.063 106.409 238.475 106.148C238.886 105.888 239.373 105.682 239.936 105.531C240.498 105.38 241.118 105.263 241.795 105.18C242.467 105.096 243.035 105.023 243.498 104.961C243.967 104.898 244.324 104.799 244.568 104.664C244.813 104.529 244.936 104.31 244.936 104.008V103.727C244.936 102.909 244.691 102.266 244.201 101.797C243.717 101.323 243.019 101.086 242.107 101.086C241.243 101.086 240.537 101.276 239.99 101.656C239.449 102.036 239.068 102.484 238.85 103L237.529 102.523C237.8 101.867 238.175 101.344 238.654 100.953C239.133 100.557 239.67 100.273 240.264 100.102C240.857 99.9245 241.459 99.8359 242.068 99.8359C242.527 99.8359 243.003 99.8958 243.498 100.016C243.998 100.135 244.462 100.344 244.889 100.641C245.316 100.932 245.662 101.341 245.928 101.867C246.193 102.388 246.326 103.049 246.326 103.852V112H244.936V110.102H244.85C244.683 110.456 244.436 110.799 244.107 111.133C243.779 111.466 243.368 111.74 242.873 111.953C242.378 112.167 241.798 112.273 241.131 112.273ZM241.318 111C242.058 111 242.699 110.836 243.24 110.508C243.782 110.18 244.199 109.745 244.49 109.203C244.787 108.656 244.936 108.055 244.936 107.398V105.664C244.831 105.763 244.657 105.852 244.412 105.93C244.173 106.008 243.894 106.078 243.576 106.141C243.264 106.198 242.951 106.247 242.639 106.289C242.326 106.331 242.045 106.367 241.795 106.398C241.118 106.482 240.54 106.612 240.061 106.789C239.581 106.966 239.214 107.211 238.959 107.523C238.704 107.831 238.576 108.227 238.576 108.711C238.576 109.44 238.837 110.005 239.357 110.406C239.878 110.802 240.532 111 241.318 111ZM251.416 104.5V112H250.025V100H251.377V101.883H251.502C251.783 101.268 252.221 100.776 252.814 100.406C253.413 100.031 254.153 99.8438 255.033 99.8438C255.84 99.8438 256.549 100.013 257.158 100.352C257.773 100.685 258.249 101.177 258.588 101.828C258.932 102.479 259.104 103.279 259.104 104.227V112H257.713V104.312C257.713 103.328 257.437 102.549 256.885 101.977C256.338 101.404 255.604 101.117 254.682 101.117C254.051 101.117 253.492 101.253 253.002 101.523C252.512 101.794 252.124 102.185 251.838 102.695C251.557 103.201 251.416 103.802 251.416 104.5ZM262.781 112V100H264.18V112H262.781ZM263.492 97.9375C263.206 97.9375 262.961 97.8411 262.758 97.6484C262.555 97.4505 262.453 97.2135 262.453 96.9375C262.453 96.6615 262.555 96.4271 262.758 96.2344C262.961 96.0365 263.206 95.9375 263.492 95.9375C263.779 95.9375 264.023 96.0365 264.227 96.2344C264.43 96.4271 264.531 96.6615 264.531 96.9375C264.531 97.2135 264.43 97.4505 264.227 97.6484C264.023 97.8411 263.779 97.9375 263.492 97.9375ZM267.857 116.5V100H269.209V102.289H269.373C269.54 101.93 269.769 101.562 270.061 101.187C270.352 100.807 270.738 100.487 271.217 100.227C271.701 99.9661 272.311 99.8359 273.045 99.8359C274.035 99.8359 274.899 100.096 275.639 100.617C276.383 101.133 276.962 101.857 277.373 102.789C277.79 103.716 277.998 104.797 277.998 106.031C277.998 107.271 277.79 108.357 277.373 109.289C276.962 110.221 276.383 110.948 275.639 111.469C274.899 111.99 274.04 112.25 273.061 112.25C272.337 112.25 271.73 112.12 271.24 111.859C270.756 111.599 270.363 111.279 270.061 110.898C269.764 110.513 269.535 110.138 269.373 109.773H269.248V116.5H267.857ZM269.232 106.008C269.232 106.977 269.376 107.836 269.662 108.586C269.954 109.331 270.37 109.917 270.912 110.344C271.459 110.766 272.12 110.977 272.896 110.977C273.693 110.977 274.365 110.758 274.912 110.32C275.464 109.878 275.883 109.281 276.17 108.531C276.462 107.781 276.607 106.94 276.607 106.008C276.607 105.086 276.464 104.255 276.178 103.516C275.896 102.776 275.48 102.19 274.928 101.758C274.376 101.32 273.699 101.102 272.896 101.102C272.115 101.102 271.451 101.312 270.904 101.734C270.357 102.151 269.941 102.729 269.654 103.469C269.373 104.203 269.232 105.049 269.232 106.008ZM288.674 107.414V100H290.064V112H288.674V110.008H288.564C288.283 110.622 287.838 111.135 287.229 111.547C286.619 111.953 285.874 112.156 284.994 112.156C284.229 112.156 283.549 111.99 282.955 111.656C282.361 111.318 281.895 110.823 281.557 110.172C281.218 109.521 281.049 108.721 281.049 107.773V100H282.439V107.687C282.439 108.625 282.715 109.38 283.268 109.953C283.82 110.521 284.528 110.805 285.393 110.805C285.934 110.805 286.455 110.674 286.955 110.414C287.455 110.154 287.867 109.773 288.189 109.273C288.512 108.768 288.674 108.148 288.674 107.414ZM295.137 96V112H293.746V96H295.137ZM302.168 112.273C301.444 112.273 300.783 112.133 300.184 111.852C299.585 111.565 299.108 111.154 298.754 110.617C298.4 110.076 298.223 109.419 298.223 108.648C298.223 108.055 298.335 107.555 298.559 107.148C298.783 106.742 299.1 106.409 299.512 106.148C299.923 105.888 300.41 105.682 300.973 105.531C301.535 105.38 302.155 105.263 302.832 105.18C303.504 105.096 304.072 105.023 304.535 104.961C305.004 104.898 305.361 104.799 305.605 104.664C305.85 104.529 305.973 104.31 305.973 104.008V103.727C305.973 102.909 305.728 102.266 305.238 101.797C304.754 101.323 304.056 101.086 303.145 101.086C302.28 101.086 301.574 101.276 301.027 101.656C300.486 102.036 300.105 102.484 299.887 103L298.566 102.523C298.837 101.867 299.212 101.344 299.691 100.953C300.171 100.557 300.707 100.273 301.301 100.102C301.895 99.9245 302.496 99.8359 303.105 99.8359C303.564 99.8359 304.04 99.8958 304.535 100.016C305.035 100.135 305.499 100.344 305.926 100.641C306.353 100.932 306.699 101.341 306.965 101.867C307.23 102.388 307.363 103.049 307.363 103.852V112H305.973V110.102H305.887C305.72 110.456 305.473 110.799 305.145 111.133C304.816 111.466 304.405 111.74 303.91 111.953C303.415 112.167 302.835 112.273 302.168 112.273ZM302.355 111C303.095 111 303.736 110.836 304.277 110.508C304.819 110.18 305.236 109.745 305.527 109.203C305.824 108.656 305.973 108.055 305.973 107.398V105.664C305.868 105.763 305.694 105.852 305.449 105.93C305.21 106.008 304.931 106.078 304.613 106.141C304.301 106.198 303.988 106.247 303.676 106.289C303.363 106.331 303.082 106.367 302.832 106.398C302.155 106.482 301.577 106.612 301.098 106.789C300.618 106.966 300.251 107.211 299.996 107.523C299.741 107.831 299.613 108.227 299.613 108.711C299.613 109.44 299.874 110.005 300.395 110.406C300.915 110.802 301.569 111 302.355 111ZM315.789 100V101.211H310.063V100H315.789ZM311.852 97.125H313.25V108.867C313.25 109.367 313.336 109.76 313.508 110.047C313.68 110.328 313.904 110.529 314.18 110.648C314.456 110.763 314.75 110.82 315.063 110.82C315.245 110.82 315.401 110.81 315.531 110.789C315.661 110.763 315.776 110.737 315.875 110.711L316.172 111.969C316.036 112.021 315.87 112.068 315.672 112.109C315.474 112.156 315.229 112.18 314.937 112.18C314.427 112.18 313.935 112.068 313.461 111.844C312.992 111.62 312.607 111.286 312.305 110.844C312.003 110.401 311.852 109.852 311.852 109.195V97.125ZM318.963 112V100H320.361V112H318.963ZM319.674 97.9375C319.387 97.9375 319.143 97.8411 318.939 97.6484C318.736 97.4505 318.635 97.2135 318.635 96.9375C318.635 96.6615 318.736 96.4271 318.939 96.2344C319.143 96.0365 319.387 95.9375 319.674 95.9375C319.96 95.9375 320.205 96.0365 320.408 96.2344C320.611 96.4271 320.713 96.6615 320.713 96.9375C320.713 97.2135 320.611 97.4505 320.408 97.6484C320.205 97.8411 319.96 97.9375 319.674 97.9375ZM328.703 112.25C327.667 112.25 326.75 111.987 325.953 111.461C325.161 110.935 324.542 110.208 324.094 109.281C323.646 108.349 323.422 107.273 323.422 106.055C323.422 104.826 323.646 103.745 324.094 102.812C324.542 101.875 325.161 101.146 325.953 100.625C326.75 100.099 327.667 99.8359 328.703 99.8359C329.74 99.8359 330.654 100.099 331.445 100.625C332.237 101.151 332.857 101.88 333.305 102.812C333.758 103.745 333.984 104.826 333.984 106.055C333.984 107.273 333.76 108.349 333.313 109.281C332.865 110.208 332.242 110.935 331.445 111.461C330.654 111.987 329.74 112.25 328.703 112.25ZM328.703 110.977C329.536 110.977 330.242 110.753 330.82 110.305C331.398 109.857 331.836 109.26 332.133 108.516C332.435 107.771 332.586 106.951 332.586 106.055C332.586 105.159 332.435 104.336 332.133 103.586C331.836 102.836 331.398 102.234 330.82 101.781C330.242 101.328 329.536 101.102 328.703 101.102C327.875 101.102 327.169 101.328 326.586 101.781C326.008 102.234 325.568 102.836 325.266 103.586C324.969 104.336 324.82 105.159 324.82 106.055C324.82 106.951 324.969 107.771 325.266 108.516C325.568 109.26 326.008 109.857 326.586 110.305C327.164 110.753 327.87 110.977 328.703 110.977ZM338.428 104.5V112H337.037V100H338.389V101.883H338.514C338.795 101.268 339.232 100.776 339.826 100.406C340.425 100.031 341.165 99.8438 342.045 99.8438C342.852 99.8438 343.561 100.013 344.17 100.352C344.785 100.685 345.261 101.177 345.6 101.828C345.943 102.479 346.115 103.279 346.115 104.227V112H344.725V104.312C344.725 103.328 344.449 102.549 343.896 101.977C343.35 101.404 342.615 101.117 341.693 101.117C341.063 101.117 340.503 101.253 340.014 101.523C339.524 101.794 339.136 102.185 338.85 102.695C338.568 103.201 338.428 103.802 338.428 104.5Z" fill="black"/>
<path d="M43.9736 226V214H45.3252V215.844H45.4268C45.6663 215.24 46.083 214.753 46.6768 214.383C47.2757 214.008 47.9528 213.82 48.708 213.82C48.8226 213.82 48.9502 213.823 49.0908 213.828C49.2314 213.833 49.3486 213.839 49.4424 213.844V215.258C49.3799 215.247 49.2705 215.232 49.1143 215.211C48.958 215.19 48.7887 215.18 48.6064 215.18C47.9814 215.18 47.4242 215.312 46.9346 215.578C46.4502 215.839 46.0674 216.201 45.7861 216.664C45.5049 217.128 45.3643 217.656 45.3643 218.25V226H43.9736ZM56.3018 226.25C55.182 226.25 54.2132 225.99 53.3955 225.469C52.5778 224.943 51.945 224.216 51.4971 223.289C51.0544 222.357 50.833 221.284 50.833 220.07C50.833 218.862 51.0544 217.789 51.4971 216.852C51.945 215.909 52.5622 215.172 53.3486 214.641C54.1403 214.104 55.0544 213.836 56.0908 213.836C56.7419 213.836 57.3695 213.956 57.9736 214.195C58.5778 214.43 59.1195 214.792 59.5986 215.281C60.083 215.766 60.4658 216.378 60.7471 217.117C61.0283 217.852 61.1689 218.721 61.1689 219.727V220.414H51.7939V219.187H59.7471C59.7471 218.417 59.5908 217.724 59.2783 217.109C58.971 216.49 58.5413 216 57.9893 215.641C57.4424 215.281 56.8096 215.102 56.0908 215.102C55.3304 215.102 54.6611 215.305 54.083 215.711C53.5049 216.117 53.0518 216.654 52.7236 217.32C52.4007 217.987 52.2367 218.716 52.2314 219.508V220.242C52.2314 221.195 52.3955 222.029 52.7236 222.742C53.057 223.451 53.5283 224 54.1377 224.391C54.7471 224.781 55.4684 224.977 56.3018 224.977C56.8695 224.977 57.3669 224.888 57.7939 224.711C58.2262 224.534 58.5882 224.297 58.8799 224C59.1768 223.698 59.4007 223.367 59.5518 223.008L60.8721 223.437C60.6898 223.943 60.3903 224.409 59.9736 224.836C59.5622 225.263 59.0465 225.607 58.4268 225.867C57.8122 226.122 57.1038 226.25 56.3018 226.25ZM67.585 226.273C66.861 226.273 66.1995 226.133 65.6006 225.852C65.0016 225.565 64.5251 225.154 64.1709 224.617C63.8167 224.076 63.6396 223.419 63.6396 222.648C63.6396 222.055 63.7516 221.555 63.9756 221.148C64.1995 220.742 64.5173 220.409 64.9287 220.148C65.3402 219.888 65.8271 219.682 66.3896 219.531C66.9521 219.38 67.5719 219.263 68.249 219.18C68.9209 219.096 69.4886 219.023 69.9521 218.961C70.4209 218.898 70.7777 218.799 71.0225 218.664C71.2673 218.529 71.3896 218.31 71.3896 218.008V217.727C71.3896 216.909 71.1449 216.266 70.6553 215.797C70.1709 215.323 69.473 215.086 68.5615 215.086C67.6969 215.086 66.9912 215.276 66.4443 215.656C65.9027 216.036 65.5225 216.484 65.3037 217L63.9834 216.523C64.2542 215.867 64.6292 215.344 65.1084 214.953C65.5876 214.557 66.124 214.273 66.7178 214.102C67.3115 213.924 67.9131 213.836 68.5225 213.836C68.9808 213.836 69.4574 213.896 69.9521 214.016C70.4521 214.135 70.9157 214.344 71.3428 214.641C71.7699 214.932 72.1162 215.341 72.3818 215.867C72.6475 216.388 72.7803 217.049 72.7803 217.852V226H71.3896V224.102H71.3037C71.137 224.456 70.8896 224.799 70.5615 225.133C70.2334 225.466 69.8219 225.74 69.3271 225.953C68.8324 226.167 68.2516 226.273 67.585 226.273ZM67.7725 225C68.512 225 69.1527 224.836 69.6943 224.508C70.236 224.18 70.6527 223.745 70.9443 223.203C71.2412 222.656 71.3896 222.055 71.3896 221.398V219.664C71.2855 219.763 71.111 219.852 70.8662 219.93C70.6266 220.008 70.348 220.078 70.0303 220.141C69.7178 220.198 69.4053 220.247 69.0928 220.289C68.7803 220.331 68.499 220.367 68.249 220.398C67.5719 220.482 66.9938 220.612 66.5146 220.789C66.0355 220.966 65.6683 221.211 65.4131 221.523C65.1579 221.831 65.0303 222.227 65.0303 222.711C65.0303 223.44 65.2907 224.005 65.8115 224.406C66.3324 224.802 66.986 225 67.7725 225ZM81.167 226.25C80.0941 226.25 79.1592 225.982 78.3623 225.445C77.5706 224.909 76.9561 224.174 76.5186 223.242C76.0811 222.31 75.8623 221.247 75.8623 220.055C75.8623 218.852 76.0837 217.781 76.5264 216.844C76.9743 215.906 77.5941 215.172 78.3857 214.641C79.1774 214.104 80.0967 213.836 81.1436 213.836C81.9456 213.836 82.6722 213.992 83.3232 214.305C83.9743 214.612 84.5107 215.047 84.9326 215.609C85.3597 216.167 85.6279 216.818 85.7373 217.562H84.3311C84.1852 216.885 83.8337 216.307 83.2764 215.828C82.7243 215.344 82.0212 215.102 81.167 215.102C80.4014 215.102 79.7243 215.31 79.1357 215.727C78.5472 216.138 78.0863 216.714 77.7529 217.453C77.4248 218.187 77.2607 219.039 77.2607 220.008C77.2607 220.982 77.4222 221.844 77.7451 222.594C78.068 223.339 78.5212 223.922 79.1045 224.344C79.693 224.766 80.3805 224.977 81.167 224.977C81.6982 224.977 82.1826 224.878 82.6201 224.68C83.0628 224.477 83.4326 224.19 83.7295 223.82C84.0316 223.451 84.2347 223.01 84.3389 222.5H85.7451C85.641 223.224 85.3831 223.87 84.9717 224.438C84.5654 225 84.0368 225.443 83.3857 225.766C82.7399 226.089 82.0003 226.25 81.167 226.25ZM93.4521 214V215.211H87.7256V214H93.4521ZM89.5146 211.125H90.9131V222.867C90.9131 223.367 90.999 223.76 91.1709 224.047C91.3428 224.328 91.5667 224.529 91.8428 224.648C92.1188 224.763 92.4131 224.82 92.7256 224.82C92.9079 224.82 93.0641 224.81 93.1943 224.789C93.3245 224.763 93.4391 224.737 93.5381 224.711L93.835 225.969C93.6995 226.021 93.5329 226.068 93.335 226.109C93.137 226.156 92.8923 226.18 92.6006 226.18C92.0902 226.18 91.598 226.068 91.124 225.844C90.6553 225.62 90.2699 225.286 89.9678 224.844C89.6657 224.401 89.5146 223.852 89.5146 223.195V211.125ZM96.626 226V214H98.0244V226H96.626ZM97.3369 211.937C97.0505 211.937 96.8057 211.841 96.6025 211.648C96.3994 211.451 96.2979 211.214 96.2979 210.937C96.2979 210.661 96.3994 210.427 96.6025 210.234C96.8057 210.036 97.0505 209.937 97.3369 209.937C97.6234 209.937 97.8682 210.036 98.0713 210.234C98.2744 210.427 98.376 210.661 98.376 210.937C98.376 211.214 98.2744 211.451 98.0713 211.648C97.8682 211.841 97.6234 211.937 97.3369 211.937ZM110.991 214L106.608 226H105.124L100.741 214H102.249L105.812 224.164H105.921L109.483 214H110.991ZM113.728 226V214H115.126V226H113.728ZM114.438 211.937C114.152 211.937 113.907 211.841 113.704 211.648C113.501 211.451 113.399 211.214 113.399 210.937C113.399 210.661 113.501 210.427 113.704 210.234C113.907 210.036 114.152 209.937 114.438 209.937C114.725 209.937 114.97 210.036 115.173 210.234C115.376 210.427 115.478 210.661 115.478 210.937C115.478 211.214 115.376 211.451 115.173 211.648C114.97 211.841 114.725 211.937 114.438 211.937ZM123.53 214V215.211H117.804V214H123.53ZM119.593 211.125H120.991V222.867C120.991 223.367 121.077 223.76 121.249 224.047C121.421 224.328 121.645 224.529 121.921 224.648C122.197 224.763 122.491 224.82 122.804 224.82C122.986 224.82 123.142 224.81 123.272 224.789C123.403 224.763 123.517 224.737 123.616 224.711L123.913 225.969C123.778 226.021 123.611 226.068 123.413 226.109C123.215 226.156 122.97 226.18 122.679 226.18C122.168 226.18 121.676 226.068 121.202 225.844C120.733 225.62 120.348 225.286 120.046 224.844C119.744 224.401 119.593 223.852 119.593 223.195V211.125ZM127.657 230.5C127.381 230.5 127.123 230.474 126.884 230.422C126.644 230.37 126.454 230.313 126.313 230.25L126.688 229.023C127.162 229.169 127.584 229.221 127.954 229.18C128.324 229.143 128.652 228.977 128.938 228.68C129.225 228.388 129.48 227.94 129.704 227.336L130.142 226.117L125.728 214H127.235L130.798 224.164H130.907L134.47 214H135.978L130.899 227.898C130.686 228.477 130.423 228.958 130.11 229.344C129.798 229.734 129.436 230.023 129.024 230.211C128.618 230.404 128.162 230.5 127.657 230.5Z" fill="black"/>
</svg>
